  0
SECTION
  2
BLOCKS
  0
ENDSEC
  0
SECTION
  2
ENTITIES
  0
LINE
  8
0
 10
20.5
 20
20.5
 11
-20.5
 21
20.5
  0
LINE
  8
0
 10
-20.5
 20
20.5
 11
-20.5
 21
-20.5
  0
LINE
  8
0
 10
-20.5
 20
-20.5
 11
20.5
 21
-20.5
  0
LINE
  8
0
 10
20.5
 20
-20.5
 11
20.5
 21
20.5
  0
LINE
  8
0
 10
16.838
 20
15.4585
 11
16.521
 21
15.5258
  0
LINE
  8
0
 10
16.521
 20
15.5258
 11
16.225
 21
15.6577
  0
LINE
  8
0
 10
16.225
 20
15.6577
 11
15.9628
 21
15.8481
  0
LINE
  8
0
 10
15.9628
 20
15.8481
 11
15.746
 21
16.0889
  0
LINE
  8
0
 10
15.746
 20
16.0889
 11
15.584
 21
16.3696
  0
LINE
  8
0
 10
15.584
 20
16.3696
 11
15.4839
 21
16.6777
  0
LINE
  8
0
 10
15.4839
 20
16.6777
 11
15.45
 21
17
  0
LINE
  8
0
 10
15.45
 20
17
 11
15.4839
 21
17.3223
  0
LINE
  8
0
 10
15.4839
 20
17.3223
 11
15.584
 21
17.6304
  0
LINE
  8
0
 10
15.584
 20
17.6304
 11
15.746
 21
17.9111
  0
LINE
  8
0
 10
15.746
 20
17.9111
 11
15.9628
 21
18.1519
  0
LINE
  8
0
 10
15.9628
 20
18.1519
 11
16.225
 21
18.3423
  0
LINE
  8
0
 10
16.225
 20
18.3423
 11
16.521
 21
18.4741
  0
LINE
  8
0
 10
16.521
 20
18.4741
 11
16.838
 21
18.5415
  0
LINE
  8
0
 10
16.838
 20
18.5415
 11
17.162
 21
18.5415
  0
LINE
  8
0
 10
17.162
 20
18.5415
 11
17.479
 21
18.4741
  0
LINE
  8
0
 10
17.479
 20
18.4741
 11
17.775
 21
18.3423
  0
LINE
  8
0
 10
17.775
 20
18.3423
 11
18.0371
 21
18.1519
  0
LINE
  8
0
 10
18.0371
 20
18.1519
 11
18.254
 21
17.9111
  0
LINE
  8
0
 10
18.254
 20
17.9111
 11
18.416
 21
17.6304
  0
LINE
  8
0
 10
18.416
 20
17.6304
 11
18.5161
 21
17.3223
  0
LINE
  8
0
 10
18.5161
 20
17.3223
 11
18.55
 21
17
  0
LINE
  8
0
 10
18.55
 20
17
 11
18.5161
 21
16.6777
  0
LINE
  8
0
 10
18.5161
 20
16.6777
 11
18.416
 21
16.3696
  0
LINE
  8
0
 10
18.416
 20
16.3696
 11
18.254
 21
16.0889
  0
LINE
  8
0
 10
18.254
 20
16.0889
 11
18.0371
 21
15.8481
  0
LINE
  8
0
 10
18.0371
 20
15.8481
 11
17.775
 21
15.6577
  0
LINE
  8
0
 10
17.775
 20
15.6577
 11
17.479
 21
15.5258
  0
LINE
  8
0
 10
17.479
 20
15.5258
 11
17.162
 21
15.4585
  0
LINE
  8
0
 10
17.162
 20
15.4585
 11
16.838
 21
15.4585
  0
LINE
  8
0
 10
-17.162
 20
15.4585
 11
-17.479
 21
15.5258
  0
LINE
  8
0
 10
-17.479
 20
15.5258
 11
-17.775
 21
15.6577
  0
LINE
  8
0
 10
-17.775
 20
15.6577
 11
-18.0371
 21
15.8481
  0
LINE
  8
0
 10
-18.0371
 20
15.8481
 11
-18.254
 21
16.0889
  0
LINE
  8
0
 10
-18.254
 20
16.0889
 11
-18.416
 21
16.3696
  0
LINE
  8
0
 10
-18.416
 20
16.3696
 11
-18.5161
 21
16.6777
  0
LINE
  8
0
 10
-18.5161
 20
16.6777
 11
-18.55
 21
17
  0
LINE
  8
0
 10
-18.55
 20
17
 11
-18.5161
 21
17.3223
  0
LINE
  8
0
 10
-18.5161
 20
17.3223
 11
-18.416
 21
17.6304
  0
LINE
  8
0
 10
-18.416
 20
17.6304
 11
-18.254
 21
17.9111
  0
LINE
  8
0
 10
-18.254
 20
17.9111
 11
-18.0371
 21
18.1519
  0
LINE
  8
0
 10
-18.0371
 20
18.1519
 11
-17.775
 21
18.3423
  0
LINE
  8
0
 10
-17.775
 20
18.3423
 11
-17.479
 21
18.4741
  0
LINE
  8
0
 10
-17.479
 20
18.4741
 11
-17.162
 21
18.5415
  0
LINE
  8
0
 10
-17.162
 20
18.5415
 11
-16.838
 21
18.5415
  0
LINE
  8
0
 10
-16.838
 20
18.5415
 11
-16.521
 21
18.4741
  0
LINE
  8
0
 10
-16.521
 20
18.4741
 11
-16.225
 21
18.3423
  0
LINE
  8
0
 10
-16.225
 20
18.3423
 11
-15.9628
 21
18.1519
  0
LINE
  8
0
 10
-15.9628
 20
18.1519
 11
-15.746
 21
17.9111
  0
LINE
  8
0
 10
-15.746
 20
17.9111
 11
-15.584
 21
17.6304
  0
LINE
  8
0
 10
-15.584
 20
17.6304
 11
-15.4839
 21
17.3223
  0
LINE
  8
0
 10
-15.4839
 20
17.3223
 11
-15.45
 21
17
  0
LINE
  8
0
 10
-15.45
 20
17
 11
-15.4839
 21
16.6777
  0
LINE
  8
0
 10
-15.4839
 20
16.6777
 11
-15.584
 21
16.3696
  0
LINE
  8
0
 10
-15.584
 20
16.3696
 11
-15.746
 21
16.0889
  0
LINE
  8
0
 10
-15.746
 20
16.0889
 11
-15.9628
 21
15.8481
  0
LINE
  8
0
 10
-15.9628
 20
15.8481
 11
-16.225
 21
15.6577
  0
LINE
  8
0
 10
-16.225
 20
15.6577
 11
-16.521
 21
15.5258
  0
LINE
  8
0
 10
-16.521
 20
15.5258
 11
-16.838
 21
15.4585
  0
LINE
  8
0
 10
-16.838
 20
15.4585
 11
-17.162
 21
15.4585
  0
LINE
  8
0
 10
-14.5
 20
-17
 11
-14.5
 21
-14.5
  0
LINE
  8
0
 10
-14.5
 20
-14.5
 11
-17
 21
-14.5
  0
LINE
  8
0
 10
-17
 20
-14.5
 11
-17
 21
14.5
  0
LINE
  8
0
 10
-17
 20
14.5
 11
-14.5
 21
14.5
  0
LINE
  8
0
 10
-14.5
 20
14.5
 11
-14.5
 21
17
  0
LINE
  8
0
 10
-14.5
 20
17
 11
14.5
 21
17
  0
LINE
  8
0
 10
14.5
 20
17
 11
14.5
 21
14.5
  0
LINE
  8
0
 10
14.5
 20
14.5
 11
17
 21
14.5
  0
LINE
  8
0
 10
17
 20
14.5
 11
17
 21
-14.5
  0
LINE
  8
0
 10
17
 20
-14.5
 11
14.5
 21
-14.5
  0
LINE
  8
0
 10
14.5
 20
-14.5
 11
14.5
 21
-17
  0
LINE
  8
0
 10
14.5
 20
-17
 11
-14.5
 21
-17
  0
LINE
  8
0
 10
-17.162
 20
-18.5415
 11
-17.479
 21
-18.4741
  0
LINE
  8
0
 10
-17.479
 20
-18.4741
 11
-17.775
 21
-18.3423
  0
LINE
  8
0
 10
-17.775
 20
-18.3423
 11
-18.0371
 21
-18.1519
  0
LINE
  8
0
 10
-18.0371
 20
-18.1519
 11
-18.254
 21
-17.9111
  0
LINE
  8
0
 10
-18.254
 20
-17.9111
 11
-18.416
 21
-17.6304
  0
LINE
  8
0
 10
-18.416
 20
-17.6304
 11
-18.5161
 21
-17.3223
  0
LINE
  8
0
 10
-18.5161
 20
-17.3223
 11
-18.55
 21
-17
  0
LINE
  8
0
 10
-18.55
 20
-17
 11
-18.5161
 21
-16.6777
  0
LINE
  8
0
 10
-18.5161
 20
-16.6777
 11
-18.416
 21
-16.3696
  0
LINE
  8
0
 10
-18.416
 20
-16.3696
 11
-18.254
 21
-16.0889
  0
LINE
  8
0
 10
-18.254
 20
-16.0889
 11
-18.0371
 21
-15.8481
  0
LINE
  8
0
 10
-18.0371
 20
-15.8481
 11
-17.775
 21
-15.6577
  0
LINE
  8
0
 10
-17.775
 20
-15.6577
 11
-17.479
 21
-15.5258
  0
LINE
  8
0
 10
-17.479
 20
-15.5258
 11
-17.162
 21
-15.4585
  0
LINE
  8
0
 10
-17.162
 20
-15.4585
 11
-16.838
 21
-15.4585
  0
LINE
  8
0
 10
-16.838
 20
-15.4585
 11
-16.521
 21
-15.5258
  0
LINE
  8
0
 10
-16.521
 20
-15.5258
 11
-16.225
 21
-15.6577
  0
LINE
  8
0
 10
-16.225
 20
-15.6577
 11
-15.9628
 21
-15.8481
  0
LINE
  8
0
 10
-15.9628
 20
-15.8481
 11
-15.746
 21
-16.0889
  0
LINE
  8
0
 10
-15.746
 20
-16.0889
 11
-15.584
 21
-16.3696
  0
LINE
  8
0
 10
-15.584
 20
-16.3696
 11
-15.4839
 21
-16.6777
  0
LINE
  8
0
 10
-15.4839
 20
-16.6777
 11
-15.45
 21
-17
  0
LINE
  8
0
 10
-15.45
 20
-17
 11
-15.4839
 21
-17.3223
  0
LINE
  8
0
 10
-15.4839
 20
-17.3223
 11
-15.584
 21
-17.6304
  0
LINE
  8
0
 10
-15.584
 20
-17.6304
 11
-15.746
 21
-17.9111
  0
LINE
  8
0
 10
-15.746
 20
-17.9111
 11
-15.9628
 21
-18.1519
  0
LINE
  8
0
 10
-15.9628
 20
-18.1519
 11
-16.225
 21
-18.3423
  0
LINE
  8
0
 10
-16.225
 20
-18.3423
 11
-16.521
 21
-18.4741
  0
LINE
  8
0
 10
-16.521
 20
-18.4741
 11
-16.838
 21
-18.5415
  0
LINE
  8
0
 10
-16.838
 20
-18.5415
 11
-17.162
 21
-18.5415
  0
LINE
  8
0
 10
16.838
 20
-18.5415
 11
16.521
 21
-18.4741
  0
LINE
  8
0
 10
16.521
 20
-18.4741
 11
16.225
 21
-18.3423
  0
LINE
  8
0
 10
16.225
 20
-18.3423
 11
15.9628
 21
-18.1519
  0
LINE
  8
0
 10
15.9628
 20
-18.1519
 11
15.746
 21
-17.9111
  0
LINE
  8
0
 10
15.746
 20
-17.9111
 11
15.584
 21
-17.6304
  0
LINE
  8
0
 10
15.584
 20
-17.6304
 11
15.4839
 21
-17.3223
  0
LINE
  8
0
 10
15.4839
 20
-17.3223
 11
15.45
 21
-17
  0
LINE
  8
0
 10
15.45
 20
-17
 11
15.4839
 21
-16.6777
  0
LINE
  8
0
 10
15.4839
 20
-16.6777
 11
15.584
 21
-16.3696
  0
LINE
  8
0
 10
15.584
 20
-16.3696
 11
15.746
 21
-16.0889
  0
LINE
  8
0
 10
15.746
 20
-16.0889
 11
15.9628
 21
-15.8481
  0
LINE
  8
0
 10
15.9628
 20
-15.8481
 11
16.225
 21
-15.6577
  0
LINE
  8
0
 10
16.225
 20
-15.6577
 11
16.521
 21
-15.5258
  0
LINE
  8
0
 10
16.521
 20
-15.5258
 11
16.838
 21
-15.4585
  0
LINE
  8
0
 10
16.838
 20
-15.4585
 11
17.162
 21
-15.4585
  0
LINE
  8
0
 10
17.162
 20
-15.4585
 11
17.479
 21
-15.5258
  0
LINE
  8
0
 10
17.479
 20
-15.5258
 11
17.775
 21
-15.6577
  0
LINE
  8
0
 10
17.775
 20
-15.6577
 11
18.0371
 21
-15.8481
  0
LINE
  8
0
 10
18.0371
 20
-15.8481
 11
18.254
 21
-16.0889
  0
LINE
  8
0
 10
18.254
 20
-16.0889
 11
18.416
 21
-16.3696
  0
LINE
  8
0
 10
18.416
 20
-16.3696
 11
18.5161
 21
-16.6777
  0
LINE
  8
0
 10
18.5161
 20
-16.6777
 11
18.55
 21
-17
  0
LINE
  8
0
 10
18.55
 20
-17
 11
18.5161
 21
-17.3223
  0
LINE
  8
0
 10
18.5161
 20
-17.3223
 11
18.416
 21
-17.6304
  0
LINE
  8
0
 10
18.416
 20
-17.6304
 11
18.254
 21
-17.9111
  0
LINE
  8
0
 10
18.254
 20
-17.9111
 11
18.0371
 21
-18.1519
  0
LINE
  8
0
 10
18.0371
 20
-18.1519
 11
17.775
 21
-18.3423
  0
LINE
  8
0
 10
17.775
 20
-18.3423
 11
17.479
 21
-18.4741
  0
LINE
  8
0
 10
17.479
 20
-18.4741
 11
17.162
 21
-18.5415
  0
LINE
  8
0
 10
17.162
 20
-18.5415
 11
16.838
 21
-18.5415
  0
ENDSEC
  0
SECTION
  2
OBJECTS
  0
DICTIONARY
  0
ENDSEC
  0
EOF
