G04 #@! TF.GenerationSoftware,KiCad,Pcbnew,(6.0.7)*
G04 #@! TF.CreationDate,2023-01-14T22:54:19+05:00*
G04 #@! TF.ProjectId,2x8 Music Keyboard PCB,32783820-4d75-4736-9963-204b6579626f,1*
G04 #@! TF.SameCoordinates,Original*
G04 #@! TF.FileFunction,Legend,Bot*
G04 #@! TF.FilePolarity,Positive*
%FSLAX46Y46*%
G04 Gerber Fmt 4.6, Leading zero omitted, Abs format (unit mm)*
G04 Created by KiCad (PCBNEW (6.0.7)) date 2023-01-14 22:54:19*
%MOMM*%
%LPD*%
G01*
G04 APERTURE LIST*
%ADD10C,0.150000*%
%ADD11C,0.125000*%
%ADD12C,0.250000*%
%ADD13C,0.100000*%
%ADD14C,0.120000*%
G04 APERTURE END LIST*
D10*
X180015000Y-101300000D02*
X186475000Y-101300000D01*
X186475000Y-101300000D02*
X186475000Y-103790000D01*
X186475000Y-103790000D02*
X180015000Y-103790000D01*
X180015000Y-103790000D02*
X180015000Y-101300000D01*
D11*
X104107380Y-89929761D02*
X104131190Y-90001190D01*
X104131190Y-90120238D01*
X104107380Y-90167857D01*
X104083571Y-90191666D01*
X104035952Y-90215476D01*
X103988333Y-90215476D01*
X103940714Y-90191666D01*
X103916904Y-90167857D01*
X103893095Y-90120238D01*
X103869285Y-90025000D01*
X103845476Y-89977380D01*
X103821666Y-89953571D01*
X103774047Y-89929761D01*
X103726428Y-89929761D01*
X103678809Y-89953571D01*
X103655000Y-89977380D01*
X103631190Y-90025000D01*
X103631190Y-90144047D01*
X103655000Y-90215476D01*
X104083571Y-90715476D02*
X104107380Y-90691666D01*
X104131190Y-90620238D01*
X104131190Y-90572619D01*
X104107380Y-90501190D01*
X104059761Y-90453571D01*
X104012142Y-90429761D01*
X103916904Y-90405952D01*
X103845476Y-90405952D01*
X103750238Y-90429761D01*
X103702619Y-90453571D01*
X103655000Y-90501190D01*
X103631190Y-90572619D01*
X103631190Y-90620238D01*
X103655000Y-90691666D01*
X103678809Y-90715476D01*
X104131190Y-91167857D02*
X104131190Y-90929761D01*
X103631190Y-90929761D01*
X151972142Y-87671190D02*
X152257857Y-87671190D01*
X152115000Y-87671190D02*
X152115000Y-87171190D01*
X152162619Y-87242619D01*
X152210238Y-87290238D01*
X152257857Y-87314047D01*
D12*
X185040476Y-103110476D02*
X185457142Y-102515238D01*
X185754761Y-103110476D02*
X185754761Y-101860476D01*
X185278571Y-101860476D01*
X185159523Y-101920000D01*
X185100000Y-101979523D01*
X185040476Y-102098571D01*
X185040476Y-102277142D01*
X185100000Y-102396190D01*
X185159523Y-102455714D01*
X185278571Y-102515238D01*
X185754761Y-102515238D01*
X184504761Y-102455714D02*
X184088095Y-102455714D01*
X183909523Y-103110476D02*
X184504761Y-103110476D01*
X184504761Y-101860476D01*
X183909523Y-101860476D01*
X183433333Y-103050952D02*
X183254761Y-103110476D01*
X182957142Y-103110476D01*
X182838095Y-103050952D01*
X182778571Y-102991428D01*
X182719047Y-102872380D01*
X182719047Y-102753333D01*
X182778571Y-102634285D01*
X182838095Y-102574761D01*
X182957142Y-102515238D01*
X183195238Y-102455714D01*
X183314285Y-102396190D01*
X183373809Y-102336666D01*
X183433333Y-102217619D01*
X183433333Y-102098571D01*
X183373809Y-101979523D01*
X183314285Y-101920000D01*
X183195238Y-101860476D01*
X182897619Y-101860476D01*
X182719047Y-101920000D01*
X182183333Y-102455714D02*
X181766666Y-102455714D01*
X181588095Y-103110476D02*
X182183333Y-103110476D01*
X182183333Y-101860476D01*
X181588095Y-101860476D01*
X181230952Y-101860476D02*
X180516666Y-101860476D01*
X180873809Y-103110476D02*
X180873809Y-101860476D01*
D11*
X97665000Y-90144047D02*
X97641190Y-90096428D01*
X97641190Y-90025000D01*
X97665000Y-89953571D01*
X97712619Y-89905952D01*
X97760238Y-89882142D01*
X97855476Y-89858333D01*
X97926904Y-89858333D01*
X98022142Y-89882142D01*
X98069761Y-89905952D01*
X98117380Y-89953571D01*
X98141190Y-90025000D01*
X98141190Y-90072619D01*
X98117380Y-90144047D01*
X98093571Y-90167857D01*
X97926904Y-90167857D01*
X97926904Y-90072619D01*
X98141190Y-90382142D02*
X97641190Y-90382142D01*
X98141190Y-90667857D01*
X97641190Y-90667857D01*
X98141190Y-90905952D02*
X97641190Y-90905952D01*
X97641190Y-91025000D01*
X97665000Y-91096428D01*
X97712619Y-91144047D01*
X97760238Y-91167857D01*
X97855476Y-91191666D01*
X97926904Y-91191666D01*
X98022142Y-91167857D01*
X98069761Y-91144047D01*
X98117380Y-91096428D01*
X98141190Y-91025000D01*
X98141190Y-90905952D01*
X87977380Y-84249761D02*
X88001190Y-84321190D01*
X88001190Y-84440238D01*
X87977380Y-84487857D01*
X87953571Y-84511666D01*
X87905952Y-84535476D01*
X87858333Y-84535476D01*
X87810714Y-84511666D01*
X87786904Y-84487857D01*
X87763095Y-84440238D01*
X87739285Y-84345000D01*
X87715476Y-84297380D01*
X87691666Y-84273571D01*
X87644047Y-84249761D01*
X87596428Y-84249761D01*
X87548809Y-84273571D01*
X87525000Y-84297380D01*
X87501190Y-84345000D01*
X87501190Y-84464047D01*
X87525000Y-84535476D01*
X87953571Y-85035476D02*
X87977380Y-85011666D01*
X88001190Y-84940238D01*
X88001190Y-84892619D01*
X87977380Y-84821190D01*
X87929761Y-84773571D01*
X87882142Y-84749761D01*
X87786904Y-84725952D01*
X87715476Y-84725952D01*
X87620238Y-84749761D01*
X87572619Y-84773571D01*
X87525000Y-84821190D01*
X87501190Y-84892619D01*
X87501190Y-84940238D01*
X87525000Y-85011666D01*
X87548809Y-85035476D01*
X88001190Y-85487857D02*
X88001190Y-85249761D01*
X87501190Y-85249761D01*
X202891190Y-90261190D02*
X202653095Y-90094523D01*
X202891190Y-89975476D02*
X202391190Y-89975476D01*
X202391190Y-90165952D01*
X202415000Y-90213571D01*
X202438809Y-90237380D01*
X202486428Y-90261190D01*
X202557857Y-90261190D01*
X202605476Y-90237380D01*
X202629285Y-90213571D01*
X202653095Y-90165952D01*
X202653095Y-89975476D01*
X202867380Y-90451666D02*
X202891190Y-90523095D01*
X202891190Y-90642142D01*
X202867380Y-90689761D01*
X202843571Y-90713571D01*
X202795952Y-90737380D01*
X202748333Y-90737380D01*
X202700714Y-90713571D01*
X202676904Y-90689761D01*
X202653095Y-90642142D01*
X202629285Y-90546904D01*
X202605476Y-90499285D01*
X202581666Y-90475476D01*
X202534047Y-90451666D01*
X202486428Y-90451666D01*
X202438809Y-90475476D01*
X202415000Y-90499285D01*
X202391190Y-90546904D01*
X202391190Y-90665952D01*
X202415000Y-90737380D01*
X202391190Y-90880238D02*
X202391190Y-91165952D01*
X202891190Y-91023095D02*
X202391190Y-91023095D01*
X83581190Y-84188333D02*
X84081190Y-84355000D01*
X83581190Y-84521666D01*
X84033571Y-84974047D02*
X84057380Y-84950238D01*
X84081190Y-84878809D01*
X84081190Y-84831190D01*
X84057380Y-84759761D01*
X84009761Y-84712142D01*
X83962142Y-84688333D01*
X83866904Y-84664523D01*
X83795476Y-84664523D01*
X83700238Y-84688333D01*
X83652619Y-84712142D01*
X83605000Y-84759761D01*
X83581190Y-84831190D01*
X83581190Y-84878809D01*
X83605000Y-84950238D01*
X83628809Y-84974047D01*
X84033571Y-85474047D02*
X84057380Y-85450238D01*
X84081190Y-85378809D01*
X84081190Y-85331190D01*
X84057380Y-85259761D01*
X84009761Y-85212142D01*
X83962142Y-85188333D01*
X83866904Y-85164523D01*
X83795476Y-85164523D01*
X83700238Y-85188333D01*
X83652619Y-85212142D01*
X83605000Y-85259761D01*
X83581190Y-85331190D01*
X83581190Y-85378809D01*
X83605000Y-85450238D01*
X83628809Y-85474047D01*
X186271190Y-84089285D02*
X185771190Y-84089285D01*
X186128333Y-84255952D01*
X185771190Y-84422619D01*
X186271190Y-84422619D01*
X186271190Y-84660714D02*
X185771190Y-84660714D01*
X186247380Y-84875000D02*
X186271190Y-84946428D01*
X186271190Y-85065476D01*
X186247380Y-85113095D01*
X186223571Y-85136904D01*
X186175952Y-85160714D01*
X186128333Y-85160714D01*
X186080714Y-85136904D01*
X186056904Y-85113095D01*
X186033095Y-85065476D01*
X186009285Y-84970238D01*
X185985476Y-84922619D01*
X185961666Y-84898809D01*
X185914047Y-84875000D01*
X185866428Y-84875000D01*
X185818809Y-84898809D01*
X185795000Y-84922619D01*
X185771190Y-84970238D01*
X185771190Y-85089285D01*
X185795000Y-85160714D01*
X185771190Y-85470238D02*
X185771190Y-85565476D01*
X185795000Y-85613095D01*
X185842619Y-85660714D01*
X185937857Y-85684523D01*
X186104523Y-85684523D01*
X186199761Y-85660714D01*
X186247380Y-85613095D01*
X186271190Y-85565476D01*
X186271190Y-85470238D01*
X186247380Y-85422619D01*
X186199761Y-85375000D01*
X186104523Y-85351190D01*
X185937857Y-85351190D01*
X185842619Y-85375000D01*
X185795000Y-85422619D01*
X185771190Y-85470238D01*
X188401190Y-84401190D02*
X188163095Y-84234523D01*
X188401190Y-84115476D02*
X187901190Y-84115476D01*
X187901190Y-84305952D01*
X187925000Y-84353571D01*
X187948809Y-84377380D01*
X187996428Y-84401190D01*
X188067857Y-84401190D01*
X188115476Y-84377380D01*
X188139285Y-84353571D01*
X188163095Y-84305952D01*
X188163095Y-84115476D01*
X188377380Y-84591666D02*
X188401190Y-84663095D01*
X188401190Y-84782142D01*
X188377380Y-84829761D01*
X188353571Y-84853571D01*
X188305952Y-84877380D01*
X188258333Y-84877380D01*
X188210714Y-84853571D01*
X188186904Y-84829761D01*
X188163095Y-84782142D01*
X188139285Y-84686904D01*
X188115476Y-84639285D01*
X188091666Y-84615476D01*
X188044047Y-84591666D01*
X187996428Y-84591666D01*
X187948809Y-84615476D01*
X187925000Y-84639285D01*
X187901190Y-84686904D01*
X187901190Y-84805952D01*
X187925000Y-84877380D01*
X187901190Y-85020238D02*
X187901190Y-85305952D01*
X188401190Y-85163095D02*
X187901190Y-85163095D01*
X184321190Y-84089285D02*
X183821190Y-84089285D01*
X184178333Y-84255952D01*
X183821190Y-84422619D01*
X184321190Y-84422619D01*
X183821190Y-84755952D02*
X183821190Y-84851190D01*
X183845000Y-84898809D01*
X183892619Y-84946428D01*
X183987857Y-84970238D01*
X184154523Y-84970238D01*
X184249761Y-84946428D01*
X184297380Y-84898809D01*
X184321190Y-84851190D01*
X184321190Y-84755952D01*
X184297380Y-84708333D01*
X184249761Y-84660714D01*
X184154523Y-84636904D01*
X183987857Y-84636904D01*
X183892619Y-84660714D01*
X183845000Y-84708333D01*
X183821190Y-84755952D01*
X184297380Y-85160714D02*
X184321190Y-85232142D01*
X184321190Y-85351190D01*
X184297380Y-85398809D01*
X184273571Y-85422619D01*
X184225952Y-85446428D01*
X184178333Y-85446428D01*
X184130714Y-85422619D01*
X184106904Y-85398809D01*
X184083095Y-85351190D01*
X184059285Y-85255952D01*
X184035476Y-85208333D01*
X184011666Y-85184523D01*
X183964047Y-85160714D01*
X183916428Y-85160714D01*
X183868809Y-85184523D01*
X183845000Y-85208333D01*
X183821190Y-85255952D01*
X183821190Y-85375000D01*
X183845000Y-85446428D01*
X184321190Y-85660714D02*
X183821190Y-85660714D01*
X102007380Y-89957857D02*
X102031190Y-90029285D01*
X102031190Y-90148333D01*
X102007380Y-90195952D01*
X101983571Y-90219761D01*
X101935952Y-90243571D01*
X101888333Y-90243571D01*
X101840714Y-90219761D01*
X101816904Y-90195952D01*
X101793095Y-90148333D01*
X101769285Y-90053095D01*
X101745476Y-90005476D01*
X101721666Y-89981666D01*
X101674047Y-89957857D01*
X101626428Y-89957857D01*
X101578809Y-89981666D01*
X101555000Y-90005476D01*
X101531190Y-90053095D01*
X101531190Y-90172142D01*
X101555000Y-90243571D01*
X102031190Y-90457857D02*
X101531190Y-90457857D01*
X101531190Y-90576904D01*
X101555000Y-90648333D01*
X101602619Y-90695952D01*
X101650238Y-90719761D01*
X101745476Y-90743571D01*
X101816904Y-90743571D01*
X101912142Y-90719761D01*
X101959761Y-90695952D01*
X102007380Y-90648333D01*
X102031190Y-90576904D01*
X102031190Y-90457857D01*
X101888333Y-90934047D02*
X101888333Y-91172142D01*
X102031190Y-90886428D02*
X101531190Y-91053095D01*
X102031190Y-91219761D01*
X85877380Y-84277857D02*
X85901190Y-84349285D01*
X85901190Y-84468333D01*
X85877380Y-84515952D01*
X85853571Y-84539761D01*
X85805952Y-84563571D01*
X85758333Y-84563571D01*
X85710714Y-84539761D01*
X85686904Y-84515952D01*
X85663095Y-84468333D01*
X85639285Y-84373095D01*
X85615476Y-84325476D01*
X85591666Y-84301666D01*
X85544047Y-84277857D01*
X85496428Y-84277857D01*
X85448809Y-84301666D01*
X85425000Y-84325476D01*
X85401190Y-84373095D01*
X85401190Y-84492142D01*
X85425000Y-84563571D01*
X85901190Y-84777857D02*
X85401190Y-84777857D01*
X85401190Y-84896904D01*
X85425000Y-84968333D01*
X85472619Y-85015952D01*
X85520238Y-85039761D01*
X85615476Y-85063571D01*
X85686904Y-85063571D01*
X85782142Y-85039761D01*
X85829761Y-85015952D01*
X85877380Y-84968333D01*
X85901190Y-84896904D01*
X85901190Y-84777857D01*
X85758333Y-85254047D02*
X85758333Y-85492142D01*
X85901190Y-85206428D02*
X85401190Y-85373095D01*
X85901190Y-85539761D01*
X198811190Y-89949285D02*
X198311190Y-89949285D01*
X198668333Y-90115952D01*
X198311190Y-90282619D01*
X198811190Y-90282619D01*
X198311190Y-90615952D02*
X198311190Y-90711190D01*
X198335000Y-90758809D01*
X198382619Y-90806428D01*
X198477857Y-90830238D01*
X198644523Y-90830238D01*
X198739761Y-90806428D01*
X198787380Y-90758809D01*
X198811190Y-90711190D01*
X198811190Y-90615952D01*
X198787380Y-90568333D01*
X198739761Y-90520714D01*
X198644523Y-90496904D01*
X198477857Y-90496904D01*
X198382619Y-90520714D01*
X198335000Y-90568333D01*
X198311190Y-90615952D01*
X198787380Y-91020714D02*
X198811190Y-91092142D01*
X198811190Y-91211190D01*
X198787380Y-91258809D01*
X198763571Y-91282619D01*
X198715952Y-91306428D01*
X198668333Y-91306428D01*
X198620714Y-91282619D01*
X198596904Y-91258809D01*
X198573095Y-91211190D01*
X198549285Y-91115952D01*
X198525476Y-91068333D01*
X198501666Y-91044523D01*
X198454047Y-91020714D01*
X198406428Y-91020714D01*
X198358809Y-91044523D01*
X198335000Y-91068333D01*
X198311190Y-91115952D01*
X198311190Y-91235000D01*
X198335000Y-91306428D01*
X198811190Y-91520714D02*
X198311190Y-91520714D01*
X196907380Y-89929761D02*
X196931190Y-90001190D01*
X196931190Y-90120238D01*
X196907380Y-90167857D01*
X196883571Y-90191666D01*
X196835952Y-90215476D01*
X196788333Y-90215476D01*
X196740714Y-90191666D01*
X196716904Y-90167857D01*
X196693095Y-90120238D01*
X196669285Y-90025000D01*
X196645476Y-89977380D01*
X196621666Y-89953571D01*
X196574047Y-89929761D01*
X196526428Y-89929761D01*
X196478809Y-89953571D01*
X196455000Y-89977380D01*
X196431190Y-90025000D01*
X196431190Y-90144047D01*
X196455000Y-90215476D01*
X196883571Y-90715476D02*
X196907380Y-90691666D01*
X196931190Y-90620238D01*
X196931190Y-90572619D01*
X196907380Y-90501190D01*
X196859761Y-90453571D01*
X196812142Y-90429761D01*
X196716904Y-90405952D01*
X196645476Y-90405952D01*
X196550238Y-90429761D01*
X196502619Y-90453571D01*
X196455000Y-90501190D01*
X196431190Y-90572619D01*
X196431190Y-90620238D01*
X196455000Y-90691666D01*
X196478809Y-90715476D01*
X196931190Y-91167857D02*
X196931190Y-90929761D01*
X196431190Y-90929761D01*
X196931190Y-91334523D02*
X196431190Y-91334523D01*
X196931190Y-91620238D02*
X196645476Y-91405952D01*
X196431190Y-91620238D02*
X196716904Y-91334523D01*
X147652142Y-98331190D02*
X147937857Y-98331190D01*
X147795000Y-98331190D02*
X147795000Y-97831190D01*
X147842619Y-97902619D01*
X147890238Y-97950238D01*
X147937857Y-97974047D01*
X200761190Y-89949285D02*
X200261190Y-89949285D01*
X200618333Y-90115952D01*
X200261190Y-90282619D01*
X200761190Y-90282619D01*
X200761190Y-90520714D02*
X200261190Y-90520714D01*
X200737380Y-90735000D02*
X200761190Y-90806428D01*
X200761190Y-90925476D01*
X200737380Y-90973095D01*
X200713571Y-90996904D01*
X200665952Y-91020714D01*
X200618333Y-91020714D01*
X200570714Y-90996904D01*
X200546904Y-90973095D01*
X200523095Y-90925476D01*
X200499285Y-90830238D01*
X200475476Y-90782619D01*
X200451666Y-90758809D01*
X200404047Y-90735000D01*
X200356428Y-90735000D01*
X200308809Y-90758809D01*
X200285000Y-90782619D01*
X200261190Y-90830238D01*
X200261190Y-90949285D01*
X200285000Y-91020714D01*
X200261190Y-91330238D02*
X200261190Y-91425476D01*
X200285000Y-91473095D01*
X200332619Y-91520714D01*
X200427857Y-91544523D01*
X200594523Y-91544523D01*
X200689761Y-91520714D01*
X200737380Y-91473095D01*
X200761190Y-91425476D01*
X200761190Y-91330238D01*
X200737380Y-91282619D01*
X200689761Y-91235000D01*
X200594523Y-91211190D01*
X200427857Y-91211190D01*
X200332619Y-91235000D01*
X200285000Y-91282619D01*
X200261190Y-91330238D01*
X99711190Y-89868333D02*
X100211190Y-90035000D01*
X99711190Y-90201666D01*
X100163571Y-90654047D02*
X100187380Y-90630238D01*
X100211190Y-90558809D01*
X100211190Y-90511190D01*
X100187380Y-90439761D01*
X100139761Y-90392142D01*
X100092142Y-90368333D01*
X99996904Y-90344523D01*
X99925476Y-90344523D01*
X99830238Y-90368333D01*
X99782619Y-90392142D01*
X99735000Y-90439761D01*
X99711190Y-90511190D01*
X99711190Y-90558809D01*
X99735000Y-90630238D01*
X99758809Y-90654047D01*
X100163571Y-91154047D02*
X100187380Y-91130238D01*
X100211190Y-91058809D01*
X100211190Y-91011190D01*
X100187380Y-90939761D01*
X100139761Y-90892142D01*
X100092142Y-90868333D01*
X99996904Y-90844523D01*
X99925476Y-90844523D01*
X99830238Y-90868333D01*
X99782619Y-90892142D01*
X99735000Y-90939761D01*
X99711190Y-91011190D01*
X99711190Y-91058809D01*
X99735000Y-91130238D01*
X99758809Y-91154047D01*
X81535000Y-84464047D02*
X81511190Y-84416428D01*
X81511190Y-84345000D01*
X81535000Y-84273571D01*
X81582619Y-84225952D01*
X81630238Y-84202142D01*
X81725476Y-84178333D01*
X81796904Y-84178333D01*
X81892142Y-84202142D01*
X81939761Y-84225952D01*
X81987380Y-84273571D01*
X82011190Y-84345000D01*
X82011190Y-84392619D01*
X81987380Y-84464047D01*
X81963571Y-84487857D01*
X81796904Y-84487857D01*
X81796904Y-84392619D01*
X82011190Y-84702142D02*
X81511190Y-84702142D01*
X82011190Y-84987857D01*
X81511190Y-84987857D01*
X82011190Y-85225952D02*
X81511190Y-85225952D01*
X81511190Y-85345000D01*
X81535000Y-85416428D01*
X81582619Y-85464047D01*
X81630238Y-85487857D01*
X81725476Y-85511666D01*
X81796904Y-85511666D01*
X81892142Y-85487857D01*
X81939761Y-85464047D01*
X81987380Y-85416428D01*
X82011190Y-85345000D01*
X82011190Y-85225952D01*
X182417380Y-84069761D02*
X182441190Y-84141190D01*
X182441190Y-84260238D01*
X182417380Y-84307857D01*
X182393571Y-84331666D01*
X182345952Y-84355476D01*
X182298333Y-84355476D01*
X182250714Y-84331666D01*
X182226904Y-84307857D01*
X182203095Y-84260238D01*
X182179285Y-84165000D01*
X182155476Y-84117380D01*
X182131666Y-84093571D01*
X182084047Y-84069761D01*
X182036428Y-84069761D01*
X181988809Y-84093571D01*
X181965000Y-84117380D01*
X181941190Y-84165000D01*
X181941190Y-84284047D01*
X181965000Y-84355476D01*
X182393571Y-84855476D02*
X182417380Y-84831666D01*
X182441190Y-84760238D01*
X182441190Y-84712619D01*
X182417380Y-84641190D01*
X182369761Y-84593571D01*
X182322142Y-84569761D01*
X182226904Y-84545952D01*
X182155476Y-84545952D01*
X182060238Y-84569761D01*
X182012619Y-84593571D01*
X181965000Y-84641190D01*
X181941190Y-84712619D01*
X181941190Y-84760238D01*
X181965000Y-84831666D01*
X181988809Y-84855476D01*
X182441190Y-85307857D02*
X182441190Y-85069761D01*
X181941190Y-85069761D01*
X182441190Y-85474523D02*
X181941190Y-85474523D01*
X182441190Y-85760238D02*
X182155476Y-85545952D01*
X181941190Y-85760238D02*
X182226904Y-85474523D01*
D10*
G04 #@! TO.C,C20*
X107572142Y-117977142D02*
X107619761Y-117929523D01*
X107667380Y-117786666D01*
X107667380Y-117691428D01*
X107619761Y-117548571D01*
X107524523Y-117453333D01*
X107429285Y-117405714D01*
X107238809Y-117358095D01*
X107095952Y-117358095D01*
X106905476Y-117405714D01*
X106810238Y-117453333D01*
X106715000Y-117548571D01*
X106667380Y-117691428D01*
X106667380Y-117786666D01*
X106715000Y-117929523D01*
X106762619Y-117977142D01*
X106762619Y-118358095D02*
X106715000Y-118405714D01*
X106667380Y-118500952D01*
X106667380Y-118739047D01*
X106715000Y-118834285D01*
X106762619Y-118881904D01*
X106857857Y-118929523D01*
X106953095Y-118929523D01*
X107095952Y-118881904D01*
X107667380Y-118310476D01*
X107667380Y-118929523D01*
X106667380Y-119548571D02*
X106667380Y-119643809D01*
X106715000Y-119739047D01*
X106762619Y-119786666D01*
X106857857Y-119834285D01*
X107048333Y-119881904D01*
X107286428Y-119881904D01*
X107476904Y-119834285D01*
X107572142Y-119786666D01*
X107619761Y-119739047D01*
X107667380Y-119643809D01*
X107667380Y-119548571D01*
X107619761Y-119453333D01*
X107572142Y-119405714D01*
X107476904Y-119358095D01*
X107286428Y-119310476D01*
X107048333Y-119310476D01*
X106857857Y-119358095D01*
X106762619Y-119405714D01*
X106715000Y-119453333D01*
X106667380Y-119548571D01*
G04 #@! TO.C,LED9*
X65044285Y-116804280D02*
X65401428Y-116804280D01*
X65401428Y-116054280D01*
X64794285Y-116411423D02*
X64544285Y-116411423D01*
X64437142Y-116804280D02*
X64794285Y-116804280D01*
X64794285Y-116054280D01*
X64437142Y-116054280D01*
X64115714Y-116804280D02*
X64115714Y-116054280D01*
X63937142Y-116054280D01*
X63830000Y-116089995D01*
X63758571Y-116161423D01*
X63722857Y-116232852D01*
X63687142Y-116375709D01*
X63687142Y-116482852D01*
X63722857Y-116625709D01*
X63758571Y-116697137D01*
X63830000Y-116768566D01*
X63937142Y-116804280D01*
X64115714Y-116804280D01*
X63330000Y-116804280D02*
X63187142Y-116804280D01*
X63115714Y-116768566D01*
X63080000Y-116732852D01*
X63008571Y-116625709D01*
X62972857Y-116482852D01*
X62972857Y-116197137D01*
X63008571Y-116125709D01*
X63044285Y-116089995D01*
X63115714Y-116054280D01*
X63258571Y-116054280D01*
X63330000Y-116089995D01*
X63365714Y-116125709D01*
X63401428Y-116197137D01*
X63401428Y-116375709D01*
X63365714Y-116447137D01*
X63330000Y-116482852D01*
X63258571Y-116518566D01*
X63115714Y-116518566D01*
X63044285Y-116482852D01*
X63008571Y-116447137D01*
X62972857Y-116375709D01*
D13*
X66999761Y-120034995D02*
X67037857Y-120015947D01*
X67095000Y-120015947D01*
X67152142Y-120034995D01*
X67190238Y-120073090D01*
X67209285Y-120111185D01*
X67228333Y-120187375D01*
X67228333Y-120244518D01*
X67209285Y-120320709D01*
X67190238Y-120358804D01*
X67152142Y-120396899D01*
X67095000Y-120415947D01*
X67056904Y-120415947D01*
X66999761Y-120396899D01*
X66980714Y-120377852D01*
X66980714Y-120244518D01*
X67056904Y-120244518D01*
X66809285Y-120415947D02*
X66809285Y-120015947D01*
X66580714Y-120415947D01*
X66580714Y-120015947D01*
X66390238Y-120415947D02*
X66390238Y-120015947D01*
X66295000Y-120015947D01*
X66237857Y-120034995D01*
X66199761Y-120073090D01*
X66180714Y-120111185D01*
X66161666Y-120187375D01*
X66161666Y-120244518D01*
X66180714Y-120320709D01*
X66199761Y-120358804D01*
X66237857Y-120396899D01*
X66295000Y-120415947D01*
X66390238Y-120415947D01*
D11*
X61302142Y-117231185D02*
X61587857Y-117231185D01*
X61445000Y-117231185D02*
X61445000Y-116731185D01*
X61492619Y-116802614D01*
X61540238Y-116850233D01*
X61587857Y-116874042D01*
D10*
G04 #@! TO.C,C10*
X58542142Y-95997142D02*
X58589761Y-95949523D01*
X58637380Y-95806666D01*
X58637380Y-95711428D01*
X58589761Y-95568571D01*
X58494523Y-95473333D01*
X58399285Y-95425714D01*
X58208809Y-95378095D01*
X58065952Y-95378095D01*
X57875476Y-95425714D01*
X57780238Y-95473333D01*
X57685000Y-95568571D01*
X57637380Y-95711428D01*
X57637380Y-95806666D01*
X57685000Y-95949523D01*
X57732619Y-95997142D01*
X58637380Y-96949523D02*
X58637380Y-96378095D01*
X58637380Y-96663809D02*
X57637380Y-96663809D01*
X57780238Y-96568571D01*
X57875476Y-96473333D01*
X57923095Y-96378095D01*
X57637380Y-97568571D02*
X57637380Y-97663809D01*
X57685000Y-97759047D01*
X57732619Y-97806666D01*
X57827857Y-97854285D01*
X58018333Y-97901904D01*
X58256428Y-97901904D01*
X58446904Y-97854285D01*
X58542142Y-97806666D01*
X58589761Y-97759047D01*
X58637380Y-97663809D01*
X58637380Y-97568571D01*
X58589761Y-97473333D01*
X58542142Y-97425714D01*
X58446904Y-97378095D01*
X58256428Y-97330476D01*
X58018333Y-97330476D01*
X57827857Y-97378095D01*
X57732619Y-97425714D01*
X57685000Y-97473333D01*
X57637380Y-97568571D01*
G04 #@! TO.C,LED3*
X114244285Y-94804285D02*
X114601428Y-94804285D01*
X114601428Y-94054285D01*
X113994285Y-94411428D02*
X113744285Y-94411428D01*
X113637142Y-94804285D02*
X113994285Y-94804285D01*
X113994285Y-94054285D01*
X113637142Y-94054285D01*
X113315714Y-94804285D02*
X113315714Y-94054285D01*
X113137142Y-94054285D01*
X113030000Y-94090000D01*
X112958571Y-94161428D01*
X112922857Y-94232857D01*
X112887142Y-94375714D01*
X112887142Y-94482857D01*
X112922857Y-94625714D01*
X112958571Y-94697142D01*
X113030000Y-94768571D01*
X113137142Y-94804285D01*
X113315714Y-94804285D01*
X112637142Y-94054285D02*
X112172857Y-94054285D01*
X112422857Y-94340000D01*
X112315714Y-94340000D01*
X112244285Y-94375714D01*
X112208571Y-94411428D01*
X112172857Y-94482857D01*
X112172857Y-94661428D01*
X112208571Y-94732857D01*
X112244285Y-94768571D01*
X112315714Y-94804285D01*
X112530000Y-94804285D01*
X112601428Y-94768571D01*
X112637142Y-94732857D01*
D13*
X116199761Y-98035000D02*
X116237857Y-98015952D01*
X116295000Y-98015952D01*
X116352142Y-98035000D01*
X116390238Y-98073095D01*
X116409285Y-98111190D01*
X116428333Y-98187380D01*
X116428333Y-98244523D01*
X116409285Y-98320714D01*
X116390238Y-98358809D01*
X116352142Y-98396904D01*
X116295000Y-98415952D01*
X116256904Y-98415952D01*
X116199761Y-98396904D01*
X116180714Y-98377857D01*
X116180714Y-98244523D01*
X116256904Y-98244523D01*
X116009285Y-98415952D02*
X116009285Y-98015952D01*
X115780714Y-98415952D01*
X115780714Y-98015952D01*
X115590238Y-98415952D02*
X115590238Y-98015952D01*
X115495000Y-98015952D01*
X115437857Y-98035000D01*
X115399761Y-98073095D01*
X115380714Y-98111190D01*
X115361666Y-98187380D01*
X115361666Y-98244523D01*
X115380714Y-98320714D01*
X115399761Y-98358809D01*
X115437857Y-98396904D01*
X115495000Y-98415952D01*
X115590238Y-98415952D01*
D11*
X110502142Y-95231190D02*
X110787857Y-95231190D01*
X110645000Y-95231190D02*
X110645000Y-94731190D01*
X110692619Y-94802619D01*
X110740238Y-94850238D01*
X110787857Y-94874047D01*
D10*
G04 #@! TO.C,C1*
X164131666Y-100662142D02*
X164179285Y-100709761D01*
X164322142Y-100757380D01*
X164417380Y-100757380D01*
X164560238Y-100709761D01*
X164655476Y-100614523D01*
X164703095Y-100519285D01*
X164750714Y-100328809D01*
X164750714Y-100185952D01*
X164703095Y-99995476D01*
X164655476Y-99900238D01*
X164560238Y-99805000D01*
X164417380Y-99757380D01*
X164322142Y-99757380D01*
X164179285Y-99805000D01*
X164131666Y-99852619D01*
X163179285Y-100757380D02*
X163750714Y-100757380D01*
X163465000Y-100757380D02*
X163465000Y-99757380D01*
X163560238Y-99900238D01*
X163655476Y-99995476D01*
X163750714Y-100043095D01*
G04 #@! TO.C,C21*
X132282142Y-118002142D02*
X132329761Y-117954523D01*
X132377380Y-117811666D01*
X132377380Y-117716428D01*
X132329761Y-117573571D01*
X132234523Y-117478333D01*
X132139285Y-117430714D01*
X131948809Y-117383095D01*
X131805952Y-117383095D01*
X131615476Y-117430714D01*
X131520238Y-117478333D01*
X131425000Y-117573571D01*
X131377380Y-117716428D01*
X131377380Y-117811666D01*
X131425000Y-117954523D01*
X131472619Y-118002142D01*
X131472619Y-118383095D02*
X131425000Y-118430714D01*
X131377380Y-118525952D01*
X131377380Y-118764047D01*
X131425000Y-118859285D01*
X131472619Y-118906904D01*
X131567857Y-118954523D01*
X131663095Y-118954523D01*
X131805952Y-118906904D01*
X132377380Y-118335476D01*
X132377380Y-118954523D01*
X132377380Y-119906904D02*
X132377380Y-119335476D01*
X132377380Y-119621190D02*
X131377380Y-119621190D01*
X131520238Y-119525952D01*
X131615476Y-119430714D01*
X131663095Y-119335476D01*
G04 #@! TO.C,LED2*
X89644285Y-94804285D02*
X90001428Y-94804285D01*
X90001428Y-94054285D01*
X89394285Y-94411428D02*
X89144285Y-94411428D01*
X89037142Y-94804285D02*
X89394285Y-94804285D01*
X89394285Y-94054285D01*
X89037142Y-94054285D01*
X88715714Y-94804285D02*
X88715714Y-94054285D01*
X88537142Y-94054285D01*
X88430000Y-94090000D01*
X88358571Y-94161428D01*
X88322857Y-94232857D01*
X88287142Y-94375714D01*
X88287142Y-94482857D01*
X88322857Y-94625714D01*
X88358571Y-94697142D01*
X88430000Y-94768571D01*
X88537142Y-94804285D01*
X88715714Y-94804285D01*
X88001428Y-94125714D02*
X87965714Y-94090000D01*
X87894285Y-94054285D01*
X87715714Y-94054285D01*
X87644285Y-94090000D01*
X87608571Y-94125714D01*
X87572857Y-94197142D01*
X87572857Y-94268571D01*
X87608571Y-94375714D01*
X88037142Y-94804285D01*
X87572857Y-94804285D01*
D13*
X91599761Y-98035000D02*
X91637857Y-98015952D01*
X91695000Y-98015952D01*
X91752142Y-98035000D01*
X91790238Y-98073095D01*
X91809285Y-98111190D01*
X91828333Y-98187380D01*
X91828333Y-98244523D01*
X91809285Y-98320714D01*
X91790238Y-98358809D01*
X91752142Y-98396904D01*
X91695000Y-98415952D01*
X91656904Y-98415952D01*
X91599761Y-98396904D01*
X91580714Y-98377857D01*
X91580714Y-98244523D01*
X91656904Y-98244523D01*
X91409285Y-98415952D02*
X91409285Y-98015952D01*
X91180714Y-98415952D01*
X91180714Y-98015952D01*
X90990238Y-98415952D02*
X90990238Y-98015952D01*
X90895000Y-98015952D01*
X90837857Y-98035000D01*
X90799761Y-98073095D01*
X90780714Y-98111190D01*
X90761666Y-98187380D01*
X90761666Y-98244523D01*
X90780714Y-98320714D01*
X90799761Y-98358809D01*
X90837857Y-98396904D01*
X90895000Y-98415952D01*
X90990238Y-98415952D01*
D11*
X85902142Y-95231190D02*
X86187857Y-95231190D01*
X86045000Y-95231190D02*
X86045000Y-94731190D01*
X86092619Y-94802619D01*
X86140238Y-94850238D01*
X86187857Y-94874047D01*
D10*
G04 #@! TO.C,C4*
X152311666Y-109572142D02*
X152359285Y-109619761D01*
X152502142Y-109667380D01*
X152597380Y-109667380D01*
X152740238Y-109619761D01*
X152835476Y-109524523D01*
X152883095Y-109429285D01*
X152930714Y-109238809D01*
X152930714Y-109095952D01*
X152883095Y-108905476D01*
X152835476Y-108810238D01*
X152740238Y-108715000D01*
X152597380Y-108667380D01*
X152502142Y-108667380D01*
X152359285Y-108715000D01*
X152311666Y-108762619D01*
X151454523Y-109000714D02*
X151454523Y-109667380D01*
X151692619Y-108619761D02*
X151930714Y-109334047D01*
X151311666Y-109334047D01*
G04 #@! TO.C,ESD1*
X146873571Y-86688333D02*
X146873571Y-87021666D01*
X147397380Y-87164523D02*
X147397380Y-86688333D01*
X146397380Y-86688333D01*
X146397380Y-87164523D01*
X147349761Y-87545476D02*
X147397380Y-87688333D01*
X147397380Y-87926428D01*
X147349761Y-88021666D01*
X147302142Y-88069285D01*
X147206904Y-88116904D01*
X147111666Y-88116904D01*
X147016428Y-88069285D01*
X146968809Y-88021666D01*
X146921190Y-87926428D01*
X146873571Y-87735952D01*
X146825952Y-87640714D01*
X146778333Y-87593095D01*
X146683095Y-87545476D01*
X146587857Y-87545476D01*
X146492619Y-87593095D01*
X146445000Y-87640714D01*
X146397380Y-87735952D01*
X146397380Y-87974047D01*
X146445000Y-88116904D01*
X147397380Y-88545476D02*
X146397380Y-88545476D01*
X146397380Y-88783571D01*
X146445000Y-88926428D01*
X146540238Y-89021666D01*
X146635476Y-89069285D01*
X146825952Y-89116904D01*
X146968809Y-89116904D01*
X147159285Y-89069285D01*
X147254523Y-89021666D01*
X147349761Y-88926428D01*
X147397380Y-88783571D01*
X147397380Y-88545476D01*
X147397380Y-90069285D02*
X147397380Y-89497857D01*
X147397380Y-89783571D02*
X146397380Y-89783571D01*
X146540238Y-89688333D01*
X146635476Y-89593095D01*
X146683095Y-89497857D01*
G04 #@! TO.C,C15*
X181502142Y-95997142D02*
X181549761Y-95949523D01*
X181597380Y-95806666D01*
X181597380Y-95711428D01*
X181549761Y-95568571D01*
X181454523Y-95473333D01*
X181359285Y-95425714D01*
X181168809Y-95378095D01*
X181025952Y-95378095D01*
X180835476Y-95425714D01*
X180740238Y-95473333D01*
X180645000Y-95568571D01*
X180597380Y-95711428D01*
X180597380Y-95806666D01*
X180645000Y-95949523D01*
X180692619Y-95997142D01*
X181597380Y-96949523D02*
X181597380Y-96378095D01*
X181597380Y-96663809D02*
X180597380Y-96663809D01*
X180740238Y-96568571D01*
X180835476Y-96473333D01*
X180883095Y-96378095D01*
X180597380Y-97854285D02*
X180597380Y-97378095D01*
X181073571Y-97330476D01*
X181025952Y-97378095D01*
X180978333Y-97473333D01*
X180978333Y-97711428D01*
X181025952Y-97806666D01*
X181073571Y-97854285D01*
X181168809Y-97901904D01*
X181406904Y-97901904D01*
X181502142Y-97854285D01*
X181549761Y-97806666D01*
X181597380Y-97711428D01*
X181597380Y-97473333D01*
X181549761Y-97378095D01*
X181502142Y-97330476D01*
G04 #@! TO.C,C12*
X107712142Y-95987142D02*
X107759761Y-95939523D01*
X107807380Y-95796666D01*
X107807380Y-95701428D01*
X107759761Y-95558571D01*
X107664523Y-95463333D01*
X107569285Y-95415714D01*
X107378809Y-95368095D01*
X107235952Y-95368095D01*
X107045476Y-95415714D01*
X106950238Y-95463333D01*
X106855000Y-95558571D01*
X106807380Y-95701428D01*
X106807380Y-95796666D01*
X106855000Y-95939523D01*
X106902619Y-95987142D01*
X107807380Y-96939523D02*
X107807380Y-96368095D01*
X107807380Y-96653809D02*
X106807380Y-96653809D01*
X106950238Y-96558571D01*
X107045476Y-96463333D01*
X107093095Y-96368095D01*
X106902619Y-97320476D02*
X106855000Y-97368095D01*
X106807380Y-97463333D01*
X106807380Y-97701428D01*
X106855000Y-97796666D01*
X106902619Y-97844285D01*
X106997857Y-97891904D01*
X107093095Y-97891904D01*
X107235952Y-97844285D01*
X107807380Y-97272857D01*
X107807380Y-97891904D01*
G04 #@! TO.C,LED16*
X237601428Y-116804280D02*
X237958571Y-116804280D01*
X237958571Y-116054280D01*
X237351428Y-116411423D02*
X237101428Y-116411423D01*
X236994285Y-116804280D02*
X237351428Y-116804280D01*
X237351428Y-116054280D01*
X236994285Y-116054280D01*
X236672857Y-116804280D02*
X236672857Y-116054280D01*
X236494285Y-116054280D01*
X236387142Y-116089995D01*
X236315714Y-116161423D01*
X236280000Y-116232852D01*
X236244285Y-116375709D01*
X236244285Y-116482852D01*
X236280000Y-116625709D01*
X236315714Y-116697137D01*
X236387142Y-116768566D01*
X236494285Y-116804280D01*
X236672857Y-116804280D01*
X235530000Y-116804280D02*
X235958571Y-116804280D01*
X235744285Y-116804280D02*
X235744285Y-116054280D01*
X235815714Y-116161423D01*
X235887142Y-116232852D01*
X235958571Y-116268566D01*
X234887142Y-116054280D02*
X235030000Y-116054280D01*
X235101428Y-116089995D01*
X235137142Y-116125709D01*
X235208571Y-116232852D01*
X235244285Y-116375709D01*
X235244285Y-116661423D01*
X235208571Y-116732852D01*
X235172857Y-116768566D01*
X235101428Y-116804280D01*
X234958571Y-116804280D01*
X234887142Y-116768566D01*
X234851428Y-116732852D01*
X234815714Y-116661423D01*
X234815714Y-116482852D01*
X234851428Y-116411423D01*
X234887142Y-116375709D01*
X234958571Y-116339995D01*
X235101428Y-116339995D01*
X235172857Y-116375709D01*
X235208571Y-116411423D01*
X235244285Y-116482852D01*
D11*
X233502142Y-117231185D02*
X233787857Y-117231185D01*
X233645000Y-117231185D02*
X233645000Y-116731185D01*
X233692619Y-116802614D01*
X233740238Y-116850233D01*
X233787857Y-116874042D01*
D13*
X239199761Y-120034995D02*
X239237857Y-120015947D01*
X239295000Y-120015947D01*
X239352142Y-120034995D01*
X239390238Y-120073090D01*
X239409285Y-120111185D01*
X239428333Y-120187375D01*
X239428333Y-120244518D01*
X239409285Y-120320709D01*
X239390238Y-120358804D01*
X239352142Y-120396899D01*
X239295000Y-120415947D01*
X239256904Y-120415947D01*
X239199761Y-120396899D01*
X239180714Y-120377852D01*
X239180714Y-120244518D01*
X239256904Y-120244518D01*
X239009285Y-120415947D02*
X239009285Y-120015947D01*
X238780714Y-120415947D01*
X238780714Y-120015947D01*
X238590238Y-120415947D02*
X238590238Y-120015947D01*
X238495000Y-120015947D01*
X238437857Y-120034995D01*
X238399761Y-120073090D01*
X238380714Y-120111185D01*
X238361666Y-120187375D01*
X238361666Y-120244518D01*
X238380714Y-120320709D01*
X238399761Y-120358804D01*
X238437857Y-120396899D01*
X238495000Y-120415947D01*
X238590238Y-120415947D01*
D10*
G04 #@! TO.C,R3*
X147727380Y-91808333D02*
X147251190Y-91475000D01*
X147727380Y-91236904D02*
X146727380Y-91236904D01*
X146727380Y-91617857D01*
X146775000Y-91713095D01*
X146822619Y-91760714D01*
X146917857Y-91808333D01*
X147060714Y-91808333D01*
X147155952Y-91760714D01*
X147203571Y-91713095D01*
X147251190Y-91617857D01*
X147251190Y-91236904D01*
X146727380Y-92141666D02*
X146727380Y-92760714D01*
X147108333Y-92427380D01*
X147108333Y-92570238D01*
X147155952Y-92665476D01*
X147203571Y-92713095D01*
X147298809Y-92760714D01*
X147536904Y-92760714D01*
X147632142Y-92713095D01*
X147679761Y-92665476D01*
X147727380Y-92570238D01*
X147727380Y-92284523D01*
X147679761Y-92189285D01*
X147632142Y-92141666D01*
G04 #@! TO.C,J3*
X182018333Y-79797380D02*
X182018333Y-80511666D01*
X182065952Y-80654523D01*
X182161190Y-80749761D01*
X182304047Y-80797380D01*
X182399285Y-80797380D01*
X181637380Y-79797380D02*
X181018333Y-79797380D01*
X181351666Y-80178333D01*
X181208809Y-80178333D01*
X181113571Y-80225952D01*
X181065952Y-80273571D01*
X181018333Y-80368809D01*
X181018333Y-80606904D01*
X181065952Y-80702142D01*
X181113571Y-80749761D01*
X181208809Y-80797380D01*
X181494523Y-80797380D01*
X181589761Y-80749761D01*
X181637380Y-80702142D01*
G04 #@! TO.C,LED7*
X212644285Y-94804285D02*
X213001428Y-94804285D01*
X213001428Y-94054285D01*
X212394285Y-94411428D02*
X212144285Y-94411428D01*
X212037142Y-94804285D02*
X212394285Y-94804285D01*
X212394285Y-94054285D01*
X212037142Y-94054285D01*
X211715714Y-94804285D02*
X211715714Y-94054285D01*
X211537142Y-94054285D01*
X211430000Y-94090000D01*
X211358571Y-94161428D01*
X211322857Y-94232857D01*
X211287142Y-94375714D01*
X211287142Y-94482857D01*
X211322857Y-94625714D01*
X211358571Y-94697142D01*
X211430000Y-94768571D01*
X211537142Y-94804285D01*
X211715714Y-94804285D01*
X211037142Y-94054285D02*
X210537142Y-94054285D01*
X210858571Y-94804285D01*
D13*
X214599761Y-98035000D02*
X214637857Y-98015952D01*
X214695000Y-98015952D01*
X214752142Y-98035000D01*
X214790238Y-98073095D01*
X214809285Y-98111190D01*
X214828333Y-98187380D01*
X214828333Y-98244523D01*
X214809285Y-98320714D01*
X214790238Y-98358809D01*
X214752142Y-98396904D01*
X214695000Y-98415952D01*
X214656904Y-98415952D01*
X214599761Y-98396904D01*
X214580714Y-98377857D01*
X214580714Y-98244523D01*
X214656904Y-98244523D01*
X214409285Y-98415952D02*
X214409285Y-98015952D01*
X214180714Y-98415952D01*
X214180714Y-98015952D01*
X213990238Y-98415952D02*
X213990238Y-98015952D01*
X213895000Y-98015952D01*
X213837857Y-98035000D01*
X213799761Y-98073095D01*
X213780714Y-98111190D01*
X213761666Y-98187380D01*
X213761666Y-98244523D01*
X213780714Y-98320714D01*
X213799761Y-98358809D01*
X213837857Y-98396904D01*
X213895000Y-98415952D01*
X213990238Y-98415952D01*
D11*
X208902142Y-95231190D02*
X209187857Y-95231190D01*
X209045000Y-95231190D02*
X209045000Y-94731190D01*
X209092619Y-94802619D01*
X209140238Y-94850238D01*
X209187857Y-94874047D01*
D10*
G04 #@! TO.C,J5*
X81558333Y-79777380D02*
X81558333Y-80491666D01*
X81605952Y-80634523D01*
X81701190Y-80729761D01*
X81844047Y-80777380D01*
X81939285Y-80777380D01*
X80605952Y-79777380D02*
X81082142Y-79777380D01*
X81129761Y-80253571D01*
X81082142Y-80205952D01*
X80986904Y-80158333D01*
X80748809Y-80158333D01*
X80653571Y-80205952D01*
X80605952Y-80253571D01*
X80558333Y-80348809D01*
X80558333Y-80586904D01*
X80605952Y-80682142D01*
X80653571Y-80729761D01*
X80748809Y-80777380D01*
X80986904Y-80777380D01*
X81082142Y-80729761D01*
X81129761Y-80682142D01*
G04 #@! TO.C,D_12*
X131049464Y-116635178D02*
X131799464Y-116635178D01*
X131799464Y-116456607D01*
X131763750Y-116349464D01*
X131692321Y-116278035D01*
X131620892Y-116242321D01*
X131478035Y-116206607D01*
X131370892Y-116206607D01*
X131228035Y-116242321D01*
X131156607Y-116278035D01*
X131085178Y-116349464D01*
X131049464Y-116456607D01*
X131049464Y-116635178D01*
X130978035Y-116063750D02*
X130978035Y-115492321D01*
X131049464Y-114920892D02*
X131049464Y-115349464D01*
X131049464Y-115135178D02*
X131799464Y-115135178D01*
X131692321Y-115206607D01*
X131620892Y-115278035D01*
X131585178Y-115349464D01*
X131728035Y-114635178D02*
X131763750Y-114599464D01*
X131799464Y-114528035D01*
X131799464Y-114349464D01*
X131763750Y-114278035D01*
X131728035Y-114242321D01*
X131656607Y-114206607D01*
X131585178Y-114206607D01*
X131478035Y-114242321D01*
X131049464Y-114670892D01*
X131049464Y-114206607D01*
D13*
X129602142Y-117286190D02*
X129887857Y-117286190D01*
X129745000Y-117286190D02*
X129745000Y-116786190D01*
X129792619Y-116857619D01*
X129840238Y-116905238D01*
X129887857Y-116929047D01*
X129574523Y-111854285D02*
X129955476Y-111854285D01*
X129765000Y-111663809D02*
X129765000Y-112044761D01*
D10*
G04 #@! TO.C,LED1*
X65044285Y-94804285D02*
X65401428Y-94804285D01*
X65401428Y-94054285D01*
X64794285Y-94411428D02*
X64544285Y-94411428D01*
X64437142Y-94804285D02*
X64794285Y-94804285D01*
X64794285Y-94054285D01*
X64437142Y-94054285D01*
X64115714Y-94804285D02*
X64115714Y-94054285D01*
X63937142Y-94054285D01*
X63830000Y-94090000D01*
X63758571Y-94161428D01*
X63722857Y-94232857D01*
X63687142Y-94375714D01*
X63687142Y-94482857D01*
X63722857Y-94625714D01*
X63758571Y-94697142D01*
X63830000Y-94768571D01*
X63937142Y-94804285D01*
X64115714Y-94804285D01*
X62972857Y-94804285D02*
X63401428Y-94804285D01*
X63187142Y-94804285D02*
X63187142Y-94054285D01*
X63258571Y-94161428D01*
X63330000Y-94232857D01*
X63401428Y-94268571D01*
D13*
X66999761Y-98035000D02*
X67037857Y-98015952D01*
X67095000Y-98015952D01*
X67152142Y-98035000D01*
X67190238Y-98073095D01*
X67209285Y-98111190D01*
X67228333Y-98187380D01*
X67228333Y-98244523D01*
X67209285Y-98320714D01*
X67190238Y-98358809D01*
X67152142Y-98396904D01*
X67095000Y-98415952D01*
X67056904Y-98415952D01*
X66999761Y-98396904D01*
X66980714Y-98377857D01*
X66980714Y-98244523D01*
X67056904Y-98244523D01*
X66809285Y-98415952D02*
X66809285Y-98015952D01*
X66580714Y-98415952D01*
X66580714Y-98015952D01*
X66390238Y-98415952D02*
X66390238Y-98015952D01*
X66295000Y-98015952D01*
X66237857Y-98035000D01*
X66199761Y-98073095D01*
X66180714Y-98111190D01*
X66161666Y-98187380D01*
X66161666Y-98244523D01*
X66180714Y-98320714D01*
X66199761Y-98358809D01*
X66237857Y-98396904D01*
X66295000Y-98415952D01*
X66390238Y-98415952D01*
D11*
X61302142Y-95231190D02*
X61587857Y-95231190D01*
X61445000Y-95231190D02*
X61445000Y-94731190D01*
X61492619Y-94802619D01*
X61540238Y-94850238D01*
X61587857Y-94874047D01*
D10*
G04 #@! TO.C,R2*
X141801666Y-84247380D02*
X142135000Y-83771190D01*
X142373095Y-84247380D02*
X142373095Y-83247380D01*
X141992142Y-83247380D01*
X141896904Y-83295000D01*
X141849285Y-83342619D01*
X141801666Y-83437857D01*
X141801666Y-83580714D01*
X141849285Y-83675952D01*
X141896904Y-83723571D01*
X141992142Y-83771190D01*
X142373095Y-83771190D01*
X141420714Y-83342619D02*
X141373095Y-83295000D01*
X141277857Y-83247380D01*
X141039761Y-83247380D01*
X140944523Y-83295000D01*
X140896904Y-83342619D01*
X140849285Y-83437857D01*
X140849285Y-83533095D01*
X140896904Y-83675952D01*
X141468333Y-84247380D01*
X140849285Y-84247380D01*
G04 #@! TO.C,D_7*
X221399464Y-93895892D02*
X222149464Y-93895892D01*
X222149464Y-93717321D01*
X222113750Y-93610178D01*
X222042321Y-93538750D01*
X221970892Y-93503035D01*
X221828035Y-93467321D01*
X221720892Y-93467321D01*
X221578035Y-93503035D01*
X221506607Y-93538750D01*
X221435178Y-93610178D01*
X221399464Y-93717321D01*
X221399464Y-93895892D01*
X221328035Y-93324464D02*
X221328035Y-92753035D01*
X222149464Y-92645892D02*
X222149464Y-92145892D01*
X221399464Y-92467321D01*
D13*
X219924523Y-89829285D02*
X220305476Y-89829285D01*
X220115000Y-89638809D02*
X220115000Y-90019761D01*
X219952142Y-95261190D02*
X220237857Y-95261190D01*
X220095000Y-95261190D02*
X220095000Y-94761190D01*
X220142619Y-94832619D01*
X220190238Y-94880238D01*
X220237857Y-94904047D01*
D10*
G04 #@! TO.C,C14*
X156942142Y-96027142D02*
X156989761Y-95979523D01*
X157037380Y-95836666D01*
X157037380Y-95741428D01*
X156989761Y-95598571D01*
X156894523Y-95503333D01*
X156799285Y-95455714D01*
X156608809Y-95408095D01*
X156465952Y-95408095D01*
X156275476Y-95455714D01*
X156180238Y-95503333D01*
X156085000Y-95598571D01*
X156037380Y-95741428D01*
X156037380Y-95836666D01*
X156085000Y-95979523D01*
X156132619Y-96027142D01*
X157037380Y-96979523D02*
X157037380Y-96408095D01*
X157037380Y-96693809D02*
X156037380Y-96693809D01*
X156180238Y-96598571D01*
X156275476Y-96503333D01*
X156323095Y-96408095D01*
X156370714Y-97836666D02*
X157037380Y-97836666D01*
X155989761Y-97598571D02*
X156704047Y-97360476D01*
X156704047Y-97979523D01*
G04 #@! TO.C,C9*
X151172142Y-91638333D02*
X151219761Y-91590714D01*
X151267380Y-91447857D01*
X151267380Y-91352619D01*
X151219761Y-91209761D01*
X151124523Y-91114523D01*
X151029285Y-91066904D01*
X150838809Y-91019285D01*
X150695952Y-91019285D01*
X150505476Y-91066904D01*
X150410238Y-91114523D01*
X150315000Y-91209761D01*
X150267380Y-91352619D01*
X150267380Y-91447857D01*
X150315000Y-91590714D01*
X150362619Y-91638333D01*
X151267380Y-92114523D02*
X151267380Y-92305000D01*
X151219761Y-92400238D01*
X151172142Y-92447857D01*
X151029285Y-92543095D01*
X150838809Y-92590714D01*
X150457857Y-92590714D01*
X150362619Y-92543095D01*
X150315000Y-92495476D01*
X150267380Y-92400238D01*
X150267380Y-92209761D01*
X150315000Y-92114523D01*
X150362619Y-92066904D01*
X150457857Y-92019285D01*
X150695952Y-92019285D01*
X150791190Y-92066904D01*
X150838809Y-92114523D01*
X150886428Y-92209761D01*
X150886428Y-92400238D01*
X150838809Y-92495476D01*
X150791190Y-92543095D01*
X150695952Y-92590714D01*
G04 #@! TO.C,LED12*
X139201428Y-116804280D02*
X139558571Y-116804280D01*
X139558571Y-116054280D01*
X138951428Y-116411423D02*
X138701428Y-116411423D01*
X138594285Y-116804280D02*
X138951428Y-116804280D01*
X138951428Y-116054280D01*
X138594285Y-116054280D01*
X138272857Y-116804280D02*
X138272857Y-116054280D01*
X138094285Y-116054280D01*
X137987142Y-116089995D01*
X137915714Y-116161423D01*
X137880000Y-116232852D01*
X137844285Y-116375709D01*
X137844285Y-116482852D01*
X137880000Y-116625709D01*
X137915714Y-116697137D01*
X137987142Y-116768566D01*
X138094285Y-116804280D01*
X138272857Y-116804280D01*
X137130000Y-116804280D02*
X137558571Y-116804280D01*
X137344285Y-116804280D02*
X137344285Y-116054280D01*
X137415714Y-116161423D01*
X137487142Y-116232852D01*
X137558571Y-116268566D01*
X136844285Y-116125709D02*
X136808571Y-116089995D01*
X136737142Y-116054280D01*
X136558571Y-116054280D01*
X136487142Y-116089995D01*
X136451428Y-116125709D01*
X136415714Y-116197137D01*
X136415714Y-116268566D01*
X136451428Y-116375709D01*
X136880000Y-116804280D01*
X136415714Y-116804280D01*
D13*
X140799761Y-120034995D02*
X140837857Y-120015947D01*
X140895000Y-120015947D01*
X140952142Y-120034995D01*
X140990238Y-120073090D01*
X141009285Y-120111185D01*
X141028333Y-120187375D01*
X141028333Y-120244518D01*
X141009285Y-120320709D01*
X140990238Y-120358804D01*
X140952142Y-120396899D01*
X140895000Y-120415947D01*
X140856904Y-120415947D01*
X140799761Y-120396899D01*
X140780714Y-120377852D01*
X140780714Y-120244518D01*
X140856904Y-120244518D01*
X140609285Y-120415947D02*
X140609285Y-120015947D01*
X140380714Y-120415947D01*
X140380714Y-120015947D01*
X140190238Y-120415947D02*
X140190238Y-120015947D01*
X140095000Y-120015947D01*
X140037857Y-120034995D01*
X139999761Y-120073090D01*
X139980714Y-120111185D01*
X139961666Y-120187375D01*
X139961666Y-120244518D01*
X139980714Y-120320709D01*
X139999761Y-120358804D01*
X140037857Y-120396899D01*
X140095000Y-120415947D01*
X140190238Y-120415947D01*
D11*
X135102142Y-117231185D02*
X135387857Y-117231185D01*
X135245000Y-117231185D02*
X135245000Y-116731185D01*
X135292619Y-116802614D01*
X135340238Y-116850233D01*
X135387857Y-116874042D01*
D10*
G04 #@! TO.C,LED15*
X213001428Y-116804280D02*
X213358571Y-116804280D01*
X213358571Y-116054280D01*
X212751428Y-116411423D02*
X212501428Y-116411423D01*
X212394285Y-116804280D02*
X212751428Y-116804280D01*
X212751428Y-116054280D01*
X212394285Y-116054280D01*
X212072857Y-116804280D02*
X212072857Y-116054280D01*
X211894285Y-116054280D01*
X211787142Y-116089995D01*
X211715714Y-116161423D01*
X211680000Y-116232852D01*
X211644285Y-116375709D01*
X211644285Y-116482852D01*
X211680000Y-116625709D01*
X211715714Y-116697137D01*
X211787142Y-116768566D01*
X211894285Y-116804280D01*
X212072857Y-116804280D01*
X210930000Y-116804280D02*
X211358571Y-116804280D01*
X211144285Y-116804280D02*
X211144285Y-116054280D01*
X211215714Y-116161423D01*
X211287142Y-116232852D01*
X211358571Y-116268566D01*
X210251428Y-116054280D02*
X210608571Y-116054280D01*
X210644285Y-116411423D01*
X210608571Y-116375709D01*
X210537142Y-116339995D01*
X210358571Y-116339995D01*
X210287142Y-116375709D01*
X210251428Y-116411423D01*
X210215714Y-116482852D01*
X210215714Y-116661423D01*
X210251428Y-116732852D01*
X210287142Y-116768566D01*
X210358571Y-116804280D01*
X210537142Y-116804280D01*
X210608571Y-116768566D01*
X210644285Y-116732852D01*
D13*
X214599761Y-120034995D02*
X214637857Y-120015947D01*
X214695000Y-120015947D01*
X214752142Y-120034995D01*
X214790238Y-120073090D01*
X214809285Y-120111185D01*
X214828333Y-120187375D01*
X214828333Y-120244518D01*
X214809285Y-120320709D01*
X214790238Y-120358804D01*
X214752142Y-120396899D01*
X214695000Y-120415947D01*
X214656904Y-120415947D01*
X214599761Y-120396899D01*
X214580714Y-120377852D01*
X214580714Y-120244518D01*
X214656904Y-120244518D01*
X214409285Y-120415947D02*
X214409285Y-120015947D01*
X214180714Y-120415947D01*
X214180714Y-120015947D01*
X213990238Y-120415947D02*
X213990238Y-120015947D01*
X213895000Y-120015947D01*
X213837857Y-120034995D01*
X213799761Y-120073090D01*
X213780714Y-120111185D01*
X213761666Y-120187375D01*
X213761666Y-120244518D01*
X213780714Y-120320709D01*
X213799761Y-120358804D01*
X213837857Y-120396899D01*
X213895000Y-120415947D01*
X213990238Y-120415947D01*
D11*
X208902142Y-117231185D02*
X209187857Y-117231185D01*
X209045000Y-117231185D02*
X209045000Y-116731185D01*
X209092619Y-116802614D01*
X209140238Y-116850233D01*
X209187857Y-116874042D01*
D10*
G04 #@! TO.C,D_13*
X172129464Y-116635178D02*
X172879464Y-116635178D01*
X172879464Y-116456607D01*
X172843750Y-116349464D01*
X172772321Y-116278035D01*
X172700892Y-116242321D01*
X172558035Y-116206607D01*
X172450892Y-116206607D01*
X172308035Y-116242321D01*
X172236607Y-116278035D01*
X172165178Y-116349464D01*
X172129464Y-116456607D01*
X172129464Y-116635178D01*
X172058035Y-116063750D02*
X172058035Y-115492321D01*
X172129464Y-114920892D02*
X172129464Y-115349464D01*
X172129464Y-115135178D02*
X172879464Y-115135178D01*
X172772321Y-115206607D01*
X172700892Y-115278035D01*
X172665178Y-115349464D01*
X172879464Y-114670892D02*
X172879464Y-114206607D01*
X172593750Y-114456607D01*
X172593750Y-114349464D01*
X172558035Y-114278035D01*
X172522321Y-114242321D01*
X172450892Y-114206607D01*
X172272321Y-114206607D01*
X172200892Y-114242321D01*
X172165178Y-114278035D01*
X172129464Y-114349464D01*
X172129464Y-114563750D01*
X172165178Y-114635178D01*
X172200892Y-114670892D01*
D13*
X170682142Y-117286190D02*
X170967857Y-117286190D01*
X170825000Y-117286190D02*
X170825000Y-116786190D01*
X170872619Y-116857619D01*
X170920238Y-116905238D01*
X170967857Y-116929047D01*
X170654523Y-111854285D02*
X171035476Y-111854285D01*
X170845000Y-111663809D02*
X170845000Y-112044761D01*
D10*
G04 #@! TO.C,C17*
X230522142Y-96017142D02*
X230569761Y-95969523D01*
X230617380Y-95826666D01*
X230617380Y-95731428D01*
X230569761Y-95588571D01*
X230474523Y-95493333D01*
X230379285Y-95445714D01*
X230188809Y-95398095D01*
X230045952Y-95398095D01*
X229855476Y-95445714D01*
X229760238Y-95493333D01*
X229665000Y-95588571D01*
X229617380Y-95731428D01*
X229617380Y-95826666D01*
X229665000Y-95969523D01*
X229712619Y-96017142D01*
X230617380Y-96969523D02*
X230617380Y-96398095D01*
X230617380Y-96683809D02*
X229617380Y-96683809D01*
X229760238Y-96588571D01*
X229855476Y-96493333D01*
X229903095Y-96398095D01*
X229617380Y-97302857D02*
X229617380Y-97969523D01*
X230617380Y-97540952D01*
G04 #@! TO.C,D_1*
X73779464Y-93895892D02*
X74529464Y-93895892D01*
X74529464Y-93717321D01*
X74493750Y-93610178D01*
X74422321Y-93538750D01*
X74350892Y-93503035D01*
X74208035Y-93467321D01*
X74100892Y-93467321D01*
X73958035Y-93503035D01*
X73886607Y-93538750D01*
X73815178Y-93610178D01*
X73779464Y-93717321D01*
X73779464Y-93895892D01*
X73708035Y-93324464D02*
X73708035Y-92753035D01*
X73779464Y-92181607D02*
X73779464Y-92610178D01*
X73779464Y-92395892D02*
X74529464Y-92395892D01*
X74422321Y-92467321D01*
X74350892Y-92538750D01*
X74315178Y-92610178D01*
D13*
X72304523Y-89829285D02*
X72685476Y-89829285D01*
X72495000Y-89638809D02*
X72495000Y-90019761D01*
X72332142Y-95261190D02*
X72617857Y-95261190D01*
X72475000Y-95261190D02*
X72475000Y-94761190D01*
X72522619Y-94832619D01*
X72570238Y-94880238D01*
X72617857Y-94904047D01*
D10*
G04 #@! TO.C,R1*
X168707380Y-101348333D02*
X168231190Y-101015000D01*
X168707380Y-100776904D02*
X167707380Y-100776904D01*
X167707380Y-101157857D01*
X167755000Y-101253095D01*
X167802619Y-101300714D01*
X167897857Y-101348333D01*
X168040714Y-101348333D01*
X168135952Y-101300714D01*
X168183571Y-101253095D01*
X168231190Y-101157857D01*
X168231190Y-100776904D01*
X168707380Y-102300714D02*
X168707380Y-101729285D01*
X168707380Y-102015000D02*
X167707380Y-102015000D01*
X167850238Y-101919761D01*
X167945476Y-101824523D01*
X167993095Y-101729285D01*
G04 #@! TO.C,C16*
X205972142Y-95987142D02*
X206019761Y-95939523D01*
X206067380Y-95796666D01*
X206067380Y-95701428D01*
X206019761Y-95558571D01*
X205924523Y-95463333D01*
X205829285Y-95415714D01*
X205638809Y-95368095D01*
X205495952Y-95368095D01*
X205305476Y-95415714D01*
X205210238Y-95463333D01*
X205115000Y-95558571D01*
X205067380Y-95701428D01*
X205067380Y-95796666D01*
X205115000Y-95939523D01*
X205162619Y-95987142D01*
X206067380Y-96939523D02*
X206067380Y-96368095D01*
X206067380Y-96653809D02*
X205067380Y-96653809D01*
X205210238Y-96558571D01*
X205305476Y-96463333D01*
X205353095Y-96368095D01*
X205067380Y-97796666D02*
X205067380Y-97606190D01*
X205115000Y-97510952D01*
X205162619Y-97463333D01*
X205305476Y-97368095D01*
X205495952Y-97320476D01*
X205876904Y-97320476D01*
X205972142Y-97368095D01*
X206019761Y-97415714D01*
X206067380Y-97510952D01*
X206067380Y-97701428D01*
X206019761Y-97796666D01*
X205972142Y-97844285D01*
X205876904Y-97891904D01*
X205638809Y-97891904D01*
X205543571Y-97844285D01*
X205495952Y-97796666D01*
X205448333Y-97701428D01*
X205448333Y-97510952D01*
X205495952Y-97415714D01*
X205543571Y-97368095D01*
X205638809Y-97320476D01*
G04 #@! TO.C,C18*
X58502142Y-117997142D02*
X58549761Y-117949523D01*
X58597380Y-117806666D01*
X58597380Y-117711428D01*
X58549761Y-117568571D01*
X58454523Y-117473333D01*
X58359285Y-117425714D01*
X58168809Y-117378095D01*
X58025952Y-117378095D01*
X57835476Y-117425714D01*
X57740238Y-117473333D01*
X57645000Y-117568571D01*
X57597380Y-117711428D01*
X57597380Y-117806666D01*
X57645000Y-117949523D01*
X57692619Y-117997142D01*
X58597380Y-118949523D02*
X58597380Y-118378095D01*
X58597380Y-118663809D02*
X57597380Y-118663809D01*
X57740238Y-118568571D01*
X57835476Y-118473333D01*
X57883095Y-118378095D01*
X58025952Y-119520952D02*
X57978333Y-119425714D01*
X57930714Y-119378095D01*
X57835476Y-119330476D01*
X57787857Y-119330476D01*
X57692619Y-119378095D01*
X57645000Y-119425714D01*
X57597380Y-119520952D01*
X57597380Y-119711428D01*
X57645000Y-119806666D01*
X57692619Y-119854285D01*
X57787857Y-119901904D01*
X57835476Y-119901904D01*
X57930714Y-119854285D01*
X57978333Y-119806666D01*
X58025952Y-119711428D01*
X58025952Y-119520952D01*
X58073571Y-119425714D01*
X58121190Y-119378095D01*
X58216428Y-119330476D01*
X58406904Y-119330476D01*
X58502142Y-119378095D01*
X58549761Y-119425714D01*
X58597380Y-119520952D01*
X58597380Y-119711428D01*
X58549761Y-119806666D01*
X58502142Y-119854285D01*
X58406904Y-119901904D01*
X58216428Y-119901904D01*
X58121190Y-119854285D01*
X58073571Y-119806666D01*
X58025952Y-119711428D01*
G04 #@! TO.C,J4*
X101258333Y-82997380D02*
X101258333Y-83711666D01*
X101305952Y-83854523D01*
X101401190Y-83949761D01*
X101544047Y-83997380D01*
X101639285Y-83997380D01*
X100353571Y-83330714D02*
X100353571Y-83997380D01*
X100591666Y-82949761D02*
X100829761Y-83664047D01*
X100210714Y-83664047D01*
G04 #@! TO.C,D_16*
X245919464Y-116635178D02*
X246669464Y-116635178D01*
X246669464Y-116456607D01*
X246633750Y-116349464D01*
X246562321Y-116278035D01*
X246490892Y-116242321D01*
X246348035Y-116206607D01*
X246240892Y-116206607D01*
X246098035Y-116242321D01*
X246026607Y-116278035D01*
X245955178Y-116349464D01*
X245919464Y-116456607D01*
X245919464Y-116635178D01*
X245848035Y-116063750D02*
X245848035Y-115492321D01*
X245919464Y-114920892D02*
X245919464Y-115349464D01*
X245919464Y-115135178D02*
X246669464Y-115135178D01*
X246562321Y-115206607D01*
X246490892Y-115278035D01*
X246455178Y-115349464D01*
X246669464Y-114278035D02*
X246669464Y-114420892D01*
X246633750Y-114492321D01*
X246598035Y-114528035D01*
X246490892Y-114599464D01*
X246348035Y-114635178D01*
X246062321Y-114635178D01*
X245990892Y-114599464D01*
X245955178Y-114563750D01*
X245919464Y-114492321D01*
X245919464Y-114349464D01*
X245955178Y-114278035D01*
X245990892Y-114242321D01*
X246062321Y-114206607D01*
X246240892Y-114206607D01*
X246312321Y-114242321D01*
X246348035Y-114278035D01*
X246383750Y-114349464D01*
X246383750Y-114492321D01*
X246348035Y-114563750D01*
X246312321Y-114599464D01*
X246240892Y-114635178D01*
D13*
X244472142Y-117286190D02*
X244757857Y-117286190D01*
X244615000Y-117286190D02*
X244615000Y-116786190D01*
X244662619Y-116857619D01*
X244710238Y-116905238D01*
X244757857Y-116929047D01*
X244444523Y-111854285D02*
X244825476Y-111854285D01*
X244635000Y-111663809D02*
X244635000Y-112044761D01*
D10*
G04 #@! TO.C,R5*
X69821666Y-94897380D02*
X70155000Y-94421190D01*
X70393095Y-94897380D02*
X70393095Y-93897380D01*
X70012142Y-93897380D01*
X69916904Y-93945000D01*
X69869285Y-93992619D01*
X69821666Y-94087857D01*
X69821666Y-94230714D01*
X69869285Y-94325952D01*
X69916904Y-94373571D01*
X70012142Y-94421190D01*
X70393095Y-94421190D01*
X68916904Y-93897380D02*
X69393095Y-93897380D01*
X69440714Y-94373571D01*
X69393095Y-94325952D01*
X69297857Y-94278333D01*
X69059761Y-94278333D01*
X68964523Y-94325952D01*
X68916904Y-94373571D01*
X68869285Y-94468809D01*
X68869285Y-94706904D01*
X68916904Y-94802142D01*
X68964523Y-94849761D01*
X69059761Y-94897380D01*
X69297857Y-94897380D01*
X69393095Y-94849761D01*
X69440714Y-94802142D01*
G04 #@! TO.C,D_10*
X98339464Y-116635178D02*
X99089464Y-116635178D01*
X99089464Y-116456607D01*
X99053750Y-116349464D01*
X98982321Y-116278035D01*
X98910892Y-116242321D01*
X98768035Y-116206607D01*
X98660892Y-116206607D01*
X98518035Y-116242321D01*
X98446607Y-116278035D01*
X98375178Y-116349464D01*
X98339464Y-116456607D01*
X98339464Y-116635178D01*
X98268035Y-116063750D02*
X98268035Y-115492321D01*
X98339464Y-114920892D02*
X98339464Y-115349464D01*
X98339464Y-115135178D02*
X99089464Y-115135178D01*
X98982321Y-115206607D01*
X98910892Y-115278035D01*
X98875178Y-115349464D01*
X99089464Y-114456607D02*
X99089464Y-114385178D01*
X99053750Y-114313750D01*
X99018035Y-114278035D01*
X98946607Y-114242321D01*
X98803750Y-114206607D01*
X98625178Y-114206607D01*
X98482321Y-114242321D01*
X98410892Y-114278035D01*
X98375178Y-114313750D01*
X98339464Y-114385178D01*
X98339464Y-114456607D01*
X98375178Y-114528035D01*
X98410892Y-114563750D01*
X98482321Y-114599464D01*
X98625178Y-114635178D01*
X98803750Y-114635178D01*
X98946607Y-114599464D01*
X99018035Y-114563750D01*
X99053750Y-114528035D01*
X99089464Y-114456607D01*
D13*
X96892142Y-117286190D02*
X97177857Y-117286190D01*
X97035000Y-117286190D02*
X97035000Y-116786190D01*
X97082619Y-116857619D01*
X97130238Y-116905238D01*
X97177857Y-116929047D01*
X96864523Y-111854285D02*
X97245476Y-111854285D01*
X97055000Y-111663809D02*
X97055000Y-112044761D01*
D10*
G04 #@! TO.C,LED4*
X138844285Y-94804285D02*
X139201428Y-94804285D01*
X139201428Y-94054285D01*
X138594285Y-94411428D02*
X138344285Y-94411428D01*
X138237142Y-94804285D02*
X138594285Y-94804285D01*
X138594285Y-94054285D01*
X138237142Y-94054285D01*
X137915714Y-94804285D02*
X137915714Y-94054285D01*
X137737142Y-94054285D01*
X137630000Y-94090000D01*
X137558571Y-94161428D01*
X137522857Y-94232857D01*
X137487142Y-94375714D01*
X137487142Y-94482857D01*
X137522857Y-94625714D01*
X137558571Y-94697142D01*
X137630000Y-94768571D01*
X137737142Y-94804285D01*
X137915714Y-94804285D01*
X136844285Y-94304285D02*
X136844285Y-94804285D01*
X137022857Y-94018571D02*
X137201428Y-94554285D01*
X136737142Y-94554285D01*
D13*
X140799761Y-98035000D02*
X140837857Y-98015952D01*
X140895000Y-98015952D01*
X140952142Y-98035000D01*
X140990238Y-98073095D01*
X141009285Y-98111190D01*
X141028333Y-98187380D01*
X141028333Y-98244523D01*
X141009285Y-98320714D01*
X140990238Y-98358809D01*
X140952142Y-98396904D01*
X140895000Y-98415952D01*
X140856904Y-98415952D01*
X140799761Y-98396904D01*
X140780714Y-98377857D01*
X140780714Y-98244523D01*
X140856904Y-98244523D01*
X140609285Y-98415952D02*
X140609285Y-98015952D01*
X140380714Y-98415952D01*
X140380714Y-98015952D01*
X140190238Y-98415952D02*
X140190238Y-98015952D01*
X140095000Y-98015952D01*
X140037857Y-98035000D01*
X139999761Y-98073095D01*
X139980714Y-98111190D01*
X139961666Y-98187380D01*
X139961666Y-98244523D01*
X139980714Y-98320714D01*
X139999761Y-98358809D01*
X140037857Y-98396904D01*
X140095000Y-98415952D01*
X140190238Y-98415952D01*
D11*
X135102142Y-95231190D02*
X135387857Y-95231190D01*
X135245000Y-95231190D02*
X135245000Y-94731190D01*
X135292619Y-94802619D01*
X135340238Y-94850238D01*
X135387857Y-94874047D01*
D10*
G04 #@! TO.C,LED8*
X237244285Y-94804285D02*
X237601428Y-94804285D01*
X237601428Y-94054285D01*
X236994285Y-94411428D02*
X236744285Y-94411428D01*
X236637142Y-94804285D02*
X236994285Y-94804285D01*
X236994285Y-94054285D01*
X236637142Y-94054285D01*
X236315714Y-94804285D02*
X236315714Y-94054285D01*
X236137142Y-94054285D01*
X236030000Y-94090000D01*
X235958571Y-94161428D01*
X235922857Y-94232857D01*
X235887142Y-94375714D01*
X235887142Y-94482857D01*
X235922857Y-94625714D01*
X235958571Y-94697142D01*
X236030000Y-94768571D01*
X236137142Y-94804285D01*
X236315714Y-94804285D01*
X235458571Y-94375714D02*
X235530000Y-94340000D01*
X235565714Y-94304285D01*
X235601428Y-94232857D01*
X235601428Y-94197142D01*
X235565714Y-94125714D01*
X235530000Y-94090000D01*
X235458571Y-94054285D01*
X235315714Y-94054285D01*
X235244285Y-94090000D01*
X235208571Y-94125714D01*
X235172857Y-94197142D01*
X235172857Y-94232857D01*
X235208571Y-94304285D01*
X235244285Y-94340000D01*
X235315714Y-94375714D01*
X235458571Y-94375714D01*
X235530000Y-94411428D01*
X235565714Y-94447142D01*
X235601428Y-94518571D01*
X235601428Y-94661428D01*
X235565714Y-94732857D01*
X235530000Y-94768571D01*
X235458571Y-94804285D01*
X235315714Y-94804285D01*
X235244285Y-94768571D01*
X235208571Y-94732857D01*
X235172857Y-94661428D01*
X235172857Y-94518571D01*
X235208571Y-94447142D01*
X235244285Y-94411428D01*
X235315714Y-94375714D01*
D13*
X239199761Y-98035000D02*
X239237857Y-98015952D01*
X239295000Y-98015952D01*
X239352142Y-98035000D01*
X239390238Y-98073095D01*
X239409285Y-98111190D01*
X239428333Y-98187380D01*
X239428333Y-98244523D01*
X239409285Y-98320714D01*
X239390238Y-98358809D01*
X239352142Y-98396904D01*
X239295000Y-98415952D01*
X239256904Y-98415952D01*
X239199761Y-98396904D01*
X239180714Y-98377857D01*
X239180714Y-98244523D01*
X239256904Y-98244523D01*
X239009285Y-98415952D02*
X239009285Y-98015952D01*
X238780714Y-98415952D01*
X238780714Y-98015952D01*
X238590238Y-98415952D02*
X238590238Y-98015952D01*
X238495000Y-98015952D01*
X238437857Y-98035000D01*
X238399761Y-98073095D01*
X238380714Y-98111190D01*
X238361666Y-98187380D01*
X238361666Y-98244523D01*
X238380714Y-98320714D01*
X238399761Y-98358809D01*
X238437857Y-98396904D01*
X238495000Y-98415952D01*
X238590238Y-98415952D01*
D11*
X233502142Y-95231190D02*
X233787857Y-95231190D01*
X233645000Y-95231190D02*
X233645000Y-94731190D01*
X233692619Y-94802619D01*
X233740238Y-94850238D01*
X233787857Y-94874047D01*
D10*
G04 #@! TO.C,D_4*
X131079464Y-93895892D02*
X131829464Y-93895892D01*
X131829464Y-93717321D01*
X131793750Y-93610178D01*
X131722321Y-93538750D01*
X131650892Y-93503035D01*
X131508035Y-93467321D01*
X131400892Y-93467321D01*
X131258035Y-93503035D01*
X131186607Y-93538750D01*
X131115178Y-93610178D01*
X131079464Y-93717321D01*
X131079464Y-93895892D01*
X131008035Y-93324464D02*
X131008035Y-92753035D01*
X131579464Y-92253035D02*
X131079464Y-92253035D01*
X131865178Y-92431607D02*
X131329464Y-92610178D01*
X131329464Y-92145892D01*
D13*
X129604523Y-89829285D02*
X129985476Y-89829285D01*
X129795000Y-89638809D02*
X129795000Y-90019761D01*
X129632142Y-95261190D02*
X129917857Y-95261190D01*
X129775000Y-95261190D02*
X129775000Y-94761190D01*
X129822619Y-94832619D01*
X129870238Y-94880238D01*
X129917857Y-94904047D01*
D10*
G04 #@! TO.C,D_14*
X196719464Y-116635178D02*
X197469464Y-116635178D01*
X197469464Y-116456607D01*
X197433750Y-116349464D01*
X197362321Y-116278035D01*
X197290892Y-116242321D01*
X197148035Y-116206607D01*
X197040892Y-116206607D01*
X196898035Y-116242321D01*
X196826607Y-116278035D01*
X196755178Y-116349464D01*
X196719464Y-116456607D01*
X196719464Y-116635178D01*
X196648035Y-116063750D02*
X196648035Y-115492321D01*
X196719464Y-114920892D02*
X196719464Y-115349464D01*
X196719464Y-115135178D02*
X197469464Y-115135178D01*
X197362321Y-115206607D01*
X197290892Y-115278035D01*
X197255178Y-115349464D01*
X197219464Y-114278035D02*
X196719464Y-114278035D01*
X197505178Y-114456607D02*
X196969464Y-114635178D01*
X196969464Y-114170892D01*
D13*
X195272142Y-117286190D02*
X195557857Y-117286190D01*
X195415000Y-117286190D02*
X195415000Y-116786190D01*
X195462619Y-116857619D01*
X195510238Y-116905238D01*
X195557857Y-116929047D01*
X195244523Y-111854285D02*
X195625476Y-111854285D01*
X195435000Y-111663809D02*
X195435000Y-112044761D01*
D10*
G04 #@! TO.C,C13*
X132212142Y-95967142D02*
X132259761Y-95919523D01*
X132307380Y-95776666D01*
X132307380Y-95681428D01*
X132259761Y-95538571D01*
X132164523Y-95443333D01*
X132069285Y-95395714D01*
X131878809Y-95348095D01*
X131735952Y-95348095D01*
X131545476Y-95395714D01*
X131450238Y-95443333D01*
X131355000Y-95538571D01*
X131307380Y-95681428D01*
X131307380Y-95776666D01*
X131355000Y-95919523D01*
X131402619Y-95967142D01*
X132307380Y-96919523D02*
X132307380Y-96348095D01*
X132307380Y-96633809D02*
X131307380Y-96633809D01*
X131450238Y-96538571D01*
X131545476Y-96443333D01*
X131593095Y-96348095D01*
X131307380Y-97252857D02*
X131307380Y-97871904D01*
X131688333Y-97538571D01*
X131688333Y-97681428D01*
X131735952Y-97776666D01*
X131783571Y-97824285D01*
X131878809Y-97871904D01*
X132116904Y-97871904D01*
X132212142Y-97824285D01*
X132259761Y-97776666D01*
X132307380Y-97681428D01*
X132307380Y-97395714D01*
X132259761Y-97300476D01*
X132212142Y-97252857D01*
G04 #@! TO.C,D_3*
X122939464Y-93895892D02*
X123689464Y-93895892D01*
X123689464Y-93717321D01*
X123653750Y-93610178D01*
X123582321Y-93538750D01*
X123510892Y-93503035D01*
X123368035Y-93467321D01*
X123260892Y-93467321D01*
X123118035Y-93503035D01*
X123046607Y-93538750D01*
X122975178Y-93610178D01*
X122939464Y-93717321D01*
X122939464Y-93895892D01*
X122868035Y-93324464D02*
X122868035Y-92753035D01*
X123689464Y-92645892D02*
X123689464Y-92181607D01*
X123403750Y-92431607D01*
X123403750Y-92324464D01*
X123368035Y-92253035D01*
X123332321Y-92217321D01*
X123260892Y-92181607D01*
X123082321Y-92181607D01*
X123010892Y-92217321D01*
X122975178Y-92253035D01*
X122939464Y-92324464D01*
X122939464Y-92538750D01*
X122975178Y-92610178D01*
X123010892Y-92645892D01*
D13*
X121492142Y-95261190D02*
X121777857Y-95261190D01*
X121635000Y-95261190D02*
X121635000Y-94761190D01*
X121682619Y-94832619D01*
X121730238Y-94880238D01*
X121777857Y-94904047D01*
X121464523Y-89829285D02*
X121845476Y-89829285D01*
X121655000Y-89638809D02*
X121655000Y-90019761D01*
D10*
G04 #@! TO.C,C2*
X156962142Y-106638333D02*
X157009761Y-106590714D01*
X157057380Y-106447857D01*
X157057380Y-106352619D01*
X157009761Y-106209761D01*
X156914523Y-106114523D01*
X156819285Y-106066904D01*
X156628809Y-106019285D01*
X156485952Y-106019285D01*
X156295476Y-106066904D01*
X156200238Y-106114523D01*
X156105000Y-106209761D01*
X156057380Y-106352619D01*
X156057380Y-106447857D01*
X156105000Y-106590714D01*
X156152619Y-106638333D01*
X156152619Y-107019285D02*
X156105000Y-107066904D01*
X156057380Y-107162142D01*
X156057380Y-107400238D01*
X156105000Y-107495476D01*
X156152619Y-107543095D01*
X156247857Y-107590714D01*
X156343095Y-107590714D01*
X156485952Y-107543095D01*
X157057380Y-106971666D01*
X157057380Y-107590714D01*
G04 #@! TO.C,J1*
X150508333Y-81177380D02*
X150508333Y-81891666D01*
X150555952Y-82034523D01*
X150651190Y-82129761D01*
X150794047Y-82177380D01*
X150889285Y-82177380D01*
X149508333Y-82177380D02*
X150079761Y-82177380D01*
X149794047Y-82177380D02*
X149794047Y-81177380D01*
X149889285Y-81320238D01*
X149984523Y-81415476D01*
X150079761Y-81463095D01*
D11*
X149841190Y-85354523D02*
X149341190Y-85354523D01*
X149341190Y-85473571D01*
X149365000Y-85545000D01*
X149412619Y-85592619D01*
X149460238Y-85616428D01*
X149555476Y-85640238D01*
X149626904Y-85640238D01*
X149722142Y-85616428D01*
X149769761Y-85592619D01*
X149817380Y-85545000D01*
X149841190Y-85473571D01*
X149841190Y-85354523D01*
X149650714Y-85854523D02*
X149650714Y-86235476D01*
X150781190Y-85344523D02*
X150281190Y-85344523D01*
X150281190Y-85463571D01*
X150305000Y-85535000D01*
X150352619Y-85582619D01*
X150400238Y-85606428D01*
X150495476Y-85630238D01*
X150566904Y-85630238D01*
X150662142Y-85606428D01*
X150709761Y-85582619D01*
X150757380Y-85535000D01*
X150781190Y-85463571D01*
X150781190Y-85344523D01*
X150590714Y-85844523D02*
X150590714Y-86225476D01*
X150781190Y-86035000D02*
X150400238Y-86035000D01*
X151335000Y-85474047D02*
X151311190Y-85426428D01*
X151311190Y-85355000D01*
X151335000Y-85283571D01*
X151382619Y-85235952D01*
X151430238Y-85212142D01*
X151525476Y-85188333D01*
X151596904Y-85188333D01*
X151692142Y-85212142D01*
X151739761Y-85235952D01*
X151787380Y-85283571D01*
X151811190Y-85355000D01*
X151811190Y-85402619D01*
X151787380Y-85474047D01*
X151763571Y-85497857D01*
X151596904Y-85497857D01*
X151596904Y-85402619D01*
X151811190Y-85712142D02*
X151311190Y-85712142D01*
X151811190Y-85997857D01*
X151311190Y-85997857D01*
X151811190Y-86235952D02*
X151311190Y-86235952D01*
X151311190Y-86355000D01*
X151335000Y-86426428D01*
X151382619Y-86474047D01*
X151430238Y-86497857D01*
X151525476Y-86521666D01*
X151596904Y-86521666D01*
X151692142Y-86497857D01*
X151739761Y-86474047D01*
X151787380Y-86426428D01*
X151811190Y-86355000D01*
X151811190Y-86235952D01*
X148271190Y-85138333D02*
X148771190Y-85305000D01*
X148271190Y-85471666D01*
X148723571Y-85924047D02*
X148747380Y-85900238D01*
X148771190Y-85828809D01*
X148771190Y-85781190D01*
X148747380Y-85709761D01*
X148699761Y-85662142D01*
X148652142Y-85638333D01*
X148556904Y-85614523D01*
X148485476Y-85614523D01*
X148390238Y-85638333D01*
X148342619Y-85662142D01*
X148295000Y-85709761D01*
X148271190Y-85781190D01*
X148271190Y-85828809D01*
X148295000Y-85900238D01*
X148318809Y-85924047D01*
X148723571Y-86424047D02*
X148747380Y-86400238D01*
X148771190Y-86328809D01*
X148771190Y-86281190D01*
X148747380Y-86209761D01*
X148699761Y-86162142D01*
X148652142Y-86138333D01*
X148556904Y-86114523D01*
X148485476Y-86114523D01*
X148390238Y-86138333D01*
X148342619Y-86162142D01*
X148295000Y-86209761D01*
X148271190Y-86281190D01*
X148271190Y-86328809D01*
X148295000Y-86400238D01*
X148318809Y-86424047D01*
D10*
G04 #@! TO.C,J2*
X199988333Y-83077380D02*
X199988333Y-83791666D01*
X200035952Y-83934523D01*
X200131190Y-84029761D01*
X200274047Y-84077380D01*
X200369285Y-84077380D01*
X199559761Y-83172619D02*
X199512142Y-83125000D01*
X199416904Y-83077380D01*
X199178809Y-83077380D01*
X199083571Y-83125000D01*
X199035952Y-83172619D01*
X198988333Y-83267857D01*
X198988333Y-83363095D01*
X199035952Y-83505952D01*
X199607380Y-84077380D01*
X198988333Y-84077380D01*
G04 #@! TO.C,D_11*
X122949464Y-116635178D02*
X123699464Y-116635178D01*
X123699464Y-116456607D01*
X123663750Y-116349464D01*
X123592321Y-116278035D01*
X123520892Y-116242321D01*
X123378035Y-116206607D01*
X123270892Y-116206607D01*
X123128035Y-116242321D01*
X123056607Y-116278035D01*
X122985178Y-116349464D01*
X122949464Y-116456607D01*
X122949464Y-116635178D01*
X122878035Y-116063750D02*
X122878035Y-115492321D01*
X122949464Y-114920892D02*
X122949464Y-115349464D01*
X122949464Y-115135178D02*
X123699464Y-115135178D01*
X123592321Y-115206607D01*
X123520892Y-115278035D01*
X123485178Y-115349464D01*
X122949464Y-114206607D02*
X122949464Y-114635178D01*
X122949464Y-114420892D02*
X123699464Y-114420892D01*
X123592321Y-114492321D01*
X123520892Y-114563750D01*
X123485178Y-114635178D01*
D13*
X121502142Y-117286190D02*
X121787857Y-117286190D01*
X121645000Y-117286190D02*
X121645000Y-116786190D01*
X121692619Y-116857619D01*
X121740238Y-116905238D01*
X121787857Y-116929047D01*
X121474523Y-111854285D02*
X121855476Y-111854285D01*
X121665000Y-111663809D02*
X121665000Y-112044761D01*
D10*
G04 #@! TO.C,Y1*
X159701190Y-104961190D02*
X159701190Y-105437380D01*
X160034523Y-104437380D02*
X159701190Y-104961190D01*
X159367857Y-104437380D01*
X158510714Y-105437380D02*
X159082142Y-105437380D01*
X158796428Y-105437380D02*
X158796428Y-104437380D01*
X158891666Y-104580238D01*
X158986904Y-104675476D01*
X159082142Y-104723095D01*
D11*
X161832142Y-104871190D02*
X162117857Y-104871190D01*
X161975000Y-104871190D02*
X161975000Y-104371190D01*
X162022619Y-104442619D01*
X162070238Y-104490238D01*
X162117857Y-104514047D01*
D10*
G04 #@! TO.C,D_2*
X97469464Y-93895892D02*
X98219464Y-93895892D01*
X98219464Y-93717321D01*
X98183750Y-93610178D01*
X98112321Y-93538750D01*
X98040892Y-93503035D01*
X97898035Y-93467321D01*
X97790892Y-93467321D01*
X97648035Y-93503035D01*
X97576607Y-93538750D01*
X97505178Y-93610178D01*
X97469464Y-93717321D01*
X97469464Y-93895892D01*
X97398035Y-93324464D02*
X97398035Y-92753035D01*
X98148035Y-92610178D02*
X98183750Y-92574464D01*
X98219464Y-92503035D01*
X98219464Y-92324464D01*
X98183750Y-92253035D01*
X98148035Y-92217321D01*
X98076607Y-92181607D01*
X98005178Y-92181607D01*
X97898035Y-92217321D01*
X97469464Y-92645892D01*
X97469464Y-92181607D01*
D13*
X95994523Y-89829285D02*
X96375476Y-89829285D01*
X96185000Y-89638809D02*
X96185000Y-90019761D01*
X96022142Y-95261190D02*
X96307857Y-95261190D01*
X96165000Y-95261190D02*
X96165000Y-94761190D01*
X96212619Y-94832619D01*
X96260238Y-94880238D01*
X96307857Y-94904047D01*
D10*
G04 #@! TO.C,P1*
X142363095Y-82697380D02*
X142363095Y-81697380D01*
X141982142Y-81697380D01*
X141886904Y-81745000D01*
X141839285Y-81792619D01*
X141791666Y-81887857D01*
X141791666Y-82030714D01*
X141839285Y-82125952D01*
X141886904Y-82173571D01*
X141982142Y-82221190D01*
X142363095Y-82221190D01*
X140839285Y-82697380D02*
X141410714Y-82697380D01*
X141125000Y-82697380D02*
X141125000Y-81697380D01*
X141220238Y-81840238D01*
X141315476Y-81935476D01*
X141410714Y-81983095D01*
X143695952Y-80886428D02*
X142934047Y-80886428D01*
X143315000Y-81267380D02*
X143315000Y-80505476D01*
X145365952Y-81016428D02*
X144604047Y-81016428D01*
G04 #@! TO.C,C25*
X230532142Y-117992142D02*
X230579761Y-117944523D01*
X230627380Y-117801666D01*
X230627380Y-117706428D01*
X230579761Y-117563571D01*
X230484523Y-117468333D01*
X230389285Y-117420714D01*
X230198809Y-117373095D01*
X230055952Y-117373095D01*
X229865476Y-117420714D01*
X229770238Y-117468333D01*
X229675000Y-117563571D01*
X229627380Y-117706428D01*
X229627380Y-117801666D01*
X229675000Y-117944523D01*
X229722619Y-117992142D01*
X229722619Y-118373095D02*
X229675000Y-118420714D01*
X229627380Y-118515952D01*
X229627380Y-118754047D01*
X229675000Y-118849285D01*
X229722619Y-118896904D01*
X229817857Y-118944523D01*
X229913095Y-118944523D01*
X230055952Y-118896904D01*
X230627380Y-118325476D01*
X230627380Y-118944523D01*
X229627380Y-119849285D02*
X229627380Y-119373095D01*
X230103571Y-119325476D01*
X230055952Y-119373095D01*
X230008333Y-119468333D01*
X230008333Y-119706428D01*
X230055952Y-119801666D01*
X230103571Y-119849285D01*
X230198809Y-119896904D01*
X230436904Y-119896904D01*
X230532142Y-119849285D01*
X230579761Y-119801666D01*
X230627380Y-119706428D01*
X230627380Y-119468333D01*
X230579761Y-119373095D01*
X230532142Y-119325476D01*
G04 #@! TO.C,D_15*
X221359464Y-116635178D02*
X222109464Y-116635178D01*
X222109464Y-116456607D01*
X222073750Y-116349464D01*
X222002321Y-116278035D01*
X221930892Y-116242321D01*
X221788035Y-116206607D01*
X221680892Y-116206607D01*
X221538035Y-116242321D01*
X221466607Y-116278035D01*
X221395178Y-116349464D01*
X221359464Y-116456607D01*
X221359464Y-116635178D01*
X221288035Y-116063750D02*
X221288035Y-115492321D01*
X221359464Y-114920892D02*
X221359464Y-115349464D01*
X221359464Y-115135178D02*
X222109464Y-115135178D01*
X222002321Y-115206607D01*
X221930892Y-115278035D01*
X221895178Y-115349464D01*
X222109464Y-114242321D02*
X222109464Y-114599464D01*
X221752321Y-114635178D01*
X221788035Y-114599464D01*
X221823750Y-114528035D01*
X221823750Y-114349464D01*
X221788035Y-114278035D01*
X221752321Y-114242321D01*
X221680892Y-114206607D01*
X221502321Y-114206607D01*
X221430892Y-114242321D01*
X221395178Y-114278035D01*
X221359464Y-114349464D01*
X221359464Y-114528035D01*
X221395178Y-114599464D01*
X221430892Y-114635178D01*
D13*
X219884523Y-111854285D02*
X220265476Y-111854285D01*
X220075000Y-111663809D02*
X220075000Y-112044761D01*
X219912142Y-117286190D02*
X220197857Y-117286190D01*
X220055000Y-117286190D02*
X220055000Y-116786190D01*
X220102619Y-116857619D01*
X220150238Y-116905238D01*
X220197857Y-116929047D01*
D10*
G04 #@! TO.C,R6*
X144037380Y-107658333D02*
X143561190Y-107325000D01*
X144037380Y-107086904D02*
X143037380Y-107086904D01*
X143037380Y-107467857D01*
X143085000Y-107563095D01*
X143132619Y-107610714D01*
X143227857Y-107658333D01*
X143370714Y-107658333D01*
X143465952Y-107610714D01*
X143513571Y-107563095D01*
X143561190Y-107467857D01*
X143561190Y-107086904D01*
X143037380Y-108515476D02*
X143037380Y-108325000D01*
X143085000Y-108229761D01*
X143132619Y-108182142D01*
X143275476Y-108086904D01*
X143465952Y-108039285D01*
X143846904Y-108039285D01*
X143942142Y-108086904D01*
X143989761Y-108134523D01*
X144037380Y-108229761D01*
X144037380Y-108420238D01*
X143989761Y-108515476D01*
X143942142Y-108563095D01*
X143846904Y-108610714D01*
X143608809Y-108610714D01*
X143513571Y-108563095D01*
X143465952Y-108515476D01*
X143418333Y-108420238D01*
X143418333Y-108229761D01*
X143465952Y-108134523D01*
X143513571Y-108086904D01*
X143608809Y-108039285D01*
G04 #@! TO.C,LED11*
X114601428Y-116804280D02*
X114958571Y-116804280D01*
X114958571Y-116054280D01*
X114351428Y-116411423D02*
X114101428Y-116411423D01*
X113994285Y-116804280D02*
X114351428Y-116804280D01*
X114351428Y-116054280D01*
X113994285Y-116054280D01*
X113672857Y-116804280D02*
X113672857Y-116054280D01*
X113494285Y-116054280D01*
X113387142Y-116089995D01*
X113315714Y-116161423D01*
X113280000Y-116232852D01*
X113244285Y-116375709D01*
X113244285Y-116482852D01*
X113280000Y-116625709D01*
X113315714Y-116697137D01*
X113387142Y-116768566D01*
X113494285Y-116804280D01*
X113672857Y-116804280D01*
X112530000Y-116804280D02*
X112958571Y-116804280D01*
X112744285Y-116804280D02*
X112744285Y-116054280D01*
X112815714Y-116161423D01*
X112887142Y-116232852D01*
X112958571Y-116268566D01*
X111815714Y-116804280D02*
X112244285Y-116804280D01*
X112030000Y-116804280D02*
X112030000Y-116054280D01*
X112101428Y-116161423D01*
X112172857Y-116232852D01*
X112244285Y-116268566D01*
D13*
X116199761Y-120034995D02*
X116237857Y-120015947D01*
X116295000Y-120015947D01*
X116352142Y-120034995D01*
X116390238Y-120073090D01*
X116409285Y-120111185D01*
X116428333Y-120187375D01*
X116428333Y-120244518D01*
X116409285Y-120320709D01*
X116390238Y-120358804D01*
X116352142Y-120396899D01*
X116295000Y-120415947D01*
X116256904Y-120415947D01*
X116199761Y-120396899D01*
X116180714Y-120377852D01*
X116180714Y-120244518D01*
X116256904Y-120244518D01*
X116009285Y-120415947D02*
X116009285Y-120015947D01*
X115780714Y-120415947D01*
X115780714Y-120015947D01*
X115590238Y-120415947D02*
X115590238Y-120015947D01*
X115495000Y-120015947D01*
X115437857Y-120034995D01*
X115399761Y-120073090D01*
X115380714Y-120111185D01*
X115361666Y-120187375D01*
X115361666Y-120244518D01*
X115380714Y-120320709D01*
X115399761Y-120358804D01*
X115437857Y-120396899D01*
X115495000Y-120415947D01*
X115590238Y-120415947D01*
D11*
X110502142Y-117231185D02*
X110787857Y-117231185D01*
X110645000Y-117231185D02*
X110645000Y-116731185D01*
X110692619Y-116802614D01*
X110740238Y-116850233D01*
X110787857Y-116874042D01*
D10*
G04 #@! TO.C,LED13*
X163801428Y-116804280D02*
X164158571Y-116804280D01*
X164158571Y-116054280D01*
X163551428Y-116411423D02*
X163301428Y-116411423D01*
X163194285Y-116804280D02*
X163551428Y-116804280D01*
X163551428Y-116054280D01*
X163194285Y-116054280D01*
X162872857Y-116804280D02*
X162872857Y-116054280D01*
X162694285Y-116054280D01*
X162587142Y-116089995D01*
X162515714Y-116161423D01*
X162480000Y-116232852D01*
X162444285Y-116375709D01*
X162444285Y-116482852D01*
X162480000Y-116625709D01*
X162515714Y-116697137D01*
X162587142Y-116768566D01*
X162694285Y-116804280D01*
X162872857Y-116804280D01*
X161730000Y-116804280D02*
X162158571Y-116804280D01*
X161944285Y-116804280D02*
X161944285Y-116054280D01*
X162015714Y-116161423D01*
X162087142Y-116232852D01*
X162158571Y-116268566D01*
X161480000Y-116054280D02*
X161015714Y-116054280D01*
X161265714Y-116339995D01*
X161158571Y-116339995D01*
X161087142Y-116375709D01*
X161051428Y-116411423D01*
X161015714Y-116482852D01*
X161015714Y-116661423D01*
X161051428Y-116732852D01*
X161087142Y-116768566D01*
X161158571Y-116804280D01*
X161372857Y-116804280D01*
X161444285Y-116768566D01*
X161480000Y-116732852D01*
D11*
X159702142Y-117231185D02*
X159987857Y-117231185D01*
X159845000Y-117231185D02*
X159845000Y-116731185D01*
X159892619Y-116802614D01*
X159940238Y-116850233D01*
X159987857Y-116874042D01*
D13*
X165399761Y-120034995D02*
X165437857Y-120015947D01*
X165495000Y-120015947D01*
X165552142Y-120034995D01*
X165590238Y-120073090D01*
X165609285Y-120111185D01*
X165628333Y-120187375D01*
X165628333Y-120244518D01*
X165609285Y-120320709D01*
X165590238Y-120358804D01*
X165552142Y-120396899D01*
X165495000Y-120415947D01*
X165456904Y-120415947D01*
X165399761Y-120396899D01*
X165380714Y-120377852D01*
X165380714Y-120244518D01*
X165456904Y-120244518D01*
X165209285Y-120415947D02*
X165209285Y-120015947D01*
X164980714Y-120415947D01*
X164980714Y-120015947D01*
X164790238Y-120415947D02*
X164790238Y-120015947D01*
X164695000Y-120015947D01*
X164637857Y-120034995D01*
X164599761Y-120073090D01*
X164580714Y-120111185D01*
X164561666Y-120187375D01*
X164561666Y-120244518D01*
X164580714Y-120320709D01*
X164599761Y-120358804D01*
X164637857Y-120396899D01*
X164695000Y-120415947D01*
X164790238Y-120415947D01*
D10*
G04 #@! TO.C,C7*
X164151666Y-105322142D02*
X164199285Y-105369761D01*
X164342142Y-105417380D01*
X164437380Y-105417380D01*
X164580238Y-105369761D01*
X164675476Y-105274523D01*
X164723095Y-105179285D01*
X164770714Y-104988809D01*
X164770714Y-104845952D01*
X164723095Y-104655476D01*
X164675476Y-104560238D01*
X164580238Y-104465000D01*
X164437380Y-104417380D01*
X164342142Y-104417380D01*
X164199285Y-104465000D01*
X164151666Y-104512619D01*
X163818333Y-104417380D02*
X163151666Y-104417380D01*
X163580238Y-105417380D01*
G04 #@! TO.C,D_5*
X172109464Y-93895892D02*
X172859464Y-93895892D01*
X172859464Y-93717321D01*
X172823750Y-93610178D01*
X172752321Y-93538750D01*
X172680892Y-93503035D01*
X172538035Y-93467321D01*
X172430892Y-93467321D01*
X172288035Y-93503035D01*
X172216607Y-93538750D01*
X172145178Y-93610178D01*
X172109464Y-93717321D01*
X172109464Y-93895892D01*
X172038035Y-93324464D02*
X172038035Y-92753035D01*
X172859464Y-92217321D02*
X172859464Y-92574464D01*
X172502321Y-92610178D01*
X172538035Y-92574464D01*
X172573750Y-92503035D01*
X172573750Y-92324464D01*
X172538035Y-92253035D01*
X172502321Y-92217321D01*
X172430892Y-92181607D01*
X172252321Y-92181607D01*
X172180892Y-92217321D01*
X172145178Y-92253035D01*
X172109464Y-92324464D01*
X172109464Y-92503035D01*
X172145178Y-92574464D01*
X172180892Y-92610178D01*
D13*
X170634523Y-89829285D02*
X171015476Y-89829285D01*
X170825000Y-89638809D02*
X170825000Y-90019761D01*
X170662142Y-95261190D02*
X170947857Y-95261190D01*
X170805000Y-95261190D02*
X170805000Y-94761190D01*
X170852619Y-94832619D01*
X170900238Y-94880238D01*
X170947857Y-94904047D01*
D10*
G04 #@! TO.C,LED14*
X188401428Y-116804280D02*
X188758571Y-116804280D01*
X188758571Y-116054280D01*
X188151428Y-116411423D02*
X187901428Y-116411423D01*
X187794285Y-116804280D02*
X188151428Y-116804280D01*
X188151428Y-116054280D01*
X187794285Y-116054280D01*
X187472857Y-116804280D02*
X187472857Y-116054280D01*
X187294285Y-116054280D01*
X187187142Y-116089995D01*
X187115714Y-116161423D01*
X187080000Y-116232852D01*
X187044285Y-116375709D01*
X187044285Y-116482852D01*
X187080000Y-116625709D01*
X187115714Y-116697137D01*
X187187142Y-116768566D01*
X187294285Y-116804280D01*
X187472857Y-116804280D01*
X186330000Y-116804280D02*
X186758571Y-116804280D01*
X186544285Y-116804280D02*
X186544285Y-116054280D01*
X186615714Y-116161423D01*
X186687142Y-116232852D01*
X186758571Y-116268566D01*
X185687142Y-116304280D02*
X185687142Y-116804280D01*
X185865714Y-116018566D02*
X186044285Y-116554280D01*
X185580000Y-116554280D01*
D11*
X184302142Y-117231185D02*
X184587857Y-117231185D01*
X184445000Y-117231185D02*
X184445000Y-116731185D01*
X184492619Y-116802614D01*
X184540238Y-116850233D01*
X184587857Y-116874042D01*
D13*
X189999761Y-120034995D02*
X190037857Y-120015947D01*
X190095000Y-120015947D01*
X190152142Y-120034995D01*
X190190238Y-120073090D01*
X190209285Y-120111185D01*
X190228333Y-120187375D01*
X190228333Y-120244518D01*
X190209285Y-120320709D01*
X190190238Y-120358804D01*
X190152142Y-120396899D01*
X190095000Y-120415947D01*
X190056904Y-120415947D01*
X189999761Y-120396899D01*
X189980714Y-120377852D01*
X189980714Y-120244518D01*
X190056904Y-120244518D01*
X189809285Y-120415947D02*
X189809285Y-120015947D01*
X189580714Y-120415947D01*
X189580714Y-120015947D01*
X189390238Y-120415947D02*
X189390238Y-120015947D01*
X189295000Y-120015947D01*
X189237857Y-120034995D01*
X189199761Y-120073090D01*
X189180714Y-120111185D01*
X189161666Y-120187375D01*
X189161666Y-120244518D01*
X189180714Y-120320709D01*
X189199761Y-120358804D01*
X189237857Y-120396899D01*
X189295000Y-120415947D01*
X189390238Y-120415947D01*
D10*
G04 #@! TO.C,D_9*
X73759464Y-115920892D02*
X74509464Y-115920892D01*
X74509464Y-115742321D01*
X74473750Y-115635178D01*
X74402321Y-115563750D01*
X74330892Y-115528035D01*
X74188035Y-115492321D01*
X74080892Y-115492321D01*
X73938035Y-115528035D01*
X73866607Y-115563750D01*
X73795178Y-115635178D01*
X73759464Y-115742321D01*
X73759464Y-115920892D01*
X73688035Y-115349464D02*
X73688035Y-114778035D01*
X73759464Y-114563750D02*
X73759464Y-114420892D01*
X73795178Y-114349464D01*
X73830892Y-114313750D01*
X73938035Y-114242321D01*
X74080892Y-114206607D01*
X74366607Y-114206607D01*
X74438035Y-114242321D01*
X74473750Y-114278035D01*
X74509464Y-114349464D01*
X74509464Y-114492321D01*
X74473750Y-114563750D01*
X74438035Y-114599464D01*
X74366607Y-114635178D01*
X74188035Y-114635178D01*
X74116607Y-114599464D01*
X74080892Y-114563750D01*
X74045178Y-114492321D01*
X74045178Y-114349464D01*
X74080892Y-114278035D01*
X74116607Y-114242321D01*
X74188035Y-114206607D01*
D13*
X72284523Y-111854285D02*
X72665476Y-111854285D01*
X72475000Y-111663809D02*
X72475000Y-112044761D01*
X72312142Y-117286190D02*
X72597857Y-117286190D01*
X72455000Y-117286190D02*
X72455000Y-116786190D01*
X72502619Y-116857619D01*
X72550238Y-116905238D01*
X72597857Y-116929047D01*
D10*
G04 #@! TO.C,LED6*
X188044285Y-94804285D02*
X188401428Y-94804285D01*
X188401428Y-94054285D01*
X187794285Y-94411428D02*
X187544285Y-94411428D01*
X187437142Y-94804285D02*
X187794285Y-94804285D01*
X187794285Y-94054285D01*
X187437142Y-94054285D01*
X187115714Y-94804285D02*
X187115714Y-94054285D01*
X186937142Y-94054285D01*
X186830000Y-94090000D01*
X186758571Y-94161428D01*
X186722857Y-94232857D01*
X186687142Y-94375714D01*
X186687142Y-94482857D01*
X186722857Y-94625714D01*
X186758571Y-94697142D01*
X186830000Y-94768571D01*
X186937142Y-94804285D01*
X187115714Y-94804285D01*
X186044285Y-94054285D02*
X186187142Y-94054285D01*
X186258571Y-94090000D01*
X186294285Y-94125714D01*
X186365714Y-94232857D01*
X186401428Y-94375714D01*
X186401428Y-94661428D01*
X186365714Y-94732857D01*
X186330000Y-94768571D01*
X186258571Y-94804285D01*
X186115714Y-94804285D01*
X186044285Y-94768571D01*
X186008571Y-94732857D01*
X185972857Y-94661428D01*
X185972857Y-94482857D01*
X186008571Y-94411428D01*
X186044285Y-94375714D01*
X186115714Y-94340000D01*
X186258571Y-94340000D01*
X186330000Y-94375714D01*
X186365714Y-94411428D01*
X186401428Y-94482857D01*
D13*
X189999761Y-98035000D02*
X190037857Y-98015952D01*
X190095000Y-98015952D01*
X190152142Y-98035000D01*
X190190238Y-98073095D01*
X190209285Y-98111190D01*
X190228333Y-98187380D01*
X190228333Y-98244523D01*
X190209285Y-98320714D01*
X190190238Y-98358809D01*
X190152142Y-98396904D01*
X190095000Y-98415952D01*
X190056904Y-98415952D01*
X189999761Y-98396904D01*
X189980714Y-98377857D01*
X189980714Y-98244523D01*
X190056904Y-98244523D01*
X189809285Y-98415952D02*
X189809285Y-98015952D01*
X189580714Y-98415952D01*
X189580714Y-98015952D01*
X189390238Y-98415952D02*
X189390238Y-98015952D01*
X189295000Y-98015952D01*
X189237857Y-98035000D01*
X189199761Y-98073095D01*
X189180714Y-98111190D01*
X189161666Y-98187380D01*
X189161666Y-98244523D01*
X189180714Y-98320714D01*
X189199761Y-98358809D01*
X189237857Y-98396904D01*
X189295000Y-98415952D01*
X189390238Y-98415952D01*
D11*
X184302142Y-95231190D02*
X184587857Y-95231190D01*
X184445000Y-95231190D02*
X184445000Y-94731190D01*
X184492619Y-94802619D01*
X184540238Y-94850238D01*
X184587857Y-94874047D01*
D10*
G04 #@! TO.C,C8*
X141691666Y-101142142D02*
X141739285Y-101189761D01*
X141882142Y-101237380D01*
X141977380Y-101237380D01*
X142120238Y-101189761D01*
X142215476Y-101094523D01*
X142263095Y-100999285D01*
X142310714Y-100808809D01*
X142310714Y-100665952D01*
X142263095Y-100475476D01*
X142215476Y-100380238D01*
X142120238Y-100285000D01*
X141977380Y-100237380D01*
X141882142Y-100237380D01*
X141739285Y-100285000D01*
X141691666Y-100332619D01*
X141120238Y-100665952D02*
X141215476Y-100618333D01*
X141263095Y-100570714D01*
X141310714Y-100475476D01*
X141310714Y-100427857D01*
X141263095Y-100332619D01*
X141215476Y-100285000D01*
X141120238Y-100237380D01*
X140929761Y-100237380D01*
X140834523Y-100285000D01*
X140786904Y-100332619D01*
X140739285Y-100427857D01*
X140739285Y-100475476D01*
X140786904Y-100570714D01*
X140834523Y-100618333D01*
X140929761Y-100665952D01*
X141120238Y-100665952D01*
X141215476Y-100713571D01*
X141263095Y-100761190D01*
X141310714Y-100856428D01*
X141310714Y-101046904D01*
X141263095Y-101142142D01*
X141215476Y-101189761D01*
X141120238Y-101237380D01*
X140929761Y-101237380D01*
X140834523Y-101189761D01*
X140786904Y-101142142D01*
X140739285Y-101046904D01*
X140739285Y-100856428D01*
X140786904Y-100761190D01*
X140834523Y-100713571D01*
X140929761Y-100665952D01*
G04 #@! TO.C,C3*
X152842142Y-91788333D02*
X152889761Y-91740714D01*
X152937380Y-91597857D01*
X152937380Y-91502619D01*
X152889761Y-91359761D01*
X152794523Y-91264523D01*
X152699285Y-91216904D01*
X152508809Y-91169285D01*
X152365952Y-91169285D01*
X152175476Y-91216904D01*
X152080238Y-91264523D01*
X151985000Y-91359761D01*
X151937380Y-91502619D01*
X151937380Y-91597857D01*
X151985000Y-91740714D01*
X152032619Y-91788333D01*
X151937380Y-92121666D02*
X151937380Y-92740714D01*
X152318333Y-92407380D01*
X152318333Y-92550238D01*
X152365952Y-92645476D01*
X152413571Y-92693095D01*
X152508809Y-92740714D01*
X152746904Y-92740714D01*
X152842142Y-92693095D01*
X152889761Y-92645476D01*
X152937380Y-92550238D01*
X152937380Y-92264523D01*
X152889761Y-92169285D01*
X152842142Y-92121666D01*
G04 #@! TO.C,C19*
X82992142Y-117997142D02*
X83039761Y-117949523D01*
X83087380Y-117806666D01*
X83087380Y-117711428D01*
X83039761Y-117568571D01*
X82944523Y-117473333D01*
X82849285Y-117425714D01*
X82658809Y-117378095D01*
X82515952Y-117378095D01*
X82325476Y-117425714D01*
X82230238Y-117473333D01*
X82135000Y-117568571D01*
X82087380Y-117711428D01*
X82087380Y-117806666D01*
X82135000Y-117949523D01*
X82182619Y-117997142D01*
X83087380Y-118949523D02*
X83087380Y-118378095D01*
X83087380Y-118663809D02*
X82087380Y-118663809D01*
X82230238Y-118568571D01*
X82325476Y-118473333D01*
X82373095Y-118378095D01*
X83087380Y-119425714D02*
X83087380Y-119616190D01*
X83039761Y-119711428D01*
X82992142Y-119759047D01*
X82849285Y-119854285D01*
X82658809Y-119901904D01*
X82277857Y-119901904D01*
X82182619Y-119854285D01*
X82135000Y-119806666D01*
X82087380Y-119711428D01*
X82087380Y-119520952D01*
X82135000Y-119425714D01*
X82182619Y-119378095D01*
X82277857Y-119330476D01*
X82515952Y-119330476D01*
X82611190Y-119378095D01*
X82658809Y-119425714D01*
X82706428Y-119520952D01*
X82706428Y-119711428D01*
X82658809Y-119806666D01*
X82611190Y-119854285D01*
X82515952Y-119901904D01*
G04 #@! TO.C,D_8*
X245919464Y-93895892D02*
X246669464Y-93895892D01*
X246669464Y-93717321D01*
X246633750Y-93610178D01*
X246562321Y-93538750D01*
X246490892Y-93503035D01*
X246348035Y-93467321D01*
X246240892Y-93467321D01*
X246098035Y-93503035D01*
X246026607Y-93538750D01*
X245955178Y-93610178D01*
X245919464Y-93717321D01*
X245919464Y-93895892D01*
X245848035Y-93324464D02*
X245848035Y-92753035D01*
X246348035Y-92467321D02*
X246383750Y-92538750D01*
X246419464Y-92574464D01*
X246490892Y-92610178D01*
X246526607Y-92610178D01*
X246598035Y-92574464D01*
X246633750Y-92538750D01*
X246669464Y-92467321D01*
X246669464Y-92324464D01*
X246633750Y-92253035D01*
X246598035Y-92217321D01*
X246526607Y-92181607D01*
X246490892Y-92181607D01*
X246419464Y-92217321D01*
X246383750Y-92253035D01*
X246348035Y-92324464D01*
X246348035Y-92467321D01*
X246312321Y-92538750D01*
X246276607Y-92574464D01*
X246205178Y-92610178D01*
X246062321Y-92610178D01*
X245990892Y-92574464D01*
X245955178Y-92538750D01*
X245919464Y-92467321D01*
X245919464Y-92324464D01*
X245955178Y-92253035D01*
X245990892Y-92217321D01*
X246062321Y-92181607D01*
X246205178Y-92181607D01*
X246276607Y-92217321D01*
X246312321Y-92253035D01*
X246348035Y-92324464D01*
D13*
X244444523Y-89829285D02*
X244825476Y-89829285D01*
X244635000Y-89638809D02*
X244635000Y-90019761D01*
X244472142Y-95261190D02*
X244757857Y-95261190D01*
X244615000Y-95261190D02*
X244615000Y-94761190D01*
X244662619Y-94832619D01*
X244710238Y-94880238D01*
X244757857Y-94904047D01*
D10*
G04 #@! TO.C,C24*
X205932142Y-117957142D02*
X205979761Y-117909523D01*
X206027380Y-117766666D01*
X206027380Y-117671428D01*
X205979761Y-117528571D01*
X205884523Y-117433333D01*
X205789285Y-117385714D01*
X205598809Y-117338095D01*
X205455952Y-117338095D01*
X205265476Y-117385714D01*
X205170238Y-117433333D01*
X205075000Y-117528571D01*
X205027380Y-117671428D01*
X205027380Y-117766666D01*
X205075000Y-117909523D01*
X205122619Y-117957142D01*
X205122619Y-118338095D02*
X205075000Y-118385714D01*
X205027380Y-118480952D01*
X205027380Y-118719047D01*
X205075000Y-118814285D01*
X205122619Y-118861904D01*
X205217857Y-118909523D01*
X205313095Y-118909523D01*
X205455952Y-118861904D01*
X206027380Y-118290476D01*
X206027380Y-118909523D01*
X205360714Y-119766666D02*
X206027380Y-119766666D01*
X204979761Y-119528571D02*
X205694047Y-119290476D01*
X205694047Y-119909523D01*
G04 #@! TO.C,C6*
X144201666Y-97852142D02*
X144249285Y-97899761D01*
X144392142Y-97947380D01*
X144487380Y-97947380D01*
X144630238Y-97899761D01*
X144725476Y-97804523D01*
X144773095Y-97709285D01*
X144820714Y-97518809D01*
X144820714Y-97375952D01*
X144773095Y-97185476D01*
X144725476Y-97090238D01*
X144630238Y-96995000D01*
X144487380Y-96947380D01*
X144392142Y-96947380D01*
X144249285Y-96995000D01*
X144201666Y-97042619D01*
X143344523Y-96947380D02*
X143535000Y-96947380D01*
X143630238Y-96995000D01*
X143677857Y-97042619D01*
X143773095Y-97185476D01*
X143820714Y-97375952D01*
X143820714Y-97756904D01*
X143773095Y-97852142D01*
X143725476Y-97899761D01*
X143630238Y-97947380D01*
X143439761Y-97947380D01*
X143344523Y-97899761D01*
X143296904Y-97852142D01*
X143249285Y-97756904D01*
X143249285Y-97518809D01*
X143296904Y-97423571D01*
X143344523Y-97375952D01*
X143439761Y-97328333D01*
X143630238Y-97328333D01*
X143725476Y-97375952D01*
X143773095Y-97423571D01*
X143820714Y-97518809D01*
G04 #@! TO.C,SW1*
X176048333Y-103319761D02*
X175905476Y-103367380D01*
X175667380Y-103367380D01*
X175572142Y-103319761D01*
X175524523Y-103272142D01*
X175476904Y-103176904D01*
X175476904Y-103081666D01*
X175524523Y-102986428D01*
X175572142Y-102938809D01*
X175667380Y-102891190D01*
X175857857Y-102843571D01*
X175953095Y-102795952D01*
X176000714Y-102748333D01*
X176048333Y-102653095D01*
X176048333Y-102557857D01*
X176000714Y-102462619D01*
X175953095Y-102415000D01*
X175857857Y-102367380D01*
X175619761Y-102367380D01*
X175476904Y-102415000D01*
X175143571Y-102367380D02*
X174905476Y-103367380D01*
X174715000Y-102653095D01*
X174524523Y-103367380D01*
X174286428Y-102367380D01*
X173381666Y-103367380D02*
X173953095Y-103367380D01*
X173667380Y-103367380D02*
X173667380Y-102367380D01*
X173762619Y-102510238D01*
X173857857Y-102605476D01*
X173953095Y-102653095D01*
G04 #@! TO.C,R4*
X149297380Y-91778333D02*
X148821190Y-91445000D01*
X149297380Y-91206904D02*
X148297380Y-91206904D01*
X148297380Y-91587857D01*
X148345000Y-91683095D01*
X148392619Y-91730714D01*
X148487857Y-91778333D01*
X148630714Y-91778333D01*
X148725952Y-91730714D01*
X148773571Y-91683095D01*
X148821190Y-91587857D01*
X148821190Y-91206904D01*
X148630714Y-92635476D02*
X149297380Y-92635476D01*
X148249761Y-92397380D02*
X148964047Y-92159285D01*
X148964047Y-92778333D01*
G04 #@! TO.C,LED10*
X90001428Y-116804280D02*
X90358571Y-116804280D01*
X90358571Y-116054280D01*
X89751428Y-116411423D02*
X89501428Y-116411423D01*
X89394285Y-116804280D02*
X89751428Y-116804280D01*
X89751428Y-116054280D01*
X89394285Y-116054280D01*
X89072857Y-116804280D02*
X89072857Y-116054280D01*
X88894285Y-116054280D01*
X88787142Y-116089995D01*
X88715714Y-116161423D01*
X88680000Y-116232852D01*
X88644285Y-116375709D01*
X88644285Y-116482852D01*
X88680000Y-116625709D01*
X88715714Y-116697137D01*
X88787142Y-116768566D01*
X88894285Y-116804280D01*
X89072857Y-116804280D01*
X87930000Y-116804280D02*
X88358571Y-116804280D01*
X88144285Y-116804280D02*
X88144285Y-116054280D01*
X88215714Y-116161423D01*
X88287142Y-116232852D01*
X88358571Y-116268566D01*
X87465714Y-116054280D02*
X87394285Y-116054280D01*
X87322857Y-116089995D01*
X87287142Y-116125709D01*
X87251428Y-116197137D01*
X87215714Y-116339995D01*
X87215714Y-116518566D01*
X87251428Y-116661423D01*
X87287142Y-116732852D01*
X87322857Y-116768566D01*
X87394285Y-116804280D01*
X87465714Y-116804280D01*
X87537142Y-116768566D01*
X87572857Y-116732852D01*
X87608571Y-116661423D01*
X87644285Y-116518566D01*
X87644285Y-116339995D01*
X87608571Y-116197137D01*
X87572857Y-116125709D01*
X87537142Y-116089995D01*
X87465714Y-116054280D01*
D11*
X85902142Y-117231185D02*
X86187857Y-117231185D01*
X86045000Y-117231185D02*
X86045000Y-116731185D01*
X86092619Y-116802614D01*
X86140238Y-116850233D01*
X86187857Y-116874042D01*
D13*
X91599761Y-120034995D02*
X91637857Y-120015947D01*
X91695000Y-120015947D01*
X91752142Y-120034995D01*
X91790238Y-120073090D01*
X91809285Y-120111185D01*
X91828333Y-120187375D01*
X91828333Y-120244518D01*
X91809285Y-120320709D01*
X91790238Y-120358804D01*
X91752142Y-120396899D01*
X91695000Y-120415947D01*
X91656904Y-120415947D01*
X91599761Y-120396899D01*
X91580714Y-120377852D01*
X91580714Y-120244518D01*
X91656904Y-120244518D01*
X91409285Y-120415947D02*
X91409285Y-120015947D01*
X91180714Y-120415947D01*
X91180714Y-120015947D01*
X90990238Y-120415947D02*
X90990238Y-120015947D01*
X90895000Y-120015947D01*
X90837857Y-120034995D01*
X90799761Y-120073090D01*
X90780714Y-120111185D01*
X90761666Y-120187375D01*
X90761666Y-120244518D01*
X90780714Y-120320709D01*
X90799761Y-120358804D01*
X90837857Y-120396899D01*
X90895000Y-120415947D01*
X90990238Y-120415947D01*
D10*
G04 #@! TO.C,D_6*
X192495714Y-94459642D02*
X193245714Y-94459642D01*
X193245714Y-94281071D01*
X193210000Y-94173928D01*
X193138571Y-94102500D01*
X193067142Y-94066785D01*
X192924285Y-94031071D01*
X192817142Y-94031071D01*
X192674285Y-94066785D01*
X192602857Y-94102500D01*
X192531428Y-94173928D01*
X192495714Y-94281071D01*
X192495714Y-94459642D01*
X192424285Y-93888214D02*
X192424285Y-93316785D01*
X193245714Y-92816785D02*
X193245714Y-92959642D01*
X193210000Y-93031071D01*
X193174285Y-93066785D01*
X193067142Y-93138214D01*
X192924285Y-93173928D01*
X192638571Y-93173928D01*
X192567142Y-93138214D01*
X192531428Y-93102500D01*
X192495714Y-93031071D01*
X192495714Y-92888214D01*
X192531428Y-92816785D01*
X192567142Y-92781071D01*
X192638571Y-92745357D01*
X192817142Y-92745357D01*
X192888571Y-92781071D01*
X192924285Y-92816785D01*
X192960000Y-92888214D01*
X192960000Y-93031071D01*
X192924285Y-93102500D01*
X192888571Y-93138214D01*
X192817142Y-93173928D01*
D13*
X194524523Y-89829285D02*
X194905476Y-89829285D01*
X194715000Y-89638809D02*
X194715000Y-90019761D01*
X194552142Y-95261190D02*
X194837857Y-95261190D01*
X194695000Y-95261190D02*
X194695000Y-94761190D01*
X194742619Y-94832619D01*
X194790238Y-94880238D01*
X194837857Y-94904047D01*
D10*
G04 #@! TO.C,C11*
X83082142Y-95977142D02*
X83129761Y-95929523D01*
X83177380Y-95786666D01*
X83177380Y-95691428D01*
X83129761Y-95548571D01*
X83034523Y-95453333D01*
X82939285Y-95405714D01*
X82748809Y-95358095D01*
X82605952Y-95358095D01*
X82415476Y-95405714D01*
X82320238Y-95453333D01*
X82225000Y-95548571D01*
X82177380Y-95691428D01*
X82177380Y-95786666D01*
X82225000Y-95929523D01*
X82272619Y-95977142D01*
X83177380Y-96929523D02*
X83177380Y-96358095D01*
X83177380Y-96643809D02*
X82177380Y-96643809D01*
X82320238Y-96548571D01*
X82415476Y-96453333D01*
X82463095Y-96358095D01*
X83177380Y-97881904D02*
X83177380Y-97310476D01*
X83177380Y-97596190D02*
X82177380Y-97596190D01*
X82320238Y-97500952D01*
X82415476Y-97405714D01*
X82463095Y-97310476D01*
G04 #@! TO.C,C5*
X145462142Y-107768333D02*
X145509761Y-107720714D01*
X145557380Y-107577857D01*
X145557380Y-107482619D01*
X145509761Y-107339761D01*
X145414523Y-107244523D01*
X145319285Y-107196904D01*
X145128809Y-107149285D01*
X144985952Y-107149285D01*
X144795476Y-107196904D01*
X144700238Y-107244523D01*
X144605000Y-107339761D01*
X144557380Y-107482619D01*
X144557380Y-107577857D01*
X144605000Y-107720714D01*
X144652619Y-107768333D01*
X144557380Y-108673095D02*
X144557380Y-108196904D01*
X145033571Y-108149285D01*
X144985952Y-108196904D01*
X144938333Y-108292142D01*
X144938333Y-108530238D01*
X144985952Y-108625476D01*
X145033571Y-108673095D01*
X145128809Y-108720714D01*
X145366904Y-108720714D01*
X145462142Y-108673095D01*
X145509761Y-108625476D01*
X145557380Y-108530238D01*
X145557380Y-108292142D01*
X145509761Y-108196904D01*
X145462142Y-108149285D01*
G04 #@! TO.C,C23*
X181552142Y-117997142D02*
X181599761Y-117949523D01*
X181647380Y-117806666D01*
X181647380Y-117711428D01*
X181599761Y-117568571D01*
X181504523Y-117473333D01*
X181409285Y-117425714D01*
X181218809Y-117378095D01*
X181075952Y-117378095D01*
X180885476Y-117425714D01*
X180790238Y-117473333D01*
X180695000Y-117568571D01*
X180647380Y-117711428D01*
X180647380Y-117806666D01*
X180695000Y-117949523D01*
X180742619Y-117997142D01*
X180742619Y-118378095D02*
X180695000Y-118425714D01*
X180647380Y-118520952D01*
X180647380Y-118759047D01*
X180695000Y-118854285D01*
X180742619Y-118901904D01*
X180837857Y-118949523D01*
X180933095Y-118949523D01*
X181075952Y-118901904D01*
X181647380Y-118330476D01*
X181647380Y-118949523D01*
X180647380Y-119282857D02*
X180647380Y-119901904D01*
X181028333Y-119568571D01*
X181028333Y-119711428D01*
X181075952Y-119806666D01*
X181123571Y-119854285D01*
X181218809Y-119901904D01*
X181456904Y-119901904D01*
X181552142Y-119854285D01*
X181599761Y-119806666D01*
X181647380Y-119711428D01*
X181647380Y-119425714D01*
X181599761Y-119330476D01*
X181552142Y-119282857D01*
G04 #@! TO.C,C22*
X156952142Y-117977142D02*
X156999761Y-117929523D01*
X157047380Y-117786666D01*
X157047380Y-117691428D01*
X156999761Y-117548571D01*
X156904523Y-117453333D01*
X156809285Y-117405714D01*
X156618809Y-117358095D01*
X156475952Y-117358095D01*
X156285476Y-117405714D01*
X156190238Y-117453333D01*
X156095000Y-117548571D01*
X156047380Y-117691428D01*
X156047380Y-117786666D01*
X156095000Y-117929523D01*
X156142619Y-117977142D01*
X156142619Y-118358095D02*
X156095000Y-118405714D01*
X156047380Y-118500952D01*
X156047380Y-118739047D01*
X156095000Y-118834285D01*
X156142619Y-118881904D01*
X156237857Y-118929523D01*
X156333095Y-118929523D01*
X156475952Y-118881904D01*
X157047380Y-118310476D01*
X157047380Y-118929523D01*
X156142619Y-119310476D02*
X156095000Y-119358095D01*
X156047380Y-119453333D01*
X156047380Y-119691428D01*
X156095000Y-119786666D01*
X156142619Y-119834285D01*
X156237857Y-119881904D01*
X156333095Y-119881904D01*
X156475952Y-119834285D01*
X157047380Y-119262857D01*
X157047380Y-119881904D01*
G04 #@! TO.C,U1*
X154697380Y-101723095D02*
X155506904Y-101723095D01*
X155602142Y-101770714D01*
X155649761Y-101818333D01*
X155697380Y-101913571D01*
X155697380Y-102104047D01*
X155649761Y-102199285D01*
X155602142Y-102246904D01*
X155506904Y-102294523D01*
X154697380Y-102294523D01*
X155697380Y-103294523D02*
X155697380Y-102723095D01*
X155697380Y-103008809D02*
X154697380Y-103008809D01*
X154840238Y-102913571D01*
X154935476Y-102818333D01*
X154983095Y-102723095D01*
X145848571Y-102830000D02*
X145491428Y-102830000D01*
X145920000Y-103044285D02*
X145670000Y-102294285D01*
X145420000Y-103044285D01*
X145277142Y-102294285D02*
X144848571Y-102294285D01*
X145062857Y-103044285D02*
X145062857Y-102294285D01*
X144598571Y-103044285D02*
X144598571Y-102294285D01*
X144348571Y-102830000D01*
X144098571Y-102294285D01*
X144098571Y-103044285D01*
X143741428Y-102651428D02*
X143491428Y-102651428D01*
X143384285Y-103044285D02*
X143741428Y-103044285D01*
X143741428Y-102294285D01*
X143384285Y-102294285D01*
X142670000Y-102330000D02*
X142741428Y-102294285D01*
X142848571Y-102294285D01*
X142955714Y-102330000D01*
X143027142Y-102401428D01*
X143062857Y-102472857D01*
X143098571Y-102615714D01*
X143098571Y-102722857D01*
X143062857Y-102865714D01*
X143027142Y-102937142D01*
X142955714Y-103008571D01*
X142848571Y-103044285D01*
X142777142Y-103044285D01*
X142670000Y-103008571D01*
X142634285Y-102972857D01*
X142634285Y-102722857D01*
X142777142Y-102722857D01*
X142348571Y-102830000D02*
X141991428Y-102830000D01*
X142420000Y-103044285D02*
X142170000Y-102294285D01*
X141920000Y-103044285D01*
X141741428Y-102294285D02*
X141277142Y-102294285D01*
X141527142Y-102580000D01*
X141420000Y-102580000D01*
X141348571Y-102615714D01*
X141312857Y-102651428D01*
X141277142Y-102722857D01*
X141277142Y-102901428D01*
X141312857Y-102972857D01*
X141348571Y-103008571D01*
X141420000Y-103044285D01*
X141634285Y-103044285D01*
X141705714Y-103008571D01*
X141741428Y-102972857D01*
X140991428Y-102365714D02*
X140955714Y-102330000D01*
X140884285Y-102294285D01*
X140705714Y-102294285D01*
X140634285Y-102330000D01*
X140598571Y-102365714D01*
X140562857Y-102437142D01*
X140562857Y-102508571D01*
X140598571Y-102615714D01*
X141027142Y-103044285D01*
X140562857Y-103044285D01*
X140241428Y-102294285D02*
X140241428Y-102901428D01*
X140205714Y-102972857D01*
X140170000Y-103008571D01*
X140098571Y-103044285D01*
X139955714Y-103044285D01*
X139884285Y-103008571D01*
X139848571Y-102972857D01*
X139812857Y-102901428D01*
X139812857Y-102294285D01*
X139134285Y-102544285D02*
X139134285Y-103044285D01*
X139312857Y-102258571D02*
X139491428Y-102794285D01*
X139027142Y-102794285D01*
X138741428Y-102758571D02*
X138170000Y-102758571D01*
X137812857Y-103044285D02*
X137812857Y-102294285D01*
X137562857Y-102830000D01*
X137312857Y-102294285D01*
X137312857Y-103044285D01*
X136955714Y-102294285D02*
X136955714Y-102901428D01*
X136920000Y-102972857D01*
X136884285Y-103008571D01*
X136812857Y-103044285D01*
X136670000Y-103044285D01*
X136598571Y-103008571D01*
X136562857Y-102972857D01*
X136527142Y-102901428D01*
X136527142Y-102294285D01*
X135741428Y-103044285D02*
X135991428Y-102687142D01*
X136170000Y-103044285D02*
X136170000Y-102294285D01*
X135884285Y-102294285D01*
X135812857Y-102330000D01*
X135777142Y-102365714D01*
X135741428Y-102437142D01*
X135741428Y-102544285D01*
X135777142Y-102615714D01*
X135812857Y-102651428D01*
X135884285Y-102687142D01*
X136170000Y-102687142D01*
G04 #@! TO.C,LED5*
X163444285Y-94804285D02*
X163801428Y-94804285D01*
X163801428Y-94054285D01*
X163194285Y-94411428D02*
X162944285Y-94411428D01*
X162837142Y-94804285D02*
X163194285Y-94804285D01*
X163194285Y-94054285D01*
X162837142Y-94054285D01*
X162515714Y-94804285D02*
X162515714Y-94054285D01*
X162337142Y-94054285D01*
X162230000Y-94090000D01*
X162158571Y-94161428D01*
X162122857Y-94232857D01*
X162087142Y-94375714D01*
X162087142Y-94482857D01*
X162122857Y-94625714D01*
X162158571Y-94697142D01*
X162230000Y-94768571D01*
X162337142Y-94804285D01*
X162515714Y-94804285D01*
X161408571Y-94054285D02*
X161765714Y-94054285D01*
X161801428Y-94411428D01*
X161765714Y-94375714D01*
X161694285Y-94340000D01*
X161515714Y-94340000D01*
X161444285Y-94375714D01*
X161408571Y-94411428D01*
X161372857Y-94482857D01*
X161372857Y-94661428D01*
X161408571Y-94732857D01*
X161444285Y-94768571D01*
X161515714Y-94804285D01*
X161694285Y-94804285D01*
X161765714Y-94768571D01*
X161801428Y-94732857D01*
D11*
X159702142Y-95231190D02*
X159987857Y-95231190D01*
X159845000Y-95231190D02*
X159845000Y-94731190D01*
X159892619Y-94802619D01*
X159940238Y-94850238D01*
X159987857Y-94874047D01*
D13*
X165399761Y-98035000D02*
X165437857Y-98015952D01*
X165495000Y-98015952D01*
X165552142Y-98035000D01*
X165590238Y-98073095D01*
X165609285Y-98111190D01*
X165628333Y-98187380D01*
X165628333Y-98244523D01*
X165609285Y-98320714D01*
X165590238Y-98358809D01*
X165552142Y-98396904D01*
X165495000Y-98415952D01*
X165456904Y-98415952D01*
X165399761Y-98396904D01*
X165380714Y-98377857D01*
X165380714Y-98244523D01*
X165456904Y-98244523D01*
X165209285Y-98415952D02*
X165209285Y-98015952D01*
X164980714Y-98415952D01*
X164980714Y-98015952D01*
X164790238Y-98415952D02*
X164790238Y-98015952D01*
X164695000Y-98015952D01*
X164637857Y-98035000D01*
X164599761Y-98073095D01*
X164580714Y-98111190D01*
X164561666Y-98187380D01*
X164561666Y-98244523D01*
X164580714Y-98320714D01*
X164599761Y-98358809D01*
X164637857Y-98396904D01*
X164695000Y-98415952D01*
X164790238Y-98415952D01*
D14*
G04 #@! TO.C,C20*
X108055000Y-118735580D02*
X108055000Y-118454420D01*
X109075000Y-118735580D02*
X109075000Y-118454420D01*
G04 #@! TO.C,LED9*
G36*
X68435000Y-120534994D02*
G01*
X67535000Y-120534994D01*
X68435000Y-119634994D01*
X68435000Y-120534994D01*
G37*
D13*
X68435000Y-120534994D02*
X67535000Y-120534994D01*
X68435000Y-119634994D01*
X68435000Y-120534994D01*
D14*
G04 #@! TO.C,C10*
X60045000Y-96755580D02*
X60045000Y-96474420D01*
X59025000Y-96755580D02*
X59025000Y-96474420D01*
G04 #@! TO.C,LED3*
G36*
X117635000Y-98534999D02*
G01*
X116735000Y-98534999D01*
X117635000Y-97634999D01*
X117635000Y-98534999D01*
G37*
D13*
X117635000Y-98534999D02*
X116735000Y-98534999D01*
X117635000Y-97634999D01*
X117635000Y-98534999D01*
D14*
G04 #@! TO.C,C1*
X164110580Y-101065000D02*
X163829420Y-101065000D01*
X164110580Y-102085000D02*
X163829420Y-102085000D01*
G04 #@! TO.C,C21*
X133785000Y-118760580D02*
X133785000Y-118479420D01*
X132765000Y-118760580D02*
X132765000Y-118479420D01*
G04 #@! TO.C,LED2*
G36*
X93035000Y-98534999D02*
G01*
X92135000Y-98534999D01*
X93035000Y-97634999D01*
X93035000Y-98534999D01*
G37*
D13*
X93035000Y-98534999D02*
X92135000Y-98534999D01*
X93035000Y-97634999D01*
X93035000Y-98534999D01*
D14*
G04 #@! TO.C,C4*
X152325580Y-107095000D02*
X152044420Y-107095000D01*
X152325580Y-108115000D02*
X152044420Y-108115000D01*
D13*
G04 #@! TO.C,ESD1*
X149385000Y-86800000D02*
X150635000Y-86800000D01*
X149335000Y-89700000D02*
X150685000Y-89700000D01*
X151135000Y-86550000D02*
X151135000Y-86550000D01*
X151135000Y-86650000D02*
X151135000Y-86650000D01*
X151135000Y-86550000D02*
G75*
G03*
X151135000Y-86650000I0J-50000D01*
G01*
X151135000Y-86650000D02*
G75*
G03*
X151135000Y-86550000I0J50000D01*
G01*
D14*
G04 #@! TO.C,C15*
X183005000Y-96755580D02*
X183005000Y-96474420D01*
X181985000Y-96755580D02*
X181985000Y-96474420D01*
G04 #@! TO.C,C12*
X109215000Y-96745580D02*
X109215000Y-96464420D01*
X108195000Y-96745580D02*
X108195000Y-96464420D01*
G04 #@! TO.C,LED16*
G36*
X240635000Y-120534994D02*
G01*
X239735000Y-120534994D01*
X240635000Y-119634994D01*
X240635000Y-120534994D01*
G37*
D13*
X240635000Y-120534994D02*
X239735000Y-120534994D01*
X240635000Y-119634994D01*
X240635000Y-120534994D01*
D14*
G04 #@! TO.C,R3*
X147807500Y-94662258D02*
X147807500Y-94187742D01*
X146762500Y-94662258D02*
X146762500Y-94187742D01*
G04 #@! TO.C,J3*
X180095000Y-81075000D02*
X180705000Y-81075000D01*
X182655000Y-83075000D02*
X180705000Y-83075000D01*
X183155000Y-79575000D02*
X183155000Y-80075000D01*
X189605000Y-79575000D02*
X189605000Y-83075000D01*
X180095000Y-82375000D02*
X180705000Y-82375000D01*
X190215000Y-81075000D02*
X189605000Y-81075000D01*
X179795000Y-83985000D02*
X179795000Y-82735000D01*
X187055000Y-79575000D02*
X187055000Y-80075000D01*
X183055000Y-79575000D02*
X183055000Y-80075000D01*
X181555000Y-83885000D02*
X181555000Y-83685000D01*
X187155000Y-79575000D02*
X187155000Y-80075000D01*
X187255000Y-80075000D02*
X187255000Y-79575000D01*
X180705000Y-79575000D02*
X189605000Y-79575000D01*
X180705000Y-83075000D02*
X180705000Y-79575000D01*
X181855000Y-83785000D02*
X181555000Y-83785000D01*
X185255000Y-80075000D02*
X185255000Y-79575000D01*
X185155000Y-79575000D02*
X185155000Y-80075000D01*
X190215000Y-78965000D02*
X190215000Y-83685000D01*
X185055000Y-79575000D02*
X185055000Y-80075000D01*
X181855000Y-83885000D02*
X181555000Y-83885000D01*
X180095000Y-78965000D02*
X190215000Y-78965000D01*
X183055000Y-80075000D02*
X183255000Y-80075000D01*
X185055000Y-80075000D02*
X185255000Y-80075000D01*
X180095000Y-83685000D02*
X180095000Y-78965000D01*
X181855000Y-83685000D02*
X181855000Y-83885000D01*
X187655000Y-83075000D02*
X187655000Y-83685000D01*
X190215000Y-83685000D02*
X180095000Y-83685000D01*
X182655000Y-83685000D02*
X182655000Y-83075000D01*
X181045000Y-83985000D02*
X179795000Y-83985000D01*
X190215000Y-82375000D02*
X189605000Y-82375000D01*
X183255000Y-80075000D02*
X183255000Y-79575000D01*
X187055000Y-80075000D02*
X187255000Y-80075000D01*
X189605000Y-83075000D02*
X187655000Y-83075000D01*
G04 #@! TO.C,LED7*
G36*
X216035000Y-98534999D02*
G01*
X215135000Y-98534999D01*
X216035000Y-97634999D01*
X216035000Y-98534999D01*
G37*
D13*
X216035000Y-98534999D02*
X215135000Y-98534999D01*
X216035000Y-97634999D01*
X216035000Y-98534999D01*
D14*
G04 #@! TO.C,J5*
X89815000Y-83685000D02*
X79695000Y-83685000D01*
X84655000Y-80075000D02*
X84855000Y-80075000D01*
X80305000Y-83075000D02*
X80305000Y-79575000D01*
X89815000Y-82375000D02*
X89205000Y-82375000D01*
X82755000Y-79575000D02*
X82755000Y-80075000D01*
X89205000Y-79575000D02*
X89205000Y-83075000D01*
X89815000Y-81075000D02*
X89205000Y-81075000D01*
X80645000Y-83985000D02*
X79395000Y-83985000D01*
X79395000Y-83985000D02*
X79395000Y-82735000D01*
X82255000Y-83685000D02*
X82255000Y-83075000D01*
X81155000Y-83885000D02*
X81155000Y-83685000D01*
X81455000Y-83885000D02*
X81155000Y-83885000D01*
X87255000Y-83075000D02*
X87255000Y-83685000D01*
X82855000Y-80075000D02*
X82855000Y-79575000D01*
X86855000Y-80075000D02*
X86855000Y-79575000D01*
X89205000Y-83075000D02*
X87255000Y-83075000D01*
X80305000Y-79575000D02*
X89205000Y-79575000D01*
X79695000Y-81075000D02*
X80305000Y-81075000D01*
X84855000Y-80075000D02*
X84855000Y-79575000D01*
X84655000Y-79575000D02*
X84655000Y-80075000D01*
X86655000Y-80075000D02*
X86855000Y-80075000D01*
X79695000Y-78965000D02*
X89815000Y-78965000D01*
X82655000Y-79575000D02*
X82655000Y-80075000D01*
X82655000Y-80075000D02*
X82855000Y-80075000D01*
X79695000Y-83685000D02*
X79695000Y-78965000D01*
X89815000Y-78965000D02*
X89815000Y-83685000D01*
X86655000Y-79575000D02*
X86655000Y-80075000D01*
X86755000Y-79575000D02*
X86755000Y-80075000D01*
X82255000Y-83075000D02*
X80305000Y-83075000D01*
X81455000Y-83685000D02*
X81455000Y-83885000D01*
X79695000Y-82375000D02*
X80305000Y-82375000D01*
X84755000Y-79575000D02*
X84755000Y-80075000D01*
X81455000Y-83785000D02*
X81155000Y-83785000D01*
G04 #@! TO.C,D_12*
X130495000Y-116170000D02*
X130775000Y-116170000D01*
X128785000Y-116120000D02*
X128785000Y-112780000D01*
X130775000Y-116170000D02*
X130775000Y-112690000D01*
X130765000Y-115150000D02*
X128785000Y-115150000D01*
X130775000Y-112690000D02*
X130525000Y-112690000D01*
X129055000Y-116120000D02*
X128785000Y-116120000D01*
X128785000Y-112780000D02*
X129055000Y-112780000D01*
G36*
X129780137Y-114969306D02*
G01*
X129380137Y-114039306D01*
X130180137Y-114039306D01*
X129780137Y-114969306D01*
G37*
D13*
X129780137Y-114969306D02*
X129380137Y-114039306D01*
X130180137Y-114039306D01*
X129780137Y-114969306D01*
G04 #@! TO.C,LED1*
G36*
X68435000Y-98534999D02*
G01*
X67535000Y-98534999D01*
X68435000Y-97634999D01*
X68435000Y-98534999D01*
G37*
X68435000Y-98534999D02*
X67535000Y-98534999D01*
X68435000Y-97634999D01*
X68435000Y-98534999D01*
D14*
G04 #@! TO.C,R2*
X143897742Y-84327500D02*
X144372258Y-84327500D01*
X143897742Y-83282500D02*
X144372258Y-83282500D01*
G04 #@! TO.C,D_7*
X220845000Y-94145000D02*
X221125000Y-94145000D01*
X221125000Y-94145000D02*
X221125000Y-90665000D01*
X221115000Y-93125000D02*
X219135000Y-93125000D01*
X221125000Y-90665000D02*
X220875000Y-90665000D01*
X219135000Y-90755000D02*
X219405000Y-90755000D01*
X219405000Y-94095000D02*
X219135000Y-94095000D01*
X219135000Y-94095000D02*
X219135000Y-90755000D01*
G36*
X220130137Y-92944306D02*
G01*
X219730137Y-92014306D01*
X220530137Y-92014306D01*
X220130137Y-92944306D01*
G37*
D13*
X220130137Y-92944306D02*
X219730137Y-92014306D01*
X220530137Y-92014306D01*
X220130137Y-92944306D01*
D14*
G04 #@! TO.C,C14*
X157425000Y-96785580D02*
X157425000Y-96504420D01*
X158445000Y-96785580D02*
X158445000Y-96504420D01*
G04 #@! TO.C,C9*
X151315000Y-94565580D02*
X151315000Y-94284420D01*
X150295000Y-94565580D02*
X150295000Y-94284420D01*
G04 #@! TO.C,LED12*
G36*
X142235000Y-120534994D02*
G01*
X141335000Y-120534994D01*
X142235000Y-119634994D01*
X142235000Y-120534994D01*
G37*
D13*
X142235000Y-120534994D02*
X141335000Y-120534994D01*
X142235000Y-119634994D01*
X142235000Y-120534994D01*
G04 #@! TO.C,LED15*
G36*
X216035000Y-120534994D02*
G01*
X215135000Y-120534994D01*
X216035000Y-119634994D01*
X216035000Y-120534994D01*
G37*
X216035000Y-120534994D02*
X215135000Y-120534994D01*
X216035000Y-119634994D01*
X216035000Y-120534994D01*
D14*
G04 #@! TO.C,D_13*
X171845000Y-115150000D02*
X169865000Y-115150000D01*
X169865000Y-112780000D02*
X170135000Y-112780000D01*
X169865000Y-116120000D02*
X169865000Y-112780000D01*
X170135000Y-116120000D02*
X169865000Y-116120000D01*
X171855000Y-112690000D02*
X171605000Y-112690000D01*
X171575000Y-116170000D02*
X171855000Y-116170000D01*
X171855000Y-116170000D02*
X171855000Y-112690000D01*
G36*
X170860137Y-114969306D02*
G01*
X170460137Y-114039306D01*
X171260137Y-114039306D01*
X170860137Y-114969306D01*
G37*
D13*
X170860137Y-114969306D02*
X170460137Y-114039306D01*
X171260137Y-114039306D01*
X170860137Y-114969306D01*
D14*
G04 #@! TO.C,C17*
X231005000Y-96775580D02*
X231005000Y-96494420D01*
X232025000Y-96775580D02*
X232025000Y-96494420D01*
G04 #@! TO.C,D_1*
X73505000Y-90665000D02*
X73255000Y-90665000D01*
X73225000Y-94145000D02*
X73505000Y-94145000D01*
X73505000Y-94145000D02*
X73505000Y-90665000D01*
X71515000Y-94095000D02*
X71515000Y-90755000D01*
X71515000Y-90755000D02*
X71785000Y-90755000D01*
X73495000Y-93125000D02*
X71515000Y-93125000D01*
X71785000Y-94095000D02*
X71515000Y-94095000D01*
G36*
X72510137Y-92944306D02*
G01*
X72110137Y-92014306D01*
X72910137Y-92014306D01*
X72510137Y-92944306D01*
G37*
D13*
X72510137Y-92944306D02*
X72110137Y-92014306D01*
X72910137Y-92014306D01*
X72510137Y-92944306D01*
D14*
G04 #@! TO.C,R1*
X170157500Y-101277742D02*
X170157500Y-101752258D01*
X169112500Y-101277742D02*
X169112500Y-101752258D01*
G04 #@! TO.C,C16*
X207475000Y-96745580D02*
X207475000Y-96464420D01*
X206455000Y-96745580D02*
X206455000Y-96464420D01*
G04 #@! TO.C,C18*
X58985000Y-118755580D02*
X58985000Y-118474420D01*
X60005000Y-118755580D02*
X60005000Y-118474420D01*
G04 #@! TO.C,J4*
X105955000Y-87435000D02*
X105955000Y-85835000D01*
X97155000Y-85835000D02*
X97155000Y-88725000D01*
X96575000Y-79615000D02*
X105255000Y-79615000D01*
X106975000Y-87435000D02*
X105955000Y-87435000D01*
X95875000Y-87435000D02*
X95875000Y-85835000D01*
X106975000Y-83185000D02*
X106975000Y-87435000D01*
X105955000Y-85835000D02*
X104675000Y-85835000D01*
X95875000Y-85835000D02*
X97155000Y-85835000D01*
X94855000Y-87435000D02*
X95875000Y-87435000D01*
X94855000Y-83185000D02*
X94855000Y-87435000D01*
G04 #@! TO.C,D_16*
X245635000Y-115150000D02*
X243655000Y-115150000D01*
X243925000Y-116120000D02*
X243655000Y-116120000D01*
X245365000Y-116170000D02*
X245645000Y-116170000D01*
X245645000Y-112690000D02*
X245395000Y-112690000D01*
X245645000Y-116170000D02*
X245645000Y-112690000D01*
X243655000Y-112780000D02*
X243925000Y-112780000D01*
X243655000Y-116120000D02*
X243655000Y-112780000D01*
G36*
X244650137Y-114969306D02*
G01*
X244250137Y-114039306D01*
X245050137Y-114039306D01*
X244650137Y-114969306D01*
G37*
D13*
X244650137Y-114969306D02*
X244250137Y-114039306D01*
X245050137Y-114039306D01*
X244650137Y-114969306D01*
D14*
G04 #@! TO.C,R5*
X69607742Y-96347500D02*
X70082258Y-96347500D01*
X69607742Y-95302500D02*
X70082258Y-95302500D01*
G04 #@! TO.C,D_10*
X98055000Y-115150000D02*
X96075000Y-115150000D01*
X96075000Y-116120000D02*
X96075000Y-112780000D01*
X98065000Y-116170000D02*
X98065000Y-112690000D01*
X96345000Y-116120000D02*
X96075000Y-116120000D01*
X98065000Y-112690000D02*
X97815000Y-112690000D01*
X96075000Y-112780000D02*
X96345000Y-112780000D01*
X97785000Y-116170000D02*
X98065000Y-116170000D01*
G36*
X97070137Y-114969306D02*
G01*
X96670137Y-114039306D01*
X97470137Y-114039306D01*
X97070137Y-114969306D01*
G37*
D13*
X97070137Y-114969306D02*
X96670137Y-114039306D01*
X97470137Y-114039306D01*
X97070137Y-114969306D01*
G04 #@! TO.C,LED4*
G36*
X142235000Y-98534999D02*
G01*
X141335000Y-98534999D01*
X142235000Y-97634999D01*
X142235000Y-98534999D01*
G37*
X142235000Y-98534999D02*
X141335000Y-98534999D01*
X142235000Y-97634999D01*
X142235000Y-98534999D01*
G04 #@! TO.C,LED8*
G36*
X240635000Y-98534999D02*
G01*
X239735000Y-98534999D01*
X240635000Y-97634999D01*
X240635000Y-98534999D01*
G37*
X240635000Y-98534999D02*
X239735000Y-98534999D01*
X240635000Y-97634999D01*
X240635000Y-98534999D01*
D14*
G04 #@! TO.C,D_4*
X130805000Y-90665000D02*
X130555000Y-90665000D01*
X129085000Y-94095000D02*
X128815000Y-94095000D01*
X130525000Y-94145000D02*
X130805000Y-94145000D01*
X128815000Y-94095000D02*
X128815000Y-90755000D01*
X128815000Y-90755000D02*
X129085000Y-90755000D01*
X130805000Y-94145000D02*
X130805000Y-90665000D01*
X130795000Y-93125000D02*
X128815000Y-93125000D01*
G36*
X129810137Y-92944306D02*
G01*
X129410137Y-92014306D01*
X130210137Y-92014306D01*
X129810137Y-92944306D01*
G37*
D13*
X129810137Y-92944306D02*
X129410137Y-92014306D01*
X130210137Y-92014306D01*
X129810137Y-92944306D01*
D14*
G04 #@! TO.C,D_14*
X196165000Y-116170000D02*
X196445000Y-116170000D01*
X196435000Y-115150000D02*
X194455000Y-115150000D01*
X196445000Y-116170000D02*
X196445000Y-112690000D01*
X194725000Y-116120000D02*
X194455000Y-116120000D01*
X194455000Y-112780000D02*
X194725000Y-112780000D01*
X194455000Y-116120000D02*
X194455000Y-112780000D01*
X196445000Y-112690000D02*
X196195000Y-112690000D01*
G36*
X195450137Y-114969306D02*
G01*
X195050137Y-114039306D01*
X195850137Y-114039306D01*
X195450137Y-114969306D01*
G37*
D13*
X195450137Y-114969306D02*
X195050137Y-114039306D01*
X195850137Y-114039306D01*
X195450137Y-114969306D01*
D14*
G04 #@! TO.C,C13*
X132695000Y-96725580D02*
X132695000Y-96444420D01*
X133715000Y-96725580D02*
X133715000Y-96444420D01*
G04 #@! TO.C,D_3*
X122655000Y-93125000D02*
X120675000Y-93125000D01*
X120675000Y-94095000D02*
X120675000Y-90755000D01*
X120945000Y-94095000D02*
X120675000Y-94095000D01*
X122385000Y-94145000D02*
X122665000Y-94145000D01*
X120675000Y-90755000D02*
X120945000Y-90755000D01*
X122665000Y-90665000D02*
X122415000Y-90665000D01*
X122665000Y-94145000D02*
X122665000Y-90665000D01*
G36*
X121670137Y-92944306D02*
G01*
X121270137Y-92014306D01*
X122070137Y-92014306D01*
X121670137Y-92944306D01*
G37*
D13*
X121670137Y-92944306D02*
X121270137Y-92014306D01*
X122070137Y-92014306D01*
X121670137Y-92944306D01*
D14*
G04 #@! TO.C,C2*
X155735000Y-106515580D02*
X155735000Y-106234420D01*
X154715000Y-106515580D02*
X154715000Y-106234420D01*
G04 #@! TO.C,J1*
X153155000Y-83790000D02*
X152105000Y-83790000D01*
X148105000Y-79320000D02*
X151985000Y-79320000D01*
X146935000Y-81290000D02*
X146935000Y-83790000D01*
X153155000Y-81290000D02*
X153155000Y-83790000D01*
X146935000Y-83790000D02*
X147985000Y-83790000D01*
X147985000Y-83790000D02*
X147985000Y-84780000D01*
G04 #@! TO.C,J2*
X204685000Y-87435000D02*
X204685000Y-85835000D01*
X195305000Y-79615000D02*
X203985000Y-79615000D01*
X195885000Y-85835000D02*
X195885000Y-88725000D01*
X193585000Y-83185000D02*
X193585000Y-87435000D01*
X194605000Y-85835000D02*
X195885000Y-85835000D01*
X193585000Y-87435000D02*
X194605000Y-87435000D01*
X204685000Y-85835000D02*
X203405000Y-85835000D01*
X205705000Y-87435000D02*
X204685000Y-87435000D01*
X194605000Y-87435000D02*
X194605000Y-85835000D01*
X205705000Y-83185000D02*
X205705000Y-87435000D01*
G04 #@! TO.C,D_11*
X122395000Y-116170000D02*
X122675000Y-116170000D01*
X120685000Y-112780000D02*
X120955000Y-112780000D01*
X120685000Y-116120000D02*
X120685000Y-112780000D01*
X122675000Y-116170000D02*
X122675000Y-112690000D01*
X122665000Y-115150000D02*
X120685000Y-115150000D01*
X120955000Y-116120000D02*
X120685000Y-116120000D01*
X122675000Y-112690000D02*
X122425000Y-112690000D01*
G36*
X121680137Y-114969306D02*
G01*
X121280137Y-114039306D01*
X122080137Y-114039306D01*
X121680137Y-114969306D01*
G37*
D13*
X121680137Y-114969306D02*
X121280137Y-114039306D01*
X122080137Y-114039306D01*
X121680137Y-114969306D01*
D14*
G04 #@! TO.C,Y1*
X162305000Y-104205000D02*
X158305000Y-104205000D01*
X162305000Y-100905000D02*
X162305000Y-104205000D01*
G04 #@! TO.C,D_2*
X97195000Y-94145000D02*
X97195000Y-90665000D01*
X97185000Y-93125000D02*
X95205000Y-93125000D01*
X97195000Y-90665000D02*
X96945000Y-90665000D01*
X95205000Y-90755000D02*
X95475000Y-90755000D01*
X96915000Y-94145000D02*
X97195000Y-94145000D01*
X95205000Y-94095000D02*
X95205000Y-90755000D01*
X95475000Y-94095000D02*
X95205000Y-94095000D01*
G36*
X96200137Y-92944306D02*
G01*
X95800137Y-92014306D01*
X96600137Y-92014306D01*
X96200137Y-92944306D01*
G37*
D13*
X96200137Y-92944306D02*
X95800137Y-92014306D01*
X96600137Y-92014306D01*
X96200137Y-92944306D01*
D14*
G04 #@! TO.C,P1*
X143315000Y-81480000D02*
X145600000Y-81480000D01*
X145600000Y-82950000D02*
X143315000Y-82950000D01*
X145600000Y-81480000D02*
X145600000Y-82950000D01*
G04 #@! TO.C,C25*
X231015000Y-118750580D02*
X231015000Y-118469420D01*
X232035000Y-118750580D02*
X232035000Y-118469420D01*
G04 #@! TO.C,D_15*
X220805000Y-116170000D02*
X221085000Y-116170000D01*
X219095000Y-112780000D02*
X219365000Y-112780000D01*
X219095000Y-116120000D02*
X219095000Y-112780000D01*
X221075000Y-115150000D02*
X219095000Y-115150000D01*
X219365000Y-116120000D02*
X219095000Y-116120000D01*
X221085000Y-116170000D02*
X221085000Y-112690000D01*
X221085000Y-112690000D02*
X220835000Y-112690000D01*
G36*
X220090137Y-114969306D02*
G01*
X219690137Y-114039306D01*
X220490137Y-114039306D01*
X220090137Y-114969306D01*
G37*
D13*
X220090137Y-114969306D02*
X219690137Y-114039306D01*
X220490137Y-114039306D01*
X220090137Y-114969306D01*
D14*
G04 #@! TO.C,R6*
X143052500Y-105192742D02*
X143052500Y-105667258D01*
X144097500Y-105192742D02*
X144097500Y-105667258D01*
G04 #@! TO.C,LED11*
G36*
X117635000Y-120534994D02*
G01*
X116735000Y-120534994D01*
X117635000Y-119634994D01*
X117635000Y-120534994D01*
G37*
D13*
X117635000Y-120534994D02*
X116735000Y-120534994D01*
X117635000Y-119634994D01*
X117635000Y-120534994D01*
G04 #@! TO.C,LED13*
G36*
X166835000Y-120534994D02*
G01*
X165935000Y-120534994D01*
X166835000Y-119634994D01*
X166835000Y-120534994D01*
G37*
X166835000Y-120534994D02*
X165935000Y-120534994D01*
X166835000Y-119634994D01*
X166835000Y-120534994D01*
D14*
G04 #@! TO.C,C7*
X164130580Y-104015000D02*
X163849420Y-104015000D01*
X164130580Y-102995000D02*
X163849420Y-102995000D01*
G04 #@! TO.C,D_5*
X171835000Y-94145000D02*
X171835000Y-90665000D01*
X171825000Y-93125000D02*
X169845000Y-93125000D01*
X169845000Y-90755000D02*
X170115000Y-90755000D01*
X171835000Y-90665000D02*
X171585000Y-90665000D01*
X170115000Y-94095000D02*
X169845000Y-94095000D01*
X169845000Y-94095000D02*
X169845000Y-90755000D01*
X171555000Y-94145000D02*
X171835000Y-94145000D01*
G36*
X170840137Y-92944306D02*
G01*
X170440137Y-92014306D01*
X171240137Y-92014306D01*
X170840137Y-92944306D01*
G37*
D13*
X170840137Y-92944306D02*
X170440137Y-92014306D01*
X171240137Y-92014306D01*
X170840137Y-92944306D01*
G04 #@! TO.C,LED14*
G36*
X191435000Y-120534994D02*
G01*
X190535000Y-120534994D01*
X191435000Y-119634994D01*
X191435000Y-120534994D01*
G37*
X191435000Y-120534994D02*
X190535000Y-120534994D01*
X191435000Y-119634994D01*
X191435000Y-120534994D01*
D14*
G04 #@! TO.C,D_9*
X71495000Y-112780000D02*
X71765000Y-112780000D01*
X71765000Y-116120000D02*
X71495000Y-116120000D01*
X73205000Y-116170000D02*
X73485000Y-116170000D01*
X73485000Y-116170000D02*
X73485000Y-112690000D01*
X71495000Y-116120000D02*
X71495000Y-112780000D01*
X73475000Y-115150000D02*
X71495000Y-115150000D01*
X73485000Y-112690000D02*
X73235000Y-112690000D01*
G36*
X72490137Y-114969306D02*
G01*
X72090137Y-114039306D01*
X72890137Y-114039306D01*
X72490137Y-114969306D01*
G37*
D13*
X72490137Y-114969306D02*
X72090137Y-114039306D01*
X72890137Y-114039306D01*
X72490137Y-114969306D01*
G04 #@! TO.C,LED6*
G36*
X191435000Y-98534999D02*
G01*
X190535000Y-98534999D01*
X191435000Y-97634999D01*
X191435000Y-98534999D01*
G37*
X191435000Y-98534999D02*
X190535000Y-98534999D01*
X191435000Y-97634999D01*
X191435000Y-98534999D01*
D14*
G04 #@! TO.C,C8*
X143849420Y-100135000D02*
X144130580Y-100135000D01*
X143849420Y-101155000D02*
X144130580Y-101155000D01*
G04 #@! TO.C,C3*
X152865000Y-94565580D02*
X152865000Y-94284420D01*
X151845000Y-94565580D02*
X151845000Y-94284420D01*
G04 #@! TO.C,C19*
X84495000Y-118755580D02*
X84495000Y-118474420D01*
X83475000Y-118755580D02*
X83475000Y-118474420D01*
G04 #@! TO.C,D_8*
X245645000Y-90665000D02*
X245395000Y-90665000D01*
X243925000Y-94095000D02*
X243655000Y-94095000D01*
X245365000Y-94145000D02*
X245645000Y-94145000D01*
X245645000Y-94145000D02*
X245645000Y-90665000D01*
X243655000Y-90755000D02*
X243925000Y-90755000D01*
X245635000Y-93125000D02*
X243655000Y-93125000D01*
X243655000Y-94095000D02*
X243655000Y-90755000D01*
G36*
X244650137Y-92944306D02*
G01*
X244250137Y-92014306D01*
X245050137Y-92014306D01*
X244650137Y-92944306D01*
G37*
D13*
X244650137Y-92944306D02*
X244250137Y-92014306D01*
X245050137Y-92014306D01*
X244650137Y-92944306D01*
D14*
G04 #@! TO.C,C24*
X207435000Y-118715580D02*
X207435000Y-118434420D01*
X206415000Y-118715580D02*
X206415000Y-118434420D01*
G04 #@! TO.C,C6*
X144130580Y-98265000D02*
X143849420Y-98265000D01*
X144130580Y-99285000D02*
X143849420Y-99285000D01*
G04 #@! TO.C,SW1*
X176345000Y-99825000D02*
X176835000Y-100315000D01*
X173445000Y-105265000D02*
X172955000Y-104775000D01*
X173445000Y-105265000D02*
X176345000Y-105265000D01*
X173445000Y-99825000D02*
X172955000Y-100315000D01*
X176345000Y-105265000D02*
X176835000Y-104775000D01*
X172175000Y-101505000D02*
X172175000Y-103585000D01*
X177615000Y-101505000D02*
X177615000Y-103585000D01*
X173445000Y-99825000D02*
X176345000Y-99825000D01*
G04 #@! TO.C,R4*
X149387500Y-94662258D02*
X149387500Y-94187742D01*
X148342500Y-94662258D02*
X148342500Y-94187742D01*
G04 #@! TO.C,LED10*
G36*
X93035000Y-120534994D02*
G01*
X92135000Y-120534994D01*
X93035000Y-119634994D01*
X93035000Y-120534994D01*
G37*
D13*
X93035000Y-120534994D02*
X92135000Y-120534994D01*
X93035000Y-119634994D01*
X93035000Y-120534994D01*
D14*
G04 #@! TO.C,D_6*
X193735000Y-94095000D02*
X193735000Y-90755000D01*
X195445000Y-94145000D02*
X195725000Y-94145000D01*
X195725000Y-90665000D02*
X195475000Y-90665000D01*
X195715000Y-93125000D02*
X193735000Y-93125000D01*
X194005000Y-94095000D02*
X193735000Y-94095000D01*
X195725000Y-94145000D02*
X195725000Y-90665000D01*
X193735000Y-90755000D02*
X194005000Y-90755000D01*
G36*
X194730137Y-92944306D02*
G01*
X194330137Y-92014306D01*
X195130137Y-92014306D01*
X194730137Y-92944306D01*
G37*
D13*
X194730137Y-92944306D02*
X194330137Y-92014306D01*
X195130137Y-92014306D01*
X194730137Y-92944306D01*
D14*
G04 #@! TO.C,C11*
X83565000Y-96735580D02*
X83565000Y-96454420D01*
X84585000Y-96735580D02*
X84585000Y-96454420D01*
G04 #@! TO.C,C5*
X145615000Y-105570580D02*
X145615000Y-105289420D01*
X144595000Y-105570580D02*
X144595000Y-105289420D01*
G04 #@! TO.C,C23*
X183055000Y-118755580D02*
X183055000Y-118474420D01*
X182035000Y-118755580D02*
X182035000Y-118474420D01*
G04 #@! TO.C,C22*
X157435000Y-118735580D02*
X157435000Y-118454420D01*
X158455000Y-118735580D02*
X158455000Y-118454420D01*
D12*
G04 #@! TO.C,U1*
X147190000Y-98699998D02*
G75*
G03*
X147190000Y-98699998I-125000J0D01*
G01*
G04 #@! TO.C,LED5*
G36*
X166835000Y-98534999D02*
G01*
X165935000Y-98534999D01*
X166835000Y-97634999D01*
X166835000Y-98534999D01*
G37*
D13*
X166835000Y-98534999D02*
X165935000Y-98534999D01*
X166835000Y-97634999D01*
X166835000Y-98534999D01*
G04 #@! TD*
M02*
