G04 #@! TF.GenerationSoftware,KiCad,Pcbnew,(6.0.7)*
G04 #@! TF.CreationDate,2023-01-14T22:54:19+05:00*
G04 #@! TF.ProjectId,2x8 Music Keyboard PCB,32783820-4d75-4736-9963-204b6579626f,1*
G04 #@! TF.SameCoordinates,Original*
G04 #@! TF.FileFunction,Profile,NP*
%FSLAX46Y46*%
G04 Gerber Fmt 4.6, Leading zero omitted, Abs format (unit mm)*
G04 Created by KiCad (PCBNEW (6.0.7)) date 2023-01-14 22:54:19*
%MOMM*%
%LPD*%
G01*
G04 APERTURE LIST*
G04 #@! TA.AperFunction,Profile*
%ADD10C,0.200000*%
G04 #@! TD*
G04 #@! TA.AperFunction,Profile*
%ADD11C,0.100000*%
G04 #@! TD*
G04 APERTURE END LIST*
D10*
X248715000Y-78775000D02*
X51915000Y-78775000D01*
X248715000Y-126375000D02*
X248715000Y-78775000D01*
X51915000Y-78775000D02*
X51915000Y-126375000D01*
X51915000Y-126375000D02*
X248715000Y-126375000D01*
D11*
G04 #@! TO.C,LED9*
X65485000Y-120124995D02*
X62455000Y-120124995D01*
X66015000Y-117124996D02*
X66015000Y-119794996D01*
X66015000Y-119794996D02*
X65485000Y-120124995D01*
X62455000Y-117124996D02*
X66015000Y-117124996D01*
X62455000Y-120124995D02*
X62455000Y-117124996D01*
G04 #@! TO.C,LED3*
X111655000Y-95125001D02*
X115215000Y-95125001D01*
X115215000Y-95125001D02*
X115215000Y-97795001D01*
X115215000Y-97795001D02*
X114685000Y-98125000D01*
X114685000Y-98125000D02*
X111655000Y-98125000D01*
X111655000Y-98125000D02*
X111655000Y-95125001D01*
G04 #@! TO.C,LED2*
X87055000Y-98125000D02*
X87055000Y-95125001D01*
X87055000Y-95125001D02*
X90615000Y-95125001D01*
X90615000Y-97795001D02*
X90085000Y-98125000D01*
X90615000Y-95125001D02*
X90615000Y-97795001D01*
X90085000Y-98125000D02*
X87055000Y-98125000D01*
G04 #@! TO.C,LED16*
X237685000Y-120124995D02*
X234655000Y-120124995D01*
X234655000Y-120124995D02*
X234655000Y-117124996D01*
X238215000Y-119794996D02*
X237685000Y-120124995D01*
X238215000Y-117124996D02*
X238215000Y-119794996D01*
X234655000Y-117124996D02*
X238215000Y-117124996D01*
G04 #@! TO.C,LED7*
X210055000Y-98125000D02*
X210055000Y-95125001D01*
X213615000Y-97795001D02*
X213085000Y-98125000D01*
X210055000Y-95125001D02*
X213615000Y-95125001D01*
X213615000Y-95125001D02*
X213615000Y-97795001D01*
X213085000Y-98125000D02*
X210055000Y-98125000D01*
G04 #@! TO.C,LED1*
X65485000Y-98125000D02*
X62455000Y-98125000D01*
X62455000Y-95125001D02*
X66015000Y-95125001D01*
X66015000Y-95125001D02*
X66015000Y-97795001D01*
X66015000Y-97795001D02*
X65485000Y-98125000D01*
X62455000Y-98125000D02*
X62455000Y-95125001D01*
G04 #@! TO.C,LED12*
X136255000Y-117124996D02*
X139815000Y-117124996D01*
X139815000Y-117124996D02*
X139815000Y-119794996D01*
X139285000Y-120124995D02*
X136255000Y-120124995D01*
X139815000Y-119794996D02*
X139285000Y-120124995D01*
X136255000Y-120124995D02*
X136255000Y-117124996D01*
G04 #@! TO.C,LED15*
X213085000Y-120124995D02*
X210055000Y-120124995D01*
X210055000Y-117124996D02*
X213615000Y-117124996D01*
X213615000Y-117124996D02*
X213615000Y-119794996D01*
X213615000Y-119794996D02*
X213085000Y-120124995D01*
X210055000Y-120124995D02*
X210055000Y-117124996D01*
G04 #@! TO.C,LED4*
X136255000Y-98125000D02*
X136255000Y-95125001D01*
X139815000Y-97795001D02*
X139285000Y-98125000D01*
X136255000Y-95125001D02*
X139815000Y-95125001D01*
X139815000Y-95125001D02*
X139815000Y-97795001D01*
X139285000Y-98125000D02*
X136255000Y-98125000D01*
G04 #@! TO.C,LED8*
X238215000Y-97795001D02*
X237685000Y-98125000D01*
X234655000Y-98125000D02*
X234655000Y-95125001D01*
X234655000Y-95125001D02*
X238215000Y-95125001D01*
X237685000Y-98125000D02*
X234655000Y-98125000D01*
X238215000Y-95125001D02*
X238215000Y-97795001D01*
G04 #@! TO.C,LED11*
X114685000Y-120124995D02*
X111655000Y-120124995D01*
X111655000Y-120124995D02*
X111655000Y-117124996D01*
X115215000Y-117124996D02*
X115215000Y-119794996D01*
X111655000Y-117124996D02*
X115215000Y-117124996D01*
X115215000Y-119794996D02*
X114685000Y-120124995D01*
G04 #@! TO.C,LED13*
X164415000Y-117124996D02*
X164415000Y-119794996D01*
X164415000Y-119794996D02*
X163885000Y-120124995D01*
X160855000Y-120124995D02*
X160855000Y-117124996D01*
X160855000Y-117124996D02*
X164415000Y-117124996D01*
X163885000Y-120124995D02*
X160855000Y-120124995D01*
G04 #@! TO.C,LED14*
X189015000Y-119794996D02*
X188485000Y-120124995D01*
X188485000Y-120124995D02*
X185455000Y-120124995D01*
X189015000Y-117124996D02*
X189015000Y-119794996D01*
X185455000Y-117124996D02*
X189015000Y-117124996D01*
X185455000Y-120124995D02*
X185455000Y-117124996D01*
G04 #@! TO.C,LED6*
X189015000Y-97795001D02*
X188485000Y-98125000D01*
X185455000Y-95125001D02*
X189015000Y-95125001D01*
X189015000Y-95125001D02*
X189015000Y-97795001D01*
X185455000Y-98125000D02*
X185455000Y-95125001D01*
X188485000Y-98125000D02*
X185455000Y-98125000D01*
G04 #@! TO.C,LED10*
X90615000Y-117124996D02*
X90615000Y-119794996D01*
X87055000Y-120124995D02*
X87055000Y-117124996D01*
X90615000Y-119794996D02*
X90085000Y-120124995D01*
X90085000Y-120124995D02*
X87055000Y-120124995D01*
X87055000Y-117124996D02*
X90615000Y-117124996D01*
G04 #@! TO.C,LED5*
X160855000Y-95125001D02*
X164415000Y-95125001D01*
X160855000Y-98125000D02*
X160855000Y-95125001D01*
X164415000Y-97795001D02*
X163885000Y-98125000D01*
X164415000Y-95125001D02*
X164415000Y-97795001D01*
X163885000Y-98125000D02*
X160855000Y-98125000D01*
G04 #@! TD*
M02*
