M48
INCH,TZ
T1C0.0689
T2C0.1102
T3C0.1570
%
G90
G05
T1
X23281Y-36053
X23281Y-44715
X27281Y-36053
X27281Y-44715
X32967Y-36053
X32967Y-44715
X36967Y-36053
X36967Y-44715
X42652Y-36053
X42652Y-44715
X46652Y-36053
X46652Y-44715
X52337Y-36053
X52337Y-44715
X56337Y-36053
X56337Y-44715
X62022Y-36053
X62022Y-44715
X66022Y-36053
X66022Y-44715
X71707Y-36053
X71707Y-44715
X75707Y-36053
X75707Y-44715
X81392Y-36053
X81392Y-44715
X85392Y-36053
X85392Y-44715
X91077Y-36053
X91077Y-44715
X95077Y-36053
X95077Y-44715
T2
X30124Y-31841
X30124Y-48967
X49494Y-31841
X49494Y-48967
X68864Y-31841
X68864Y-48967
X88234Y-31841
X88234Y-48967
T3
X25281Y-36053
X25281Y-44715
X34967Y-36053
X34967Y-44715
X44652Y-36053
X44652Y-44715
X54337Y-36053
X54337Y-44715
X64022Y-36053
X64022Y-44715
X73707Y-36053
X73707Y-44715
X83392Y-36053
X83392Y-44715
X93077Y-36053
X93077Y-44715
T0
M30
