M48
INCH,TZ
T1C0.0157
T2C0.0295
T3C0.0591
%
G90
G05
T1
X22852Y-37738
X23026Y-46994
X23037Y-38344
X23057Y-39919
X24219Y-46010
X25219Y-39868
X26352Y-39691
X26805Y-38317
X26829Y-46982
X26837Y-46388
X27065Y-41191
X27419Y-38329
X30754Y-46596
X32187Y-33785
X32707Y-46998
X32746Y-37734
X32766Y-38337
X32896Y-39667
X36514Y-46978
X36557Y-38317
X38104Y-34242
X38199Y-41364
X38549Y-35132
X39337Y-35179
X40104Y-41132
X40120Y-35222
X40939Y-35242
X41010Y-41191
X41762Y-35494
X42404Y-46998
X42482Y-38341
X43344Y-40860
X46226Y-38309
X46230Y-46967
X49093Y-41191
X49612Y-36022
X50144Y-42663
X52041Y-38341
X52100Y-47010
X53061Y-41045
X54234Y-41305
X54805Y-41427
X55167Y-39281
X55809Y-41447
X55856Y-46978
X55868Y-38073
X56069Y-39270
X57175Y-37931
X57211Y-37348
X57317Y-43337
X57348Y-38884
X57439Y-36821
X57463Y-41817
X57490Y-35136
X57620Y-38085
X58356Y-34368
X59065Y-36341
X59226Y-44537
X59604Y-42754
X59652Y-36317
X59809Y-37947
X59998Y-33077
X60219Y-42742
X61116Y-41077
X61148Y-38951
X61364Y-36793
X61396Y-37372
X61506Y-41573
X61553Y-41073
X61636Y-39797
X61809Y-46986
X61841Y-38352
X62219Y-40514
X65203Y-40762
X65230Y-39990
X65522Y-38317
X65577Y-46986
X66219Y-40289
X67100Y-41096
X68447Y-42939
X69880Y-35089
X70510Y-40758
X71478Y-38341
X71494Y-47002
X73907Y-39600
X75219Y-46978
X75246Y-38325
X75652Y-40502
X77415Y-35195
X78215Y-35187
X78234Y-42652
X78297Y-36404
X79014Y-35199
X79793Y-35207
X80407Y-47022
X80636Y-39455
X81104Y-38329
X81108Y-46990
X84904Y-38317
X84939Y-46974
X86750Y-40762
X88522Y-42750
X88797Y-36057
X89998Y-40077
X90754Y-38341
X90809Y-47002
X93730Y-41085
X94608Y-38321
X94656Y-46970
T2
X32187Y-32234
X32974Y-32234
X33762Y-32234
X34549Y-32234
X71715Y-32234
X72502Y-32234
X73289Y-32234
X74077Y-32234
T3
X23781Y-35053
X23781Y-43715
X26281Y-34053
X26281Y-42715
X33467Y-35053
X33467Y-43715
X35967Y-34053
X35967Y-42715
X43152Y-35053
X43152Y-43715
X45652Y-34053
X45652Y-42715
X52837Y-35053
X52837Y-43715
X55337Y-34053
X55337Y-42715
X62522Y-35053
X62522Y-43715
X65022Y-34053
X65022Y-42715
X72207Y-35053
X72207Y-43715
X74707Y-34053
X74707Y-42715
X81892Y-35053
X81892Y-43715
X84392Y-34053
X84392Y-42715
X91577Y-35053
X91577Y-43715
X94077Y-34053
X94077Y-42715
T0
M30
