G04 #@! TF.GenerationSoftware,KiCad,Pcbnew,(6.0.7)*
G04 #@! TF.CreationDate,2023-01-14T22:54:19+05:00*
G04 #@! TF.ProjectId,2x8 Music Keyboard PCB,32783820-4d75-4736-9963-204b6579626f,1*
G04 #@! TF.SameCoordinates,Original*
G04 #@! TF.FileFunction,Soldermask,Bot*
G04 #@! TF.FilePolarity,Negative*
%FSLAX46Y46*%
G04 Gerber Fmt 4.6, Leading zero omitted, Abs format (unit mm)*
G04 Created by KiCad (PCBNEW (6.0.7)) date 2023-01-14 22:54:19*
%MOMM*%
%LPD*%
G01*
G04 APERTURE LIST*
G04 Aperture macros list*
%AMRoundRect*
0 Rectangle with rounded corners*
0 $1 Rounding radius*
0 $2 $3 $4 $5 $6 $7 $8 $9 X,Y pos of 4 corners*
0 Add a 4 corners polygon primitive as box body*
4,1,4,$2,$3,$4,$5,$6,$7,$8,$9,$2,$3,0*
0 Add four circle primitives for the rounded corners*
1,1,$1+$1,$2,$3*
1,1,$1+$1,$4,$5*
1,1,$1+$1,$6,$7*
1,1,$1+$1,$8,$9*
0 Add four rect primitives between the rounded corners*
20,1,$1+$1,$2,$3,$4,$5,0*
20,1,$1+$1,$4,$5,$6,$7,0*
20,1,$1+$1,$6,$7,$8,$9,0*
20,1,$1+$1,$8,$9,$2,$3,0*%
%AMOutline5P*
0 Free polygon, 5 corners , with rotation*
0 The origin of the aperture is its center*
0 number of corners: always 5*
0 $1 to $10 corner X, Y*
0 $11 Rotation angle, in degrees counterclockwise*
0 create outline with 5 corners*
4,1,5,$1,$2,$3,$4,$5,$6,$7,$8,$9,$10,$1,$2,$11*%
%AMOutline6P*
0 Free polygon, 6 corners , with rotation*
0 The origin of the aperture is its center*
0 number of corners: always 6*
0 $1 to $12 corner X, Y*
0 $13 Rotation angle, in degrees counterclockwise*
0 create outline with 6 corners*
4,1,6,$1,$2,$3,$4,$5,$6,$7,$8,$9,$10,$11,$12,$1,$2,$13*%
%AMOutline7P*
0 Free polygon, 7 corners , with rotation*
0 The origin of the aperture is its center*
0 number of corners: always 7*
0 $1 to $14 corner X, Y*
0 $15 Rotation angle, in degrees counterclockwise*
0 create outline with 7 corners*
4,1,7,$1,$2,$3,$4,$5,$6,$7,$8,$9,$10,$11,$12,$13,$14,$1,$2,$15*%
%AMOutline8P*
0 Free polygon, 8 corners , with rotation*
0 The origin of the aperture is its center*
0 number of corners: always 8*
0 $1 to $16 corner X, Y*
0 $17 Rotation angle, in degrees counterclockwise*
0 create outline with 8 corners*
4,1,8,$1,$2,$3,$4,$5,$6,$7,$8,$9,$10,$11,$12,$13,$14,$15,$16,$1,$2,$17*%
G04 Aperture macros list end*
%ADD10C,3.000000*%
%ADD11C,3.987800*%
%ADD12C,1.750000*%
%ADD13C,2.275000*%
%ADD14RoundRect,0.225000X-0.250000X0.225000X-0.250000X-0.225000X0.250000X-0.225000X0.250000X0.225000X0*%
%ADD15RoundRect,0.083500X-0.656500X0.334000X-0.656500X-0.334000X0.656500X-0.334000X0.656500X0.334000X0*%
%ADD16RoundRect,0.077500X-0.677500X0.310000X-0.677500X-0.310000X0.677500X-0.310000X0.677500X0.310000X0*%
%ADD17Outline5P,-0.407500X0.725000X0.000000X0.725000X0.407500X0.317500X0.407500X-0.725000X-0.407500X-0.725000X270.000000*%
%ADD18RoundRect,0.082500X-0.647500X0.330000X-0.647500X-0.330000X0.647500X-0.330000X0.647500X0.330000X0*%
%ADD19RoundRect,0.225000X-0.225000X-0.250000X0.225000X-0.250000X0.225000X0.250000X-0.225000X0.250000X0*%
%ADD20R,0.700000X1.000000*%
%ADD21R,0.700000X0.600000*%
%ADD22RoundRect,0.200000X-0.275000X0.200000X-0.275000X-0.200000X0.275000X-0.200000X0.275000X0.200000X0*%
%ADD23RoundRect,0.250000X-0.350000X-0.625000X0.350000X-0.625000X0.350000X0.625000X-0.350000X0.625000X0*%
%ADD24O,1.200000X1.750000*%
%ADD25RoundRect,0.275000X-0.335000X0.275000X-0.335000X-0.275000X0.335000X-0.275000X0.335000X0.275000X0*%
%ADD26RoundRect,0.200000X0.200000X0.275000X-0.200000X0.275000X-0.200000X-0.275000X0.200000X-0.275000X0*%
%ADD27RoundRect,0.200000X0.275000X-0.200000X0.275000X0.200000X-0.275000X0.200000X-0.275000X-0.200000X0*%
%ADD28RoundRect,0.250000X-0.250000X-1.500000X0.250000X-1.500000X0.250000X1.500000X-0.250000X1.500000X0*%
%ADD29RoundRect,0.250001X-0.499999X-1.449999X0.499999X-1.449999X0.499999X1.449999X-0.499999X1.449999X0*%
%ADD30RoundRect,0.150000X-0.150000X-0.625000X0.150000X-0.625000X0.150000X0.625000X-0.150000X0.625000X0*%
%ADD31RoundRect,0.249999X-0.350001X-0.650001X0.350001X-0.650001X0.350001X0.650001X-0.350001X0.650001X0*%
%ADD32R,1.400000X1.200000*%
%ADD33RoundRect,0.218750X0.218750X0.256250X-0.218750X0.256250X-0.218750X-0.256250X0.218750X-0.256250X0*%
%ADD34RoundRect,0.225000X0.225000X0.250000X-0.225000X0.250000X-0.225000X-0.250000X0.225000X-0.250000X0*%
%ADD35R,1.800000X1.100000*%
%ADD36R,0.300000X0.950000*%
%ADD37R,0.950000X0.300000*%
%ADD38R,5.400000X5.400000*%
G04 APERTURE END LIST*
G04 #@! TO.C,G\u002A\u002A\u002A*
G36*
X82174488Y-106533373D02*
G01*
X82168695Y-106708001D01*
X82157924Y-106836070D01*
X82143852Y-106894089D01*
X82091621Y-106925468D01*
X82049300Y-106885501D01*
X82034705Y-106759908D01*
X82029607Y-106654945D01*
X82004295Y-106620807D01*
X81944226Y-106642965D01*
X81857910Y-106680641D01*
X81761865Y-106676390D01*
X81660488Y-106597834D01*
X81612162Y-106530653D01*
X81570509Y-106384196D01*
X81574350Y-106335426D01*
X81710425Y-106335426D01*
X81735658Y-106477065D01*
X81798754Y-106539530D01*
X81895688Y-106541909D01*
X81987424Y-106481499D01*
X82003497Y-106456764D01*
X82021869Y-106344858D01*
X81987920Y-106230011D01*
X81912237Y-106157803D01*
X81812829Y-106154822D01*
X81740167Y-106220748D01*
X81710425Y-106335426D01*
X81574350Y-106335426D01*
X81582396Y-106233249D01*
X81648793Y-106117719D01*
X81650021Y-106116629D01*
X81768736Y-106064106D01*
X81952845Y-106047712D01*
X82175036Y-106051326D01*
X82175036Y-106457115D01*
X82174488Y-106533373D01*
G37*
G36*
X79921814Y-106045522D02*
G01*
X79975045Y-106119791D01*
X80023287Y-106247005D01*
X80043753Y-106313328D01*
X80086022Y-106416742D01*
X80119293Y-106457503D01*
X80128027Y-106453815D01*
X80168420Y-106393304D01*
X80212419Y-106282088D01*
X80218104Y-106264514D01*
X80276802Y-106115872D01*
X80331528Y-106049353D01*
X80389912Y-106055205D01*
X80402108Y-106086553D01*
X80383800Y-106193987D01*
X80323823Y-106363606D01*
X80265658Y-106510046D01*
X80225154Y-106634425D01*
X80222203Y-106708572D01*
X80257103Y-106752447D01*
X80330153Y-106786013D01*
X80404785Y-106830498D01*
X80420947Y-106878409D01*
X80382223Y-106909260D01*
X80282487Y-106922113D01*
X80178321Y-106888574D01*
X80153941Y-106855982D01*
X80100540Y-106753292D01*
X80033333Y-106606114D01*
X79962807Y-106439455D01*
X79899449Y-106278321D01*
X79853743Y-106147720D01*
X79836178Y-106072658D01*
X79841942Y-106057718D01*
X79900265Y-106036508D01*
X79921814Y-106045522D01*
G37*
G36*
X81374595Y-105822779D02*
G01*
X81379542Y-105827548D01*
X81402028Y-105900656D01*
X81417863Y-106034154D01*
X81426223Y-106200309D01*
X81426283Y-106371390D01*
X81417220Y-106519663D01*
X81398209Y-106617397D01*
X81379230Y-106654129D01*
X81333047Y-106691388D01*
X81311376Y-106685368D01*
X81270640Y-106616884D01*
X81247302Y-106467493D01*
X81240209Y-106231485D01*
X81243824Y-106092598D01*
X81266665Y-105912435D01*
X81310326Y-105822279D01*
X81374595Y-105822779D01*
G37*
G36*
X81025142Y-106629825D02*
G01*
X80961585Y-106670681D01*
X80875476Y-106686064D01*
X80765656Y-106641365D01*
X80691866Y-106615763D01*
X80605011Y-106647093D01*
X80583478Y-106664381D01*
X80551561Y-106678610D01*
X80536096Y-106647984D01*
X80532883Y-106556294D01*
X80536578Y-106427397D01*
X80678167Y-106427397D01*
X80695618Y-106480053D01*
X80768646Y-106549411D01*
X80848339Y-106587165D01*
X80906600Y-106586445D01*
X80942688Y-106525651D01*
X80946867Y-106514528D01*
X80957447Y-106454675D01*
X80917616Y-106418926D01*
X80806708Y-106386068D01*
X80777180Y-106379258D01*
X80699258Y-106378421D01*
X80678167Y-106427397D01*
X80536578Y-106427397D01*
X80537726Y-106387337D01*
X80543084Y-106307643D01*
X80564497Y-106173607D01*
X80594388Y-106094979D01*
X80667568Y-106050388D01*
X80781198Y-106037064D01*
X80904997Y-106053993D01*
X81013053Y-106094501D01*
X81079450Y-106151917D01*
X81078275Y-106219568D01*
X81077566Y-106220702D01*
X81031666Y-106247210D01*
X80957667Y-106199175D01*
X80956509Y-106198135D01*
X80852570Y-106144296D01*
X80751839Y-106148813D01*
X80690415Y-106210197D01*
X80713930Y-106257784D01*
X80803481Y-106294843D01*
X80833738Y-106301791D01*
X80993661Y-106363889D01*
X81083964Y-106446962D01*
X81085052Y-106454675D01*
X81097006Y-106539457D01*
X81025142Y-106629825D01*
G37*
G36*
X79660764Y-106640864D02*
G01*
X79601451Y-106671888D01*
X79514853Y-106684827D01*
X79409118Y-106641365D01*
X79335328Y-106615763D01*
X79248474Y-106647093D01*
X79226940Y-106664381D01*
X79195024Y-106678610D01*
X79179558Y-106647984D01*
X79176346Y-106556294D01*
X79180041Y-106427397D01*
X79321629Y-106427397D01*
X79339080Y-106480053D01*
X79412108Y-106549411D01*
X79491801Y-106587165D01*
X79550063Y-106586445D01*
X79586151Y-106525651D01*
X79590329Y-106514528D01*
X79600909Y-106454675D01*
X79561078Y-106418926D01*
X79450171Y-106386068D01*
X79420642Y-106379258D01*
X79342720Y-106378421D01*
X79321629Y-106427397D01*
X79180041Y-106427397D01*
X79181189Y-106387337D01*
X79186546Y-106307643D01*
X79207959Y-106173607D01*
X79237850Y-106094979D01*
X79245939Y-106086694D01*
X79340833Y-106047975D01*
X79475463Y-106038655D01*
X79607382Y-106057837D01*
X79694146Y-106104625D01*
X79716358Y-106136677D01*
X79728893Y-106211003D01*
X79682762Y-106239684D01*
X79601129Y-106199175D01*
X79599116Y-106197375D01*
X79495906Y-106144426D01*
X79395573Y-106148243D01*
X79334722Y-106207661D01*
X79333653Y-106213535D01*
X79371856Y-106258703D01*
X79471177Y-106294923D01*
X79475403Y-106295840D01*
X79599382Y-106332824D01*
X79684152Y-106375077D01*
X79733050Y-106447713D01*
X79732887Y-106454675D01*
X79730522Y-106555495D01*
X79660764Y-106640864D01*
G37*
G36*
X78962377Y-106656452D02*
G01*
X78926775Y-106693745D01*
X78877168Y-106644485D01*
X78847532Y-106623211D01*
X78755698Y-106647076D01*
X78655945Y-106676867D01*
X78532347Y-106641687D01*
X78439962Y-106524568D01*
X78403858Y-106429118D01*
X78400960Y-106380532D01*
X78533170Y-106380532D01*
X78573699Y-106481499D01*
X78629390Y-106525148D01*
X78735320Y-106550665D01*
X78822673Y-106519872D01*
X78841314Y-106487827D01*
X78853786Y-106382024D01*
X78834956Y-106263651D01*
X78789621Y-106181760D01*
X78786193Y-106178991D01*
X78695132Y-106151184D01*
X78611119Y-106191453D01*
X78551388Y-106275876D01*
X78533170Y-106380532D01*
X78400960Y-106380532D01*
X78394916Y-106279201D01*
X78462620Y-106135166D01*
X78511343Y-106077883D01*
X78590751Y-106043676D01*
X78719894Y-106050141D01*
X78762699Y-106055671D01*
X78857240Y-106058864D01*
X78894263Y-106025338D01*
X78900635Y-105938503D01*
X78914161Y-105843166D01*
X78947412Y-105802622D01*
X78956735Y-105809704D01*
X78976535Y-105886840D01*
X78989524Y-106037396D01*
X78994189Y-106247005D01*
X78993816Y-106314562D01*
X78990920Y-106382024D01*
X78984537Y-106530694D01*
X78962377Y-106656452D01*
G37*
G36*
X78223160Y-105827431D02*
G01*
X78248881Y-105912515D01*
X78270181Y-106052614D01*
X78285079Y-106221157D01*
X78291598Y-106391575D01*
X78287757Y-106537295D01*
X78271577Y-106631747D01*
X78240618Y-106685185D01*
X78205891Y-106674473D01*
X78177821Y-106586755D01*
X78159045Y-106431196D01*
X78152200Y-106216958D01*
X78153984Y-106055130D01*
X78163076Y-105905659D01*
X78181405Y-105829249D01*
X78210672Y-105814172D01*
X78223160Y-105827431D01*
G37*
G36*
X77952802Y-106440554D02*
G01*
X77888980Y-106575082D01*
X77777983Y-106658926D01*
X77704895Y-106681314D01*
X77630055Y-106680826D01*
X77523754Y-106645769D01*
X77443017Y-106594988D01*
X77403766Y-106523446D01*
X77408085Y-106479824D01*
X77438928Y-106474645D01*
X77521185Y-106523679D01*
X77535549Y-106532864D01*
X77639368Y-106574406D01*
X77734525Y-106549281D01*
X77793343Y-106507021D01*
X77808851Y-106447063D01*
X77741838Y-106399500D01*
X77598933Y-106372953D01*
X77587590Y-106372095D01*
X77468492Y-106355272D01*
X77415704Y-106318749D01*
X77408643Y-106275694D01*
X77523984Y-106275694D01*
X77538941Y-106290460D01*
X77613865Y-106314017D01*
X77709869Y-106315949D01*
X77789219Y-106298032D01*
X77814180Y-106262041D01*
X77763915Y-106186072D01*
X77668218Y-106144052D01*
X77571922Y-106173158D01*
X77533837Y-106216638D01*
X77523984Y-106275694D01*
X77408643Y-106275694D01*
X77403766Y-106245961D01*
X77418224Y-106175761D01*
X77496511Y-106086702D01*
X77618211Y-106041515D01*
X77755249Y-106047992D01*
X77879548Y-106113924D01*
X77913999Y-106153185D01*
X77953514Y-106262041D01*
X77963219Y-106288776D01*
X77952802Y-106440554D01*
G37*
G36*
X77240466Y-106430942D02*
G01*
X77153844Y-106571345D01*
X77141639Y-106583139D01*
X77037316Y-106659967D01*
X76948528Y-106691388D01*
X76861809Y-106672438D01*
X76763870Y-106620034D01*
X76693495Y-106555537D01*
X76681008Y-106500577D01*
X76723645Y-106488081D01*
X76809141Y-106527167D01*
X76905058Y-106585045D01*
X76974015Y-106585510D01*
X77050026Y-106523897D01*
X77082102Y-106486806D01*
X77097333Y-106418050D01*
X77024614Y-106377348D01*
X76863068Y-106363948D01*
X76753297Y-106359480D01*
X76676359Y-106336142D01*
X76655331Y-106285771D01*
X76655354Y-106283072D01*
X76663048Y-106262041D01*
X76806243Y-106262041D01*
X76806832Y-106277539D01*
X76856604Y-106306962D01*
X76946618Y-106317646D01*
X77039142Y-106307815D01*
X77096438Y-106275694D01*
X77097477Y-106239936D01*
X77048501Y-106173158D01*
X76972017Y-106143692D01*
X76873171Y-106173049D01*
X76806243Y-106262041D01*
X76663048Y-106262041D01*
X76698455Y-106165256D01*
X76802162Y-106073486D01*
X76934303Y-106036508D01*
X77070172Y-106063175D01*
X77188857Y-106153050D01*
X77228812Y-106239936D01*
X77248880Y-106283575D01*
X77240466Y-106430942D01*
G37*
G36*
X76430948Y-105810018D02*
G01*
X76450662Y-105887904D01*
X76463584Y-106039239D01*
X76468222Y-106249766D01*
X76467813Y-106323927D01*
X76460628Y-106522572D01*
X76444963Y-106639127D01*
X76421445Y-106668000D01*
X76411690Y-106652760D01*
X76392720Y-106561512D01*
X76379580Y-106409908D01*
X76374668Y-106220856D01*
X76375161Y-106153416D01*
X76382984Y-105968851D01*
X76398989Y-105846760D01*
X76421445Y-105802622D01*
X76430948Y-105810018D01*
G37*
G36*
X76175270Y-106440554D02*
G01*
X76111448Y-106575082D01*
X76000451Y-106658926D01*
X75905637Y-106679375D01*
X75769666Y-106666969D01*
X75666905Y-106612046D01*
X75626233Y-106524944D01*
X75629455Y-106493169D01*
X75659318Y-106483571D01*
X75740040Y-106529914D01*
X75756280Y-106540259D01*
X75856928Y-106578923D01*
X75953379Y-106551214D01*
X76014274Y-106507732D01*
X76031170Y-106447251D01*
X75964821Y-106399546D01*
X75821401Y-106372953D01*
X75697902Y-106356800D01*
X75639995Y-106322034D01*
X75630666Y-106275694D01*
X75746452Y-106275694D01*
X75761409Y-106290460D01*
X75836333Y-106314017D01*
X75932337Y-106315949D01*
X76011687Y-106298032D01*
X76036648Y-106262041D01*
X75986383Y-106186072D01*
X75890685Y-106144052D01*
X75794389Y-106173158D01*
X75756305Y-106216638D01*
X75746452Y-106275694D01*
X75630666Y-106275694D01*
X75626233Y-106253671D01*
X75636617Y-106182688D01*
X75682366Y-106092641D01*
X75719561Y-106066590D01*
X75844388Y-106038750D01*
X75986613Y-106055275D01*
X76102016Y-106113924D01*
X76136467Y-106153185D01*
X76175982Y-106262041D01*
X76185687Y-106288776D01*
X76175270Y-106440554D01*
G37*
G36*
X75277059Y-106056132D02*
G01*
X75375254Y-106109755D01*
X75446998Y-106224450D01*
X75465104Y-106367040D01*
X75426926Y-106509126D01*
X75329817Y-106622314D01*
X75240069Y-106671674D01*
X75105762Y-106680420D01*
X74964841Y-106601154D01*
X74952972Y-106591250D01*
X74889829Y-106516135D01*
X74905509Y-106458840D01*
X74952211Y-106434080D01*
X75016485Y-106478909D01*
X75078195Y-106528753D01*
X75180653Y-106541430D01*
X75271791Y-106492145D01*
X75327330Y-106397213D01*
X75322993Y-106272948D01*
X75267225Y-106185808D01*
X75161957Y-106154148D01*
X75030869Y-106202905D01*
X74935605Y-106253300D01*
X74890175Y-106241644D01*
X74905246Y-106159742D01*
X74907925Y-106153386D01*
X74987460Y-106079282D01*
X75121299Y-106043856D01*
X75277059Y-106056132D01*
G37*
G36*
X74667548Y-105828981D02*
G01*
X74690690Y-105911769D01*
X74704581Y-105992322D01*
X74749162Y-106050151D01*
X74784176Y-106078059D01*
X74749162Y-106133571D01*
X74732284Y-106160888D01*
X74702487Y-106271175D01*
X74690690Y-106416183D01*
X74689389Y-106468999D01*
X74670166Y-106599565D01*
X74632219Y-106660409D01*
X74520998Y-106685021D01*
X74410027Y-106643894D01*
X74390238Y-106629939D01*
X74375684Y-106596811D01*
X74445110Y-106568989D01*
X74499475Y-106545987D01*
X74540100Y-106482752D01*
X74550359Y-106357024D01*
X74550320Y-106348228D01*
X74530991Y-106208483D01*
X74473630Y-106144460D01*
X74458292Y-106138368D01*
X74421744Y-106108404D01*
X74468173Y-106062902D01*
X74505944Y-106025132D01*
X74556596Y-105922275D01*
X74568905Y-105879432D01*
X74617342Y-105818955D01*
X74667548Y-105828981D01*
G37*
G36*
X74094281Y-106051119D02*
G01*
X74293084Y-106064233D01*
X74307435Y-106313764D01*
X74310969Y-106409283D01*
X74308617Y-106546416D01*
X74297209Y-106627341D01*
X74282745Y-106654410D01*
X74229391Y-106691388D01*
X74180786Y-106660495D01*
X74142700Y-106547317D01*
X74129364Y-106360122D01*
X74129350Y-106350859D01*
X74121674Y-106236511D01*
X74088335Y-106187340D01*
X74012421Y-106176840D01*
X73936191Y-106163064D01*
X73895478Y-106107422D01*
X73903703Y-106077294D01*
X73962676Y-106051047D01*
X74094281Y-106051119D01*
G37*
G36*
X73725450Y-106594439D02*
G01*
X73610121Y-106666892D01*
X73481224Y-106683306D01*
X73344561Y-106618570D01*
X73264967Y-106524637D01*
X73241698Y-106383353D01*
X73390235Y-106383353D01*
X73397120Y-106433280D01*
X73436753Y-106512624D01*
X73528940Y-106542082D01*
X73545052Y-106543337D01*
X73649093Y-106510500D01*
X73699898Y-106414667D01*
X73686353Y-106274715D01*
X73636764Y-106186553D01*
X73553955Y-106146240D01*
X73469224Y-106171486D01*
X73406630Y-106253466D01*
X73390235Y-106383353D01*
X73241698Y-106383353D01*
X73240598Y-106376673D01*
X73240769Y-106362656D01*
X73279298Y-106189204D01*
X73378488Y-106076617D01*
X73528511Y-106036508D01*
X73552897Y-106037347D01*
X73701120Y-106085589D01*
X73801250Y-106190244D01*
X73844523Y-106326488D01*
X73830745Y-106414667D01*
X73822178Y-106469495D01*
X73725450Y-106594439D01*
G37*
G36*
X72817763Y-106049953D02*
G01*
X73053455Y-106059897D01*
X73053472Y-106375642D01*
X73053437Y-106389830D01*
X73045028Y-106566319D01*
X73025310Y-106664549D01*
X72999342Y-106680804D01*
X72972182Y-106611365D01*
X72948885Y-106452517D01*
X72946677Y-106431543D01*
X72905781Y-106252737D01*
X72842665Y-106156423D01*
X72770553Y-106139332D01*
X72702671Y-106198196D01*
X72652243Y-106329746D01*
X72632495Y-106530713D01*
X72632208Y-106549533D01*
X72618545Y-106650307D01*
X72590722Y-106691388D01*
X72554240Y-106674510D01*
X72512748Y-106589581D01*
X72494244Y-106457123D01*
X72501456Y-106304293D01*
X72537117Y-106158247D01*
X72553339Y-106119972D01*
X72596491Y-106068465D01*
X72675018Y-106048835D01*
X72817763Y-106049953D01*
G37*
G36*
X72276862Y-106052097D02*
G01*
X72308702Y-106119900D01*
X72333624Y-106243096D01*
X72348198Y-106389914D01*
X72348990Y-106528586D01*
X72332568Y-106627341D01*
X72318039Y-106660427D01*
X72277091Y-106700636D01*
X72243169Y-106658419D01*
X72220047Y-106542113D01*
X72211500Y-106360050D01*
X72211741Y-106310121D01*
X72218882Y-106147902D01*
X72237562Y-106064420D01*
X72269972Y-106047981D01*
X72276862Y-106052097D01*
G37*
G36*
X71819379Y-106054798D02*
G01*
X71935213Y-106110634D01*
X71970997Y-106151277D01*
X72021891Y-106288097D01*
X72012655Y-106440236D01*
X71949161Y-106574807D01*
X71837283Y-106658926D01*
X71741837Y-106677946D01*
X71606677Y-106660067D01*
X71503897Y-106598521D01*
X71463066Y-106505437D01*
X71478210Y-106433863D01*
X71524447Y-106416447D01*
X71574738Y-106484024D01*
X71615779Y-106529137D01*
X71731769Y-106542495D01*
X71785386Y-106532924D01*
X71849999Y-106486624D01*
X71875098Y-106378750D01*
X71865586Y-106267177D01*
X71804341Y-106175678D01*
X71708373Y-106150074D01*
X71599219Y-106204009D01*
X71577868Y-106221801D01*
X71499335Y-106255942D01*
X71464209Y-106224403D01*
X71492826Y-106139513D01*
X71551223Y-106086153D01*
X71677880Y-106047520D01*
X71819379Y-106054798D01*
G37*
G36*
X71193175Y-106062060D02*
G01*
X71276475Y-106131029D01*
X71287462Y-106153159D01*
X71302870Y-106245380D01*
X71245927Y-106320052D01*
X71106527Y-106392737D01*
X71083217Y-106402951D01*
X70987383Y-106457486D01*
X70948517Y-106502147D01*
X70973616Y-106561337D01*
X71053095Y-106575429D01*
X71165130Y-106527963D01*
X71166831Y-106526852D01*
X71255792Y-106478653D01*
X71304505Y-106470458D01*
X71307367Y-106473726D01*
X71308294Y-106536892D01*
X71261026Y-106612507D01*
X71190114Y-106659911D01*
X71103210Y-106678527D01*
X70970304Y-106672718D01*
X70852344Y-106605120D01*
X70848151Y-106601655D01*
X70780218Y-106503478D01*
X70786528Y-106406685D01*
X70865596Y-106340887D01*
X70942414Y-106313676D01*
X71079713Y-106261878D01*
X71149123Y-106226358D01*
X71165622Y-106197751D01*
X71144188Y-106166691D01*
X71142719Y-106165243D01*
X71075673Y-106138792D01*
X70972921Y-106176296D01*
X70941303Y-106191821D01*
X70849917Y-106213888D01*
X70816036Y-106183124D01*
X70854025Y-106107804D01*
X70936774Y-106054028D01*
X71066319Y-106035644D01*
X71193175Y-106062060D01*
G37*
G36*
X72281425Y-105807452D02*
G01*
X72328836Y-105854730D01*
X72319375Y-105913041D01*
X72304811Y-105925741D01*
X72240228Y-105937300D01*
X72211500Y-105872788D01*
X72216453Y-105840551D01*
X72255517Y-105802622D01*
X72281425Y-105807452D01*
G37*
G36*
X82098959Y-98693999D02*
G01*
X82194875Y-98868662D01*
X82230365Y-99084220D01*
X82199002Y-99300349D01*
X82100712Y-99484116D01*
X81979611Y-99628037D01*
X80475206Y-99628297D01*
X80358661Y-99628440D01*
X79968389Y-99630784D01*
X79615422Y-99635755D01*
X79311008Y-99643037D01*
X79066397Y-99652310D01*
X78892838Y-99663259D01*
X78801578Y-99675564D01*
X78646456Y-99732368D01*
X78385775Y-99903464D01*
X78166568Y-100156808D01*
X78142535Y-100193743D01*
X78015043Y-100468554D01*
X77979148Y-100747102D01*
X78033374Y-101039150D01*
X78039722Y-101058223D01*
X78168075Y-101338122D01*
X78345579Y-101548871D01*
X78586187Y-101707334D01*
X78825449Y-101826563D01*
X80362234Y-101826563D01*
X80451212Y-101826574D01*
X80885476Y-101827326D01*
X81237339Y-101830249D01*
X81516230Y-101836715D01*
X81731579Y-101848095D01*
X81892815Y-101865761D01*
X82009367Y-101891085D01*
X82090664Y-101925436D01*
X82146136Y-101970188D01*
X82185212Y-102026712D01*
X82217320Y-102096378D01*
X82232972Y-102160364D01*
X82246827Y-102293402D01*
X82256183Y-102495364D01*
X82261214Y-102772388D01*
X82262093Y-103130613D01*
X82258992Y-103576176D01*
X82245202Y-104922079D01*
X82113956Y-105034910D01*
X82063353Y-105071234D01*
X81881102Y-105139232D01*
X81669278Y-105155850D01*
X81463796Y-105121084D01*
X81300573Y-105034935D01*
X81169327Y-104922128D01*
X81140783Y-102902438D01*
X80003705Y-102902438D01*
X79807464Y-102901748D01*
X79482243Y-102897625D01*
X79183639Y-102890282D01*
X78928386Y-102880296D01*
X78733217Y-102868241D01*
X78614865Y-102854692D01*
X78412003Y-102805388D01*
X78014161Y-102642283D01*
X77654921Y-102405787D01*
X77346890Y-102107059D01*
X77102672Y-101757258D01*
X76934874Y-101367543D01*
X76908281Y-101274358D01*
X76839710Y-100839404D01*
X76858506Y-100410812D01*
X76959791Y-99999611D01*
X77138691Y-99616833D01*
X77390328Y-99273507D01*
X77709826Y-98980664D01*
X78092310Y-98749333D01*
X78456252Y-98575550D01*
X80216179Y-98561773D01*
X81976105Y-98547995D01*
X82098959Y-98693999D01*
G37*
G36*
X75957214Y-104192579D02*
G01*
X75994907Y-104236305D01*
X76042581Y-104322827D01*
X76065011Y-104439415D01*
X76070616Y-104617623D01*
X76067523Y-104773451D01*
X76051001Y-104886414D01*
X76011468Y-104963422D01*
X75939371Y-105034849D01*
X75808125Y-105147742D01*
X71003611Y-105147742D01*
X70882509Y-105003821D01*
X70862663Y-104979507D01*
X70799267Y-104876987D01*
X70769087Y-104756530D01*
X70761408Y-104580701D01*
X70761963Y-104518370D01*
X70773865Y-104369892D01*
X70808707Y-104270468D01*
X70876225Y-104186684D01*
X70991042Y-104071867D01*
X75843811Y-104071867D01*
X75957214Y-104192579D01*
G37*
G36*
X75957214Y-101432726D02*
G01*
X75994907Y-101476452D01*
X76042581Y-101562974D01*
X76065011Y-101679562D01*
X76070616Y-101857771D01*
X76067523Y-102013599D01*
X76051001Y-102126562D01*
X76011468Y-102203570D01*
X75939371Y-102274996D01*
X75808125Y-102387889D01*
X71008052Y-102387889D01*
X70884730Y-102264568D01*
X70835361Y-102210464D01*
X70788034Y-102127203D01*
X70766504Y-102014906D01*
X70761408Y-101841447D01*
X70762836Y-101736348D01*
X70776319Y-101598807D01*
X70811224Y-101506075D01*
X70876225Y-101426831D01*
X70991042Y-101312014D01*
X75843811Y-101312014D01*
X75957214Y-101432726D01*
G37*
G36*
X75939371Y-98665055D02*
G01*
X76005425Y-98729045D01*
X76048012Y-98803988D01*
X76066558Y-98911609D01*
X76070616Y-99082281D01*
X76069274Y-99184866D01*
X76055943Y-99326995D01*
X76021396Y-99423963D01*
X75957214Y-99507325D01*
X75843811Y-99628037D01*
X70990827Y-99628037D01*
X70876118Y-99504263D01*
X70846664Y-99470509D01*
X70793161Y-99381131D01*
X70767812Y-99265271D01*
X70761408Y-99089647D01*
X70762898Y-98985074D01*
X70777067Y-98851111D01*
X70814395Y-98758939D01*
X70884730Y-98675483D01*
X71008052Y-98552162D01*
X75808125Y-98552162D01*
X75939371Y-98665055D01*
G37*
G04 #@! TD*
D10*
G04 #@! TO.C,H7*
X125715000Y-80875000D03*
G04 #@! TD*
D11*
G04 #@! TO.C,K_14*
X187215000Y-113574995D03*
D12*
X182135000Y-113574995D03*
X192295000Y-113574995D03*
D13*
X183405000Y-111034995D03*
X189755000Y-108494995D03*
G04 #@! TD*
D12*
G04 #@! TO.C,K_5*
X157535000Y-91575000D03*
D11*
X162615000Y-91575000D03*
D12*
X167695000Y-91575000D03*
D13*
X158805000Y-89035000D03*
X165155000Y-86495000D03*
G04 #@! TD*
D12*
G04 #@! TO.C,K_12*
X132935000Y-113574995D03*
D11*
X138015000Y-113574995D03*
D12*
X143095000Y-113574995D03*
D13*
X134205000Y-111034995D03*
X140555000Y-108494995D03*
G04 #@! TD*
D11*
G04 #@! TO.C,K_9*
X64215000Y-113574995D03*
D12*
X69295000Y-113574995D03*
X59135000Y-113574995D03*
D13*
X60405000Y-111034995D03*
X66755000Y-108494995D03*
G04 #@! TD*
D10*
G04 #@! TO.C,H5*
X174915000Y-80875000D03*
G04 #@! TD*
D12*
G04 #@! TO.C,K_7*
X206735000Y-91575000D03*
X216895000Y-91575000D03*
D11*
X211815000Y-91575000D03*
D13*
X208005000Y-89035000D03*
X214355000Y-86495000D03*
G04 #@! TD*
D12*
G04 #@! TO.C,K_1*
X59135000Y-91575000D03*
X69295000Y-91575000D03*
D11*
X64215000Y-91575000D03*
D13*
X60405000Y-89035000D03*
X66755000Y-86495000D03*
G04 #@! TD*
D12*
G04 #@! TO.C,K_8*
X231335000Y-91575000D03*
X241495000Y-91575000D03*
D11*
X236415000Y-91575000D03*
D13*
X232605000Y-89035000D03*
X238955000Y-86495000D03*
G04 #@! TD*
D11*
G04 #@! TO.C,K_15*
X211815000Y-113574995D03*
D12*
X206735000Y-113574995D03*
X216895000Y-113574995D03*
D13*
X208005000Y-111034995D03*
X214355000Y-108494995D03*
G04 #@! TD*
D12*
G04 #@! TO.C,K_6*
X182135000Y-91575000D03*
D11*
X187215000Y-91575000D03*
D12*
X192295000Y-91575000D03*
D13*
X183405000Y-89035000D03*
X189755000Y-86495000D03*
G04 #@! TD*
D12*
G04 #@! TO.C,K_2*
X83735000Y-91575000D03*
D11*
X88815000Y-91575000D03*
D12*
X93895000Y-91575000D03*
D13*
X85005000Y-89035000D03*
X91355000Y-86495000D03*
G04 #@! TD*
D12*
G04 #@! TO.C,K_3*
X118495000Y-91575000D03*
X108335000Y-91575000D03*
D11*
X113415000Y-91575000D03*
D13*
X109605000Y-89035000D03*
X115955000Y-86495000D03*
G04 #@! TD*
D12*
G04 #@! TO.C,K_11*
X118495000Y-113574995D03*
D11*
X113415000Y-113574995D03*
D12*
X108335000Y-113574995D03*
D13*
X109605000Y-111034995D03*
X115955000Y-108494995D03*
G04 #@! TD*
D10*
G04 #@! TO.C,H6*
X224115000Y-80875000D03*
G04 #@! TD*
D12*
G04 #@! TO.C,K_13*
X167695000Y-113574995D03*
X157535000Y-113574995D03*
D11*
X162615000Y-113574995D03*
D13*
X158805000Y-111034995D03*
X165155000Y-108494995D03*
G04 #@! TD*
D10*
G04 #@! TO.C,H8*
X76515000Y-80875000D03*
G04 #@! TD*
D12*
G04 #@! TO.C,K_4*
X132935000Y-91575000D03*
X143095000Y-91575000D03*
D11*
X138015000Y-91575000D03*
D13*
X134205000Y-89035000D03*
X140555000Y-86495000D03*
G04 #@! TD*
D11*
G04 #@! TO.C,K_16*
X236415000Y-113574995D03*
D12*
X241495000Y-113574995D03*
X231335000Y-113574995D03*
D13*
X232605000Y-111034995D03*
X238955000Y-108494995D03*
G04 #@! TD*
D11*
G04 #@! TO.C,K_10*
X88815000Y-113574995D03*
D12*
X93895000Y-113574995D03*
X83735000Y-113574995D03*
D13*
X85005000Y-111034995D03*
X91355000Y-108494995D03*
G04 #@! TD*
D14*
G04 #@! TO.C,C20*
X108565000Y-119370000D03*
X108565000Y-117820000D03*
G04 #@! TD*
D15*
G04 #@! TO.C,LED9*
X61515000Y-117824995D03*
D16*
X61515000Y-119324995D03*
D17*
X66915000Y-119324995D03*
D18*
X66915000Y-117824995D03*
G04 #@! TD*
D14*
G04 #@! TO.C,C10*
X59535000Y-97390000D03*
X59535000Y-95840000D03*
G04 #@! TD*
D10*
G04 #@! TO.C,H1*
X125715000Y-124375005D03*
G04 #@! TD*
D15*
G04 #@! TO.C,LED3*
X110715000Y-95825000D03*
D16*
X110715000Y-97325000D03*
D17*
X116115000Y-97325000D03*
D18*
X116115000Y-95825000D03*
G04 #@! TD*
D19*
G04 #@! TO.C,C1*
X164745000Y-101575000D03*
X163195000Y-101575000D03*
G04 #@! TD*
D14*
G04 #@! TO.C,C21*
X133275000Y-119395000D03*
X133275000Y-117845000D03*
G04 #@! TD*
D15*
G04 #@! TO.C,LED2*
X86115000Y-95825000D03*
D16*
X86115000Y-97325000D03*
D17*
X91515000Y-97325000D03*
D18*
X91515000Y-95825000D03*
G04 #@! TD*
D19*
G04 #@! TO.C,C4*
X152960000Y-107605000D03*
X151410000Y-107605000D03*
G04 #@! TD*
D20*
G04 #@! TO.C,ESD1*
X151035000Y-87500000D03*
D21*
X151035000Y-89200000D03*
X149035000Y-89200000D03*
X149035000Y-87300000D03*
G04 #@! TD*
D14*
G04 #@! TO.C,C15*
X182495000Y-97390000D03*
X182495000Y-95840000D03*
G04 #@! TD*
G04 #@! TO.C,C12*
X108705000Y-97380000D03*
X108705000Y-95830000D03*
G04 #@! TD*
D15*
G04 #@! TO.C,LED16*
X233715000Y-117824995D03*
D16*
X233715000Y-119324995D03*
D17*
X239115000Y-119324995D03*
D18*
X239115000Y-117824995D03*
G04 #@! TD*
D22*
G04 #@! TO.C,R3*
X147285000Y-95250000D03*
X147285000Y-93600000D03*
G04 #@! TD*
D23*
G04 #@! TO.C,J3*
X182155000Y-81875000D03*
D24*
X184155000Y-81875000D03*
X186155000Y-81875000D03*
X188155000Y-81875000D03*
G04 #@! TD*
D15*
G04 #@! TO.C,LED7*
X209115000Y-95825000D03*
D16*
X209115000Y-97325000D03*
D17*
X214515000Y-97325000D03*
D18*
X214515000Y-95825000D03*
G04 #@! TD*
D23*
G04 #@! TO.C,J5*
X81755000Y-81875000D03*
D24*
X83755000Y-81875000D03*
X85755000Y-81875000D03*
X87755000Y-81875000D03*
G04 #@! TD*
D25*
G04 #@! TO.C,D_12*
X129775000Y-116100000D03*
X129775000Y-112700000D03*
G04 #@! TD*
D15*
G04 #@! TO.C,LED1*
X61515000Y-95825000D03*
D16*
X61515000Y-97325000D03*
D17*
X66915000Y-97325000D03*
D18*
X66915000Y-95825000D03*
G04 #@! TD*
D26*
G04 #@! TO.C,R2*
X143310000Y-83805000D03*
X144960000Y-83805000D03*
G04 #@! TD*
D25*
G04 #@! TO.C,D_7*
X220125000Y-94075000D03*
X220125000Y-90675000D03*
G04 #@! TD*
D14*
G04 #@! TO.C,C14*
X157935000Y-97420000D03*
X157935000Y-95870000D03*
G04 #@! TD*
G04 #@! TO.C,C9*
X150805000Y-95200000D03*
X150805000Y-93650000D03*
G04 #@! TD*
D15*
G04 #@! TO.C,LED12*
X135315000Y-117824995D03*
D16*
X135315000Y-119324995D03*
D17*
X140715000Y-119324995D03*
D18*
X140715000Y-117824995D03*
G04 #@! TD*
D15*
G04 #@! TO.C,LED15*
X209115000Y-117824995D03*
D16*
X209115000Y-119324995D03*
D17*
X214515000Y-119324995D03*
D18*
X214515000Y-117824995D03*
G04 #@! TD*
D10*
G04 #@! TO.C,H4*
X76515000Y-124375005D03*
G04 #@! TD*
D25*
G04 #@! TO.C,D_13*
X170855000Y-116100000D03*
X170855000Y-112700000D03*
G04 #@! TD*
D14*
G04 #@! TO.C,C17*
X231515000Y-97410000D03*
X231515000Y-95860000D03*
G04 #@! TD*
D25*
G04 #@! TO.C,D_1*
X72505000Y-94075000D03*
X72505000Y-90675000D03*
G04 #@! TD*
D27*
G04 #@! TO.C,R1*
X169635000Y-100690000D03*
X169635000Y-102340000D03*
G04 #@! TD*
D14*
G04 #@! TO.C,C16*
X206965000Y-97380000D03*
X206965000Y-95830000D03*
G04 #@! TD*
D10*
G04 #@! TO.C,H2*
X224115000Y-124375005D03*
G04 #@! TD*
D14*
G04 #@! TO.C,C18*
X59495000Y-119390000D03*
X59495000Y-117840000D03*
G04 #@! TD*
D28*
G04 #@! TO.C,J4*
X97915000Y-86975000D03*
X99915000Y-86975000D03*
X101915000Y-86975000D03*
X103915000Y-86975000D03*
D29*
X106265000Y-81225000D03*
X95565000Y-81225000D03*
G04 #@! TD*
D25*
G04 #@! TO.C,D_16*
X244645000Y-116100000D03*
X244645000Y-112700000D03*
G04 #@! TD*
D26*
G04 #@! TO.C,R5*
X69020000Y-95825000D03*
X70670000Y-95825000D03*
G04 #@! TD*
D25*
G04 #@! TO.C,D_10*
X97065000Y-116100000D03*
X97065000Y-112700000D03*
G04 #@! TD*
D10*
G04 #@! TO.C,H3*
X174915000Y-124375005D03*
G04 #@! TD*
D15*
G04 #@! TO.C,LED4*
X135315000Y-95825000D03*
D16*
X135315000Y-97325000D03*
D17*
X140715000Y-97325000D03*
D18*
X140715000Y-95825000D03*
G04 #@! TD*
D15*
G04 #@! TO.C,LED8*
X233715000Y-95825000D03*
D16*
X233715000Y-97325000D03*
D17*
X239115000Y-97325000D03*
D18*
X239115000Y-95825000D03*
G04 #@! TD*
D25*
G04 #@! TO.C,D_4*
X129805000Y-94075000D03*
X129805000Y-90675000D03*
G04 #@! TD*
G04 #@! TO.C,D_14*
X195445000Y-116100000D03*
X195445000Y-112700000D03*
G04 #@! TD*
D14*
G04 #@! TO.C,C13*
X133205000Y-97360000D03*
X133205000Y-95810000D03*
G04 #@! TD*
D25*
G04 #@! TO.C,D_3*
X121665000Y-94075000D03*
X121665000Y-90675000D03*
G04 #@! TD*
D14*
G04 #@! TO.C,C2*
X155225000Y-107150000D03*
X155225000Y-105600000D03*
G04 #@! TD*
D30*
G04 #@! TO.C,J1*
X148545000Y-84005000D03*
X149545000Y-84005000D03*
X150545000Y-84005000D03*
X151545000Y-84005000D03*
D31*
X152845000Y-80130000D03*
X147245000Y-80130000D03*
G04 #@! TD*
D28*
G04 #@! TO.C,J2*
X196645000Y-86975000D03*
X198645000Y-86975000D03*
X200645000Y-86975000D03*
X202645000Y-86975000D03*
D29*
X204995000Y-81225000D03*
X194295000Y-81225000D03*
G04 #@! TD*
D25*
G04 #@! TO.C,D_11*
X121675000Y-116100000D03*
X121675000Y-112700000D03*
G04 #@! TD*
D32*
G04 #@! TO.C,Y1*
X161405000Y-103405000D03*
X159205000Y-103405000D03*
X159205000Y-101705000D03*
X161405000Y-101705000D03*
G04 #@! TD*
D25*
G04 #@! TO.C,D_2*
X96195000Y-94075000D03*
X96195000Y-90675000D03*
G04 #@! TD*
D33*
G04 #@! TO.C,P1*
X144902500Y-82215000D03*
X143327500Y-82215000D03*
G04 #@! TD*
D14*
G04 #@! TO.C,C25*
X231525000Y-119385000D03*
X231525000Y-117835000D03*
G04 #@! TD*
D25*
G04 #@! TO.C,D_15*
X220085000Y-116100000D03*
X220085000Y-112700000D03*
G04 #@! TD*
D27*
G04 #@! TO.C,R6*
X143575000Y-104605000D03*
X143575000Y-106255000D03*
G04 #@! TD*
D15*
G04 #@! TO.C,LED11*
X110715000Y-117824995D03*
D16*
X110715000Y-119324995D03*
D17*
X116115000Y-119324995D03*
D18*
X116115000Y-117824995D03*
G04 #@! TD*
D15*
G04 #@! TO.C,LED13*
X159915000Y-117824995D03*
D16*
X159915000Y-119324995D03*
D17*
X165315000Y-119324995D03*
D18*
X165315000Y-117824995D03*
G04 #@! TD*
D19*
G04 #@! TO.C,C7*
X164765000Y-103505000D03*
X163215000Y-103505000D03*
G04 #@! TD*
D25*
G04 #@! TO.C,D_5*
X170835000Y-94075000D03*
X170835000Y-90675000D03*
G04 #@! TD*
D15*
G04 #@! TO.C,LED14*
X184515000Y-117824995D03*
D16*
X184515000Y-119324995D03*
D17*
X189915000Y-119324995D03*
D18*
X189915000Y-117824995D03*
G04 #@! TD*
D25*
G04 #@! TO.C,D_9*
X72485000Y-116100000D03*
X72485000Y-112700000D03*
G04 #@! TD*
D15*
G04 #@! TO.C,LED6*
X184515000Y-95825000D03*
D16*
X184515000Y-97325000D03*
D17*
X189915000Y-97325000D03*
D18*
X189915000Y-95825000D03*
G04 #@! TD*
D34*
G04 #@! TO.C,C8*
X143215000Y-100645000D03*
X144765000Y-100645000D03*
G04 #@! TD*
D14*
G04 #@! TO.C,C3*
X152355000Y-95200000D03*
X152355000Y-93650000D03*
G04 #@! TD*
G04 #@! TO.C,C19*
X83985000Y-119390000D03*
X83985000Y-117840000D03*
G04 #@! TD*
D25*
G04 #@! TO.C,D_8*
X244645000Y-94075000D03*
X244645000Y-90675000D03*
G04 #@! TD*
D14*
G04 #@! TO.C,C24*
X206925000Y-119350000D03*
X206925000Y-117800000D03*
G04 #@! TD*
D19*
G04 #@! TO.C,C6*
X144765000Y-98775000D03*
X143215000Y-98775000D03*
G04 #@! TD*
D35*
G04 #@! TO.C,SW1*
X171795000Y-104395000D03*
X177995000Y-104395000D03*
X171795000Y-100695000D03*
X177995000Y-100695000D03*
G04 #@! TD*
D22*
G04 #@! TO.C,R4*
X148865000Y-95250000D03*
X148865000Y-93600000D03*
G04 #@! TD*
D15*
G04 #@! TO.C,LED10*
X86115000Y-117824995D03*
D16*
X86115000Y-119324995D03*
D17*
X91515000Y-119324995D03*
D18*
X91515000Y-117824995D03*
G04 #@! TD*
D25*
G04 #@! TO.C,D_6*
X194725000Y-94075000D03*
X194725000Y-90675000D03*
G04 #@! TD*
D14*
G04 #@! TO.C,C11*
X84075000Y-97370000D03*
X84075000Y-95820000D03*
G04 #@! TD*
G04 #@! TO.C,C5*
X145105000Y-106205000D03*
X145105000Y-104655000D03*
G04 #@! TD*
G04 #@! TO.C,C23*
X182545000Y-119390000D03*
X182545000Y-117840000D03*
G04 #@! TD*
G04 #@! TO.C,C22*
X157945000Y-119370000D03*
X157945000Y-117820000D03*
G04 #@! TD*
D36*
G04 #@! TO.C,U1*
X147815000Y-99174998D03*
X148315000Y-99174998D03*
X148815000Y-99174998D03*
X149315000Y-99174998D03*
X149815000Y-99174998D03*
X150315000Y-99174998D03*
X150815000Y-99174998D03*
X151315000Y-99174998D03*
X151815000Y-99174998D03*
X152315000Y-99174998D03*
X152815000Y-99174998D03*
D37*
X153715000Y-100074998D03*
X153715000Y-100574998D03*
X153715000Y-101074998D03*
X153715000Y-101574998D03*
X153715000Y-102074998D03*
X153715000Y-102574998D03*
X153715000Y-103074998D03*
X153715000Y-103574998D03*
X153715000Y-104074998D03*
X153715000Y-104574998D03*
X153715000Y-105074998D03*
D36*
X152815000Y-105974998D03*
X152315000Y-105974998D03*
X151815000Y-105974998D03*
X151315000Y-105974998D03*
X150815000Y-105974998D03*
X150315000Y-105974998D03*
X149815000Y-105974998D03*
X149315000Y-105974998D03*
X148815000Y-105974998D03*
X148315000Y-105974998D03*
X147815000Y-105974998D03*
D37*
X146915000Y-105074998D03*
X146915000Y-104574998D03*
X146915000Y-104074998D03*
X146915000Y-103574998D03*
X146915000Y-103074998D03*
X146915000Y-102574998D03*
X146915000Y-102074998D03*
X146915000Y-101574998D03*
X146915000Y-101074998D03*
X146915000Y-100574998D03*
X146915000Y-100074998D03*
D38*
X150315000Y-102574998D03*
G04 #@! TD*
D15*
G04 #@! TO.C,LED5*
X159915000Y-95825000D03*
D16*
X159915000Y-97325000D03*
D17*
X165315000Y-97325000D03*
D18*
X165315000Y-95825000D03*
G04 #@! TD*
M02*
