  0
SECTION
  2
BLOCKS
  0
ENDSEC
  0
SECTION
  2
ENTITIES
  0
LINE
  8
0
 10
-12.3
 20
-11
 11
184.5
 21
-11
  0
LINE
  8
0
 10
184.5
 20
-11
 11
184.5
 21
36.6
  0
LINE
  8
0
 10
184.5
 20
36.6
 11
-12.3
 21
36.6
  0
LINE
  8
0
 10
-12.3
 20
36.6
 11
-12.3
 21
-11
  0
LINE
  8
0
 10
160.057
 20
35.9918
 11
160.364
 21
35.9266
  0
LINE
  8
0
 10
160.364
 20
35.9266
 11
160.65
 21
35.799
  0
LINE
  8
0
 10
160.65
 20
35.799
 11
160.904
 21
35.6147
  0
LINE
  8
0
 10
160.904
 20
35.6147
 11
161.114
 21
35.3817
  0
LINE
  8
0
 10
161.114
 20
35.3817
 11
161.27
 21
35.1101
  0
LINE
  8
0
 10
161.27
 20
35.1101
 11
161.367
 21
34.8119
  0
LINE
  8
0
 10
161.367
 20
34.8119
 11
161.4
 21
34.5
  0
LINE
  8
0
 10
161.4
 20
34.5
 11
161.367
 21
34.1881
  0
LINE
  8
0
 10
161.367
 20
34.1881
 11
161.27
 21
33.8899
  0
LINE
  8
0
 10
161.27
 20
33.8899
 11
161.114
 21
33.6183
  0
LINE
  8
0
 10
161.114
 20
33.6183
 11
160.904
 21
33.3853
  0
LINE
  8
0
 10
160.904
 20
33.3853
 11
160.65
 21
33.201
  0
LINE
  8
0
 10
160.65
 20
33.201
 11
160.364
 21
33.0734
  0
LINE
  8
0
 10
160.364
 20
33.0734
 11
160.057
 21
33.0082
  0
LINE
  8
0
 10
160.057
 20
33.0082
 11
159.743
 21
33.0082
  0
LINE
  8
0
 10
159.743
 20
33.0082
 11
159.436
 21
33.0734
  0
LINE
  8
0
 10
159.436
 20
33.0734
 11
159.15
 21
33.201
  0
LINE
  8
0
 10
159.15
 20
33.201
 11
158.896
 21
33.3853
  0
LINE
  8
0
 10
158.896
 20
33.3853
 11
158.686
 21
33.6183
  0
LINE
  8
0
 10
158.686
 20
33.6183
 11
158.53
 21
33.8899
  0
LINE
  8
0
 10
158.53
 20
33.8899
 11
158.433
 21
34.1881
  0
LINE
  8
0
 10
158.433
 20
34.1881
 11
158.4
 21
34.5
  0
LINE
  8
0
 10
158.4
 20
34.5
 11
158.433
 21
34.8119
  0
LINE
  8
0
 10
158.433
 20
34.8119
 11
158.53
 21
35.1101
  0
LINE
  8
0
 10
158.53
 20
35.1101
 11
158.686
 21
35.3817
  0
LINE
  8
0
 10
158.686
 20
35.3817
 11
158.896
 21
35.6147
  0
LINE
  8
0
 10
158.896
 20
35.6147
 11
159.15
 21
35.799
  0
LINE
  8
0
 10
159.15
 20
35.799
 11
159.436
 21
35.9266
  0
LINE
  8
0
 10
159.436
 20
35.9266
 11
159.743
 21
35.9918
  0
LINE
  8
0
 10
159.743
 20
35.9918
 11
160.057
 21
35.9918
  0
LINE
  8
0
 10
61.3432
 20
33.0082
 11
61.0365
 21
33.0734
  0
LINE
  8
0
 10
61.0365
 20
33.0734
 11
60.75
 21
33.201
  0
LINE
  8
0
 10
60.75
 20
33.201
 11
60.4963
 21
33.3853
  0
LINE
  8
0
 10
60.4963
 20
33.3853
 11
60.2865
 21
33.6183
  0
LINE
  8
0
 10
60.2865
 20
33.6183
 11
60.1297
 21
33.8899
  0
LINE
  8
0
 10
60.1297
 20
33.8899
 11
60.0328
 21
34.1881
  0
LINE
  8
0
 10
60.0328
 20
34.1881
 11
60
 21
34.5
  0
LINE
  8
0
 10
60
 20
34.5
 11
60.0328
 21
34.8119
  0
LINE
  8
0
 10
60.0328
 20
34.8119
 11
60.1297
 21
35.1101
  0
LINE
  8
0
 10
60.1297
 20
35.1101
 11
60.2865
 21
35.3817
  0
LINE
  8
0
 10
60.2865
 20
35.3817
 11
60.4963
 21
35.6147
  0
LINE
  8
0
 10
60.4963
 20
35.6147
 11
60.75
 21
35.799
  0
LINE
  8
0
 10
60.75
 20
35.799
 11
61.0365
 21
35.9266
  0
LINE
  8
0
 10
61.0365
 20
35.9266
 11
61.3432
 21
35.9918
  0
LINE
  8
0
 10
61.3432
 20
35.9918
 11
61.6568
 21
35.9918
  0
LINE
  8
0
 10
61.6568
 20
35.9918
 11
61.9635
 21
35.9266
  0
LINE
  8
0
 10
61.9635
 20
35.9266
 11
62.25
 21
35.799
  0
LINE
  8
0
 10
62.25
 20
35.799
 11
62.5037
 21
35.6147
  0
LINE
  8
0
 10
62.5037
 20
35.6147
 11
62.7135
 21
35.3817
  0
LINE
  8
0
 10
62.7135
 20
35.3817
 11
62.8703
 21
35.1101
  0
LINE
  8
0
 10
62.8703
 20
35.1101
 11
62.9672
 21
34.8119
  0
LINE
  8
0
 10
62.9672
 20
34.8119
 11
63
 21
34.5
  0
LINE
  8
0
 10
63
 20
34.5
 11
62.9672
 21
34.1881
  0
LINE
  8
0
 10
62.9672
 20
34.1881
 11
62.8703
 21
33.8899
  0
LINE
  8
0
 10
62.8703
 20
33.8899
 11
62.7135
 21
33.6183
  0
LINE
  8
0
 10
62.7135
 20
33.6183
 11
62.5037
 21
33.3853
  0
LINE
  8
0
 10
62.5037
 20
33.3853
 11
62.25
 21
33.201
  0
LINE
  8
0
 10
62.25
 20
33.201
 11
61.9635
 21
33.0734
  0
LINE
  8
0
 10
61.9635
 20
33.0734
 11
61.6568
 21
33.0082
  0
LINE
  8
0
 10
61.6568
 20
33.0082
 11
61.3432
 21
33.0082
  0
LINE
  8
0
 10
12.1432
 20
33.0082
 11
11.8365
 21
33.0734
  0
LINE
  8
0
 10
11.8365
 20
33.0734
 11
11.55
 21
33.201
  0
LINE
  8
0
 10
11.55
 20
33.201
 11
11.2963
 21
33.3853
  0
LINE
  8
0
 10
11.2963
 20
33.3853
 11
11.0865
 21
33.6183
  0
LINE
  8
0
 10
11.0865
 20
33.6183
 11
10.9297
 21
33.8899
  0
LINE
  8
0
 10
10.9297
 20
33.8899
 11
10.8328
 21
34.1881
  0
LINE
  8
0
 10
10.8328
 20
34.1881
 11
10.8
 21
34.5
  0
LINE
  8
0
 10
10.8
 20
34.5
 11
10.8328
 21
34.8119
  0
LINE
  8
0
 10
10.8328
 20
34.8119
 11
10.9297
 21
35.1101
  0
LINE
  8
0
 10
10.9297
 20
35.1101
 11
11.0865
 21
35.3817
  0
LINE
  8
0
 10
11.0865
 20
35.3817
 11
11.2963
 21
35.6147
  0
LINE
  8
0
 10
11.2963
 20
35.6147
 11
11.55
 21
35.799
  0
LINE
  8
0
 10
11.55
 20
35.799
 11
11.8365
 21
35.9266
  0
LINE
  8
0
 10
11.8365
 20
35.9266
 11
12.1432
 21
35.9918
  0
LINE
  8
0
 10
12.1432
 20
35.9918
 11
12.4568
 21
35.9918
  0
LINE
  8
0
 10
12.4568
 20
35.9918
 11
12.7635
 21
35.9266
  0
LINE
  8
0
 10
12.7635
 20
35.9266
 11
13.05
 21
35.799
  0
LINE
  8
0
 10
13.05
 20
35.799
 11
13.3037
 21
35.6147
  0
LINE
  8
0
 10
13.3037
 20
35.6147
 11
13.5135
 21
35.3817
  0
LINE
  8
0
 10
13.5135
 20
35.3817
 11
13.6703
 21
35.1101
  0
LINE
  8
0
 10
13.6703
 20
35.1101
 11
13.7672
 21
34.8119
  0
LINE
  8
0
 10
13.7672
 20
34.8119
 11
13.8
 21
34.5
  0
LINE
  8
0
 10
13.8
 20
34.5
 11
13.7672
 21
34.1881
  0
LINE
  8
0
 10
13.7672
 20
34.1881
 11
13.6703
 21
33.8899
  0
LINE
  8
0
 10
13.6703
 20
33.8899
 11
13.5135
 21
33.6183
  0
LINE
  8
0
 10
13.5135
 20
33.6183
 11
13.3037
 21
33.3853
  0
LINE
  8
0
 10
13.3037
 20
33.3853
 11
13.05
 21
33.201
  0
LINE
  8
0
 10
13.05
 20
33.201
 11
12.7635
 21
33.0734
  0
LINE
  8
0
 10
12.7635
 20
33.0734
 11
12.4568
 21
33.0082
  0
LINE
  8
0
 10
12.4568
 20
33.0082
 11
12.1432
 21
33.0082
  0
LINE
  8
0
 10
91.3
 20
16.6
 11
91.3
 21
31
  0
LINE
  8
0
 10
91.3
 20
31
 11
105.5
 21
31
  0
LINE
  8
0
 10
105.5
 20
31
 11
105.5
 21
16.6
  0
LINE
  8
0
 10
105.5
 20
16.6
 11
91.3
 21
16.6
  0
LINE
  8
0
 10
115.9
 20
16.6
 11
115.9
 21
31
  0
LINE
  8
0
 10
115.9
 20
31
 11
130.1
 21
31
  0
LINE
  8
0
 10
130.1
 20
31
 11
130.1
 21
16.6
  0
LINE
  8
0
 10
130.1
 20
16.6
 11
115.9
 21
16.6
  0
LINE
  8
0
 10
140.5
 20
16.6
 11
140.5
 21
31
  0
LINE
  8
0
 10
140.5
 20
31
 11
154.7
 21
31
  0
LINE
  8
0
 10
154.7
 20
31
 11
154.7
 21
16.6
  0
LINE
  8
0
 10
154.7
 20
16.6
 11
140.5
 21
16.6
  0
LINE
  8
0
 10
165.1
 20
16.6
 11
165.1
 21
31
  0
LINE
  8
0
 10
165.1
 20
31
 11
179.3
 21
31
  0
LINE
  8
0
 10
179.3
 20
31
 11
179.3
 21
16.6
  0
LINE
  8
0
 10
179.3
 20
16.6
 11
165.1
 21
16.6
  0
LINE
  8
0
 10
-7.09999
 20
16.6
 11
-7.09999
 21
31
  0
LINE
  8
0
 10
-7.09999
 20
31
 11
7.09999
 21
31
  0
LINE
  8
0
 10
7.09999
 20
31
 11
7.09999
 21
16.6
  0
LINE
  8
0
 10
7.09999
 20
16.6
 11
-7.09999
 21
16.6
  0
LINE
  8
0
 10
17.5
 20
16.6
 11
17.5
 21
31
  0
LINE
  8
0
 10
17.5
 20
31
 11
31.7
 21
31
  0
LINE
  8
0
 10
31.7
 20
31
 11
31.7
 21
16.6
  0
LINE
  8
0
 10
31.7
 20
16.6
 11
17.5
 21
16.6
  0
LINE
  8
0
 10
42.1
 20
16.6
 11
42.1
 21
31
  0
LINE
  8
0
 10
42.1
 20
31
 11
56.3
 21
31
  0
LINE
  8
0
 10
56.3
 20
31
 11
56.3
 21
16.6
  0
LINE
  8
0
 10
56.3
 20
16.6
 11
42.1
 21
16.6
  0
LINE
  8
0
 10
66.7
 20
16.6
 11
66.7
 21
31
  0
LINE
  8
0
 10
66.7
 20
31
 11
80.9
 21
31
  0
LINE
  8
0
 10
80.9
 20
31
 11
80.9
 21
16.6
  0
LINE
  8
0
 10
80.9
 20
16.6
 11
66.7
 21
16.6
  0
LINE
  8
0
 10
140.5
 20
-5.39999
 11
140.5
 21
9
  0
LINE
  8
0
 10
140.5
 20
9
 11
154.7
 21
9
  0
LINE
  8
0
 10
154.7
 20
9
 11
154.7
 21
-5.39999
  0
LINE
  8
0
 10
154.7
 20
-5.39999
 11
140.5
 21
-5.39999
  0
LINE
  8
0
 10
91.3
 20
-5.39999
 11
91.3
 21
9
  0
LINE
  8
0
 10
91.3
 20
9
 11
105.5
 21
9
  0
LINE
  8
0
 10
105.5
 20
9
 11
105.5
 21
-5.39999
  0
LINE
  8
0
 10
105.5
 20
-5.39999
 11
91.3
 21
-5.39999
  0
LINE
  8
0
 10
115.9
 20
-5.39999
 11
115.9
 21
9
  0
LINE
  8
0
 10
115.9
 20
9
 11
130.1
 21
9
  0
LINE
  8
0
 10
130.1
 20
9
 11
130.1
 21
-5.39999
  0
LINE
  8
0
 10
130.1
 20
-5.39999
 11
115.9
 21
-5.39999
  0
LINE
  8
0
 10
165.1
 20
-5.39999
 11
165.1
 21
9
  0
LINE
  8
0
 10
165.1
 20
9
 11
179.3
 21
9
  0
LINE
  8
0
 10
179.3
 20
9
 11
179.3
 21
-5.39999
  0
LINE
  8
0
 10
179.3
 20
-5.39999
 11
165.1
 21
-5.39999
  0
LINE
  8
0
 10
42.1
 20
-5.39999
 11
42.1
 21
9
  0
LINE
  8
0
 10
42.1
 20
9
 11
56.3
 21
9
  0
LINE
  8
0
 10
56.3
 20
9
 11
56.3
 21
-5.39999
  0
LINE
  8
0
 10
56.3
 20
-5.39999
 11
42.1
 21
-5.39999
  0
LINE
  8
0
 10
-7.09999
 20
-5.39999
 11
-7.09999
 21
9
  0
LINE
  8
0
 10
-7.09999
 20
9
 11
7.09999
 21
9
  0
LINE
  8
0
 10
7.09999
 20
9
 11
7.09999
 21
-5.39999
  0
LINE
  8
0
 10
7.09999
 20
-5.39999
 11
-7.09999
 21
-5.39999
  0
LINE
  8
0
 10
17.5
 20
-5.39999
 11
17.5
 21
9
  0
LINE
  8
0
 10
17.5
 20
9
 11
31.7
 21
9
  0
LINE
  8
0
 10
31.7
 20
9
 11
31.7
 21
-5.39999
  0
LINE
  8
0
 10
31.7
 20
-5.39999
 11
17.5
 21
-5.39999
  0
LINE
  8
0
 10
66.7
 20
-5.39999
 11
66.7
 21
9
  0
LINE
  8
0
 10
66.7
 20
9
 11
80.9
 21
9
  0
LINE
  8
0
 10
80.9
 20
9
 11
80.9
 21
-5.39999
  0
LINE
  8
0
 10
80.9
 20
-5.39999
 11
66.7
 21
-5.39999
  0
LINE
  8
0
 10
110.543
 20
-10.4918
 11
110.236
 21
-10.4266
  0
LINE
  8
0
 10
110.236
 20
-10.4266
 11
109.95
 21
-10.299
  0
LINE
  8
0
 10
109.95
 20
-10.299
 11
109.696
 21
-10.1147
  0
LINE
  8
0
 10
109.696
 20
-10.1147
 11
109.486
 21
-9.88167
  0
LINE
  8
0
 10
109.486
 20
-9.88167
 11
109.33
 21
-9.61009
  0
LINE
  8
0
 10
109.33
 20
-9.61009
 11
109.233
 21
-9.31186
  0
LINE
  8
0
 10
109.233
 20
-9.31186
 11
109.2
 21
-9
  0
LINE
  8
0
 10
109.2
 20
-9
 11
109.233
 21
-8.68813
  0
LINE
  8
0
 10
109.233
 20
-8.68813
 11
109.33
 21
-8.38989
  0
LINE
  8
0
 10
109.33
 20
-8.38989
 11
109.486
 21
-8.11832
  0
LINE
  8
0
 10
109.486
 20
-8.11832
 11
109.696
 21
-7.88527
  0
LINE
  8
0
 10
109.696
 20
-7.88527
 11
109.95
 21
-7.70096
  0
LINE
  8
0
 10
109.95
 20
-7.70096
 11
110.236
 21
-7.57341
  0
LINE
  8
0
 10
110.236
 20
-7.57341
 11
110.543
 21
-7.50821
  0
LINE
  8
0
 10
110.543
 20
-7.50821
 11
110.857
 21
-7.50821
  0
LINE
  8
0
 10
110.857
 20
-7.50821
 11
111.164
 21
-7.57341
  0
LINE
  8
0
 10
111.164
 20
-7.57341
 11
111.45
 21
-7.70096
  0
LINE
  8
0
 10
111.45
 20
-7.70096
 11
111.704
 21
-7.88527
  0
LINE
  8
0
 10
111.704
 20
-7.88527
 11
111.914
 21
-8.11832
  0
LINE
  8
0
 10
111.914
 20
-8.11832
 11
112.07
 21
-8.38989
  0
LINE
  8
0
 10
112.07
 20
-8.38989
 11
112.167
 21
-8.68813
  0
LINE
  8
0
 10
112.167
 20
-8.68813
 11
112.2
 21
-9
  0
LINE
  8
0
 10
112.2
 20
-9
 11
112.167
 21
-9.31186
  0
LINE
  8
0
 10
112.167
 20
-9.31186
 11
112.07
 21
-9.61009
  0
LINE
  8
0
 10
112.07
 20
-9.61009
 11
111.914
 21
-9.88167
  0
LINE
  8
0
 10
111.914
 20
-9.88167
 11
111.704
 21
-10.1147
  0
LINE
  8
0
 10
111.704
 20
-10.1147
 11
111.45
 21
-10.299
  0
LINE
  8
0
 10
111.45
 20
-10.299
 11
111.164
 21
-10.4266
  0
LINE
  8
0
 10
111.164
 20
-10.4266
 11
110.857
 21
-10.4918
  0
LINE
  8
0
 10
110.857
 20
-10.4918
 11
110.543
 21
-10.4918
  0
LINE
  8
0
 10
159.743
 20
-10.4918
 11
159.436
 21
-10.4266
  0
LINE
  8
0
 10
159.436
 20
-10.4266
 11
159.15
 21
-10.299
  0
LINE
  8
0
 10
159.15
 20
-10.299
 11
158.896
 21
-10.1147
  0
LINE
  8
0
 10
158.896
 20
-10.1147
 11
158.686
 21
-9.88167
  0
LINE
  8
0
 10
158.686
 20
-9.88167
 11
158.53
 21
-9.61009
  0
LINE
  8
0
 10
158.53
 20
-9.61009
 11
158.433
 21
-9.31186
  0
LINE
  8
0
 10
158.433
 20
-9.31186
 11
158.4
 21
-9
  0
LINE
  8
0
 10
158.4
 20
-9
 11
158.433
 21
-8.68813
  0
LINE
  8
0
 10
158.433
 20
-8.68813
 11
158.53
 21
-8.38989
  0
LINE
  8
0
 10
158.53
 20
-8.38989
 11
158.686
 21
-8.11832
  0
LINE
  8
0
 10
158.686
 20
-8.11832
 11
158.896
 21
-7.88527
  0
LINE
  8
0
 10
158.896
 20
-7.88527
 11
159.15
 21
-7.70096
  0
LINE
  8
0
 10
159.15
 20
-7.70096
 11
159.436
 21
-7.57341
  0
LINE
  8
0
 10
159.436
 20
-7.57341
 11
159.743
 21
-7.50821
  0
LINE
  8
0
 10
159.743
 20
-7.50821
 11
160.057
 21
-7.50821
  0
LINE
  8
0
 10
160.057
 20
-7.50821
 11
160.364
 21
-7.57341
  0
LINE
  8
0
 10
160.364
 20
-7.57341
 11
160.65
 21
-7.70096
  0
LINE
  8
0
 10
160.65
 20
-7.70096
 11
160.904
 21
-7.88527
  0
LINE
  8
0
 10
160.904
 20
-7.88527
 11
161.114
 21
-8.11832
  0
LINE
  8
0
 10
161.114
 20
-8.11832
 11
161.27
 21
-8.38989
  0
LINE
  8
0
 10
161.27
 20
-8.38989
 11
161.367
 21
-8.68813
  0
LINE
  8
0
 10
161.367
 20
-8.68813
 11
161.4
 21
-9
  0
LINE
  8
0
 10
161.4
 20
-9
 11
161.367
 21
-9.31186
  0
LINE
  8
0
 10
161.367
 20
-9.31186
 11
161.27
 21
-9.61009
  0
LINE
  8
0
 10
161.27
 20
-9.61009
 11
161.114
 21
-9.88167
  0
LINE
  8
0
 10
161.114
 20
-9.88167
 11
160.904
 21
-10.1147
  0
LINE
  8
0
 10
160.904
 20
-10.1147
 11
160.65
 21
-10.299
  0
LINE
  8
0
 10
160.65
 20
-10.299
 11
160.364
 21
-10.4266
  0
LINE
  8
0
 10
160.364
 20
-10.4266
 11
160.057
 21
-10.4918
  0
LINE
  8
0
 10
160.057
 20
-10.4918
 11
159.743
 21
-10.4918
  0
LINE
  8
0
 10
12.1432
 20
-10.4918
 11
11.8365
 21
-10.4266
  0
LINE
  8
0
 10
11.8365
 20
-10.4266
 11
11.55
 21
-10.299
  0
LINE
  8
0
 10
11.55
 20
-10.299
 11
11.2963
 21
-10.1147
  0
LINE
  8
0
 10
11.2963
 20
-10.1147
 11
11.0865
 21
-9.88167
  0
LINE
  8
0
 10
11.0865
 20
-9.88167
 11
10.9297
 21
-9.61009
  0
LINE
  8
0
 10
10.9297
 20
-9.61009
 11
10.8328
 21
-9.31186
  0
LINE
  8
0
 10
10.8328
 20
-9.31186
 11
10.8
 21
-9
  0
LINE
  8
0
 10
10.8
 20
-9
 11
10.8328
 21
-8.68813
  0
LINE
  8
0
 10
10.8328
 20
-8.68813
 11
10.9297
 21
-8.38989
  0
LINE
  8
0
 10
10.9297
 20
-8.38989
 11
11.0865
 21
-8.11832
  0
LINE
  8
0
 10
11.0865
 20
-8.11832
 11
11.2963
 21
-7.88527
  0
LINE
  8
0
 10
11.2963
 20
-7.88527
 11
11.55
 21
-7.70096
  0
LINE
  8
0
 10
11.55
 20
-7.70096
 11
11.8365
 21
-7.57341
  0
LINE
  8
0
 10
11.8365
 20
-7.57341
 11
12.1432
 21
-7.50821
  0
LINE
  8
0
 10
12.1432
 20
-7.50821
 11
12.4568
 21
-7.50821
  0
LINE
  8
0
 10
12.4568
 20
-7.50821
 11
12.7635
 21
-7.57341
  0
LINE
  8
0
 10
12.7635
 20
-7.57341
 11
13.05
 21
-7.70096
  0
LINE
  8
0
 10
13.05
 20
-7.70096
 11
13.3037
 21
-7.88527
  0
LINE
  8
0
 10
13.3037
 20
-7.88527
 11
13.5135
 21
-8.11832
  0
LINE
  8
0
 10
13.5135
 20
-8.11832
 11
13.6703
 21
-8.38989
  0
LINE
  8
0
 10
13.6703
 20
-8.38989
 11
13.7672
 21
-8.68813
  0
LINE
  8
0
 10
13.7672
 20
-8.68813
 11
13.8
 21
-9
  0
LINE
  8
0
 10
13.8
 20
-9
 11
13.7672
 21
-9.31186
  0
LINE
  8
0
 10
13.7672
 20
-9.31186
 11
13.6703
 21
-9.61009
  0
LINE
  8
0
 10
13.6703
 20
-9.61009
 11
13.5135
 21
-9.88167
  0
LINE
  8
0
 10
13.5135
 20
-9.88167
 11
13.3037
 21
-10.1147
  0
LINE
  8
0
 10
13.3037
 20
-10.1147
 11
13.05
 21
-10.299
  0
LINE
  8
0
 10
13.05
 20
-10.299
 11
12.7635
 21
-10.4266
  0
LINE
  8
0
 10
12.7635
 20
-10.4266
 11
12.4568
 21
-10.4918
  0
LINE
  8
0
 10
12.4568
 20
-10.4918
 11
12.1432
 21
-10.4918
  0
LINE
  8
0
 10
61.3432
 20
-10.4918
 11
61.0365
 21
-10.4266
  0
LINE
  8
0
 10
61.0365
 20
-10.4266
 11
60.75
 21
-10.299
  0
LINE
  8
0
 10
60.75
 20
-10.299
 11
60.4963
 21
-10.1147
  0
LINE
  8
0
 10
60.4963
 20
-10.1147
 11
60.2865
 21
-9.88167
  0
LINE
  8
0
 10
60.2865
 20
-9.88167
 11
60.1297
 21
-9.61009
  0
LINE
  8
0
 10
60.1297
 20
-9.61009
 11
60.0328
 21
-9.31186
  0
LINE
  8
0
 10
60.0328
 20
-9.31186
 11
60
 21
-9
  0
LINE
  8
0
 10
60
 20
-9
 11
60.0328
 21
-8.68813
  0
LINE
  8
0
 10
60.0328
 20
-8.68813
 11
60.1297
 21
-8.38989
  0
LINE
  8
0
 10
60.1297
 20
-8.38989
 11
60.2865
 21
-8.11832
  0
LINE
  8
0
 10
60.2865
 20
-8.11832
 11
60.4963
 21
-7.88527
  0
LINE
  8
0
 10
60.4963
 20
-7.88527
 11
60.75
 21
-7.70096
  0
LINE
  8
0
 10
60.75
 20
-7.70096
 11
61.0365
 21
-7.57341
  0
LINE
  8
0
 10
61.0365
 20
-7.57341
 11
61.3432
 21
-7.50821
  0
LINE
  8
0
 10
61.3432
 20
-7.50821
 11
61.6568
 21
-7.50821
  0
LINE
  8
0
 10
61.6568
 20
-7.50821
 11
61.9635
 21
-7.57341
  0
LINE
  8
0
 10
61.9635
 20
-7.57341
 11
62.25
 21
-7.70096
  0
LINE
  8
0
 10
62.25
 20
-7.70096
 11
62.5037
 21
-7.88527
  0
LINE
  8
0
 10
62.5037
 20
-7.88527
 11
62.7135
 21
-8.11832
  0
LINE
  8
0
 10
62.7135
 20
-8.11832
 11
62.8703
 21
-8.38989
  0
LINE
  8
0
 10
62.8703
 20
-8.38989
 11
62.9672
 21
-8.68813
  0
LINE
  8
0
 10
62.9672
 20
-8.68813
 11
63
 21
-9
  0
LINE
  8
0
 10
63
 20
-9
 11
62.9672
 21
-9.31186
  0
LINE
  8
0
 10
62.9672
 20
-9.31186
 11
62.8703
 21
-9.61009
  0
LINE
  8
0
 10
62.8703
 20
-9.61009
 11
62.7135
 21
-9.88167
  0
LINE
  8
0
 10
62.7135
 20
-9.88167
 11
62.5037
 21
-10.1147
  0
LINE
  8
0
 10
62.5037
 20
-10.1147
 11
62.25
 21
-10.299
  0
LINE
  8
0
 10
62.25
 20
-10.299
 11
61.9635
 21
-10.4266
  0
LINE
  8
0
 10
61.9635
 20
-10.4266
 11
61.6568
 21
-10.4918
  0
LINE
  8
0
 10
61.6568
 20
-10.4918
 11
61.3432
 21
-10.4918
  0
LINE
  8
0
 10
111.704
 20
35.6147
 11
111.914
 21
35.3817
  0
LINE
  8
0
 10
111.914
 20
35.3817
 11
112.07
 21
35.1101
  0
LINE
  8
0
 10
112.07
 20
35.1101
 11
112.167
 21
34.8119
  0
LINE
  8
0
 10
112.167
 20
34.8119
 11
112.2
 21
34.5
  0
LINE
  8
0
 10
112.2
 20
34.5
 11
112.167
 21
34.1881
  0
LINE
  8
0
 10
112.167
 20
34.1881
 11
112.07
 21
33.8899
  0
LINE
  8
0
 10
112.07
 20
33.8899
 11
111.914
 21
33.6183
  0
LINE
  8
0
 10
111.914
 20
33.6183
 11
111.704
 21
33.3853
  0
LINE
  8
0
 10
111.704
 20
33.3853
 11
111.45
 21
33.201
  0
LINE
  8
0
 10
111.45
 20
33.201
 11
111.164
 21
33.0734
  0
LINE
  8
0
 10
111.164
 20
33.0734
 11
110.857
 21
33.0082
  0
LINE
  8
0
 10
110.857
 20
33.0082
 11
110.543
 21
33.0082
  0
LINE
  8
0
 10
110.543
 20
33.0082
 11
110.236
 21
33.0734
  0
LINE
  8
0
 10
110.236
 20
33.0734
 11
109.95
 21
33.201
  0
LINE
  8
0
 10
109.95
 20
33.201
 11
109.696
 21
33.3853
  0
LINE
  8
0
 10
109.696
 20
33.3853
 11
109.486
 21
33.6183
  0
LINE
  8
0
 10
109.486
 20
33.6183
 11
109.33
 21
33.8899
  0
LINE
  8
0
 10
109.33
 20
33.8899
 11
109.233
 21
34.1881
  0
LINE
  8
0
 10
109.233
 20
34.1881
 11
109.2
 21
34.5
  0
LINE
  8
0
 10
109.2
 20
34.5
 11
109.233
 21
34.8119
  0
LINE
  8
0
 10
109.233
 20
34.8119
 11
109.33
 21
35.1101
  0
LINE
  8
0
 10
109.33
 20
35.1101
 11
109.486
 21
35.3817
  0
LINE
  8
0
 10
109.486
 20
35.3817
 11
109.696
 21
35.6147
  0
LINE
  8
0
 10
109.696
 20
35.6147
 11
109.95
 21
35.799
  0
LINE
  8
0
 10
109.95
 20
35.799
 11
110.236
 21
35.9266
  0
LINE
  8
0
 10
110.236
 20
35.9266
 11
110.543
 21
35.9918
  0
LINE
  8
0
 10
110.543
 20
35.9918
 11
110.857
 21
35.9918
  0
LINE
  8
0
 10
110.857
 20
35.9918
 11
111.164
 21
35.9266
  0
LINE
  8
0
 10
111.164
 20
35.9266
 11
111.45
 21
35.799
  0
LINE
  8
0
 10
111.45
 20
35.799
 11
111.704
 21
35.6147
  0
ENDSEC
  0
SECTION
  2
OBJECTS
  0
DICTIONARY
  0
ENDSEC
  0
EOF
